<svg id="Capa_1" data-name="Capa 1" xmlns="http://www.w3.org/2000/svg" xmlns:xlink="http://www.w3.org/1999/xlink" viewBox="0 0 194.29 308.94"><defs><style>.cls-1{fill:none;}.cls-2{fill:#fff;}.cls-3{clip-path:url(#clip-path);}.cls-4{fill:#00a6ff;}.cls-5{fill:#ff95a9;}.cls-6{fill:#13ce66;}.cls-7{fill:#343f4b;}.cls-8{fill:#007cb2;}.cls-9{fill:#424242;}</style><clipPath id="clip-path"><rect class="cls-1" x="29.74" y="31.66" width="134.81" height="151.66"/></clipPath></defs><title>centro</title><rect class="cls-2" x="0.12" width="194.04" height="308.94" rx="25.53"/><g class="cls-3"><path class="cls-4" d="M107.19,59.7c-3.06-3.06-16.08-3.83-20.29-4.21a1.41,1.41,0,0,0-1.15.38A2.93,2.93,0,0,0,85,57.4V91.87a1.81,1.81,0,0,0,1.92,1.91H98.39a2.1,2.1,0,0,0,1.91-1.15c0-1.15,6.89-21.44,7.66-31.4A1.52,1.52,0,0,0,107.19,59.7Z"/><path class="cls-5" d="M148.65,69.37c-3.8-1.25-7.2-2.88-10.23-4.11-6.8-3.26-9.91-1.81-16.2,4.14-2.76,2.6-4.78,6.38-4.44,7.92,0,.38,0,.38.74.79,1.9.82,4.56,1.27,7.36-2.86a2,2,0,0,1,1.55-.72,7,7,0,0,0,2.71-.7,18.42,18.42,0,0,1,2.71-1.07l.76,0c.39,0,1.14.42,1.52.43,1.86,2,5.23,4.74,8.59,7.9,5.24,4.36,10.47,9.11,13.06,12.63h.38C154.69,86,150.47,72.87,148.65,69.37Z"/><path class="cls-6" d="M175,59.32c-14.93,0-23.36,3.83-23.74,3.83l-1.15,1.14a2.34,2.34,0,0,0,.38,1.54c2.3,3.83,10,24.89,11.11,30.25a2.55,2.55,0,0,0,1.91,1.53H175a1.82,1.82,0,0,0,1.92-1.92V61.23A1.81,1.81,0,0,0,175,59.32Z"/><path class="cls-5" d="M154,97.49c-1.44-3.49-7.8-8.65-13.42-13.4-3-2.77-6-5.15-8.22-7.13-.4.37-1.16.35-1.17.73a7,7,0,0,1-3.09.68c-3.17,3.75-7,5.17-11.21,3.52a4.53,4.53,0,0,1-3.34-3.54c-.66-3.85,2.93-9.11,5.69-11.72l-7.66-.21a192.73,192.73,0,0,1-6.77,22.79,42.72,42.72,0,0,0,4.1,4.33c7.1,6.33,15.35,12.69,16.85,13.88a10.78,10.78,0,0,0,4.55,1.66l1.14,0-6-6.3a1.9,1.9,0,0,1,2.76-2.61l7.44,7.88c.74.78,1.52.42,2.28.44,1.16-.35,1.57-1.1,2-2.24l-8.56-9.05a1.9,1.9,0,0,1,2.76-2.61l9.3,9.84c.37.4,1.9.44,3.06.09a5.83,5.83,0,0,0,1.58-1.49l-10.42-11a1.89,1.89,0,1,1,2.75-2.6l10.79,11.41a2.55,2.55,0,0,0,2.31-.32A2.61,2.61,0,0,0,154,97.49Z"/><path class="cls-7" d="M86.09,186.61c.16,3.61-3.82,36.57-5,39.79L33.93,199.23a27,27,0,0,1-2.45-10.14,27.33,27.33,0,1,1,54.61-2.48Z"/><polygon class="cls-4" points="63.44 124.71 91.13 165.32 108.99 155.54 89.62 110.37 63.44 124.71"/><circle class="cls-4" cx="75.83" cy="116.26" r="14.99" transform="translate(-52.5 169.17) rotate(-79.29)"/><polygon class="cls-4" points="63.44 124.71 86.43 158.43 105.7 147.87 89.63 110.37 63.44 124.71"/><path class="cls-4" d="M86.35,111.8l-.26,74.81-54.62,2.48-7.06-74.47a10.5,10.5,0,0,1,10-11.48l41-1.86A10.49,10.49,0,0,1,86.35,111.8Z"/><path class="cls-7" d="M37.8,69.36H51.43a0,0,0,0,1,0,0V83.63a0,0,0,0,1,0,0H46.89a9.09,9.09,0,0,1-9.09-9.09V69.36A0,0,0,0,1,37.8,69.36Z" transform="translate(-3.87 2.39) rotate(-2.95)"/><rect class="cls-5" x="46.11" y="81.86" width="18.74" height="20.31" transform="translate(-4.66 2.97) rotate(-2.95)"/><path class="cls-5" d="M70.18,89.26,46,90.51,44.62,63.3A15,15,0,0,1,58.83,47.54h0A15,15,0,0,1,74.53,61l2.08,20.75A6.82,6.82,0,0,1,70.18,89.26Z"/><path class="cls-1" d="M75.82,73.93,74.53,61Z"/><path class="cls-7" d="M51,45.72h1.5a0,0,0,0,1,0,0V71.37a0,0,0,0,1,0,0H36.88a0,0,0,0,1,0,0V59.89A14.17,14.17,0,0,1,51,45.72Z" transform="translate(-2.95 2.37) rotate(-2.94)"/><path class="cls-5" d="M45.16,73.92l4.08-.21L49,69.63a4.08,4.08,0,0,0-4.29-3.87h0a4.08,4.08,0,0,0-3.87,4.29h0A4.08,4.08,0,0,0,45.16,73.92Z"/><path class="cls-7" d="M76.46,56.8l-21.82.79c-6.32.33-13.78,2.46-13.78-10.86,0-3,1.69-6.06,12.88-6.06a6.16,6.16,0,0,1,6.06,5.5.57.57,0,0,0,.59.54l15.5-.8Z"/><path class="cls-7" d="M70.39,51.65l-7.71.4a5.45,5.45,0,0,1-.56-10.89l7.71-.4a5.45,5.45,0,0,1,.56,10.89Z"/><path class="cls-5" d="M65.36,101.68a9.37,9.37,0,1,1-9.84-8.88A9.38,9.38,0,0,1,65.36,101.68Z"/><path class="cls-2" d="M73.36,79a4.21,4.21,0,0,1-8.41.32Z"/><polygon class="cls-4" points="46.64 102.64 56.48 111.52 65.36 101.68 71.47 102.16 71.47 116.27 42.17 116.27 42.17 102.79 46.64 102.64"/><polygon class="cls-4" points="46.22 128.37 12.59 164.21 -3.54 151.78 22.58 110.15 46.22 128.37"/><polygon class="cls-4" points="46.23 128.37 18.3 158.13 0.9 144.71 22.57 110.15 46.23 128.37"/><circle class="cls-4" cx="35.29" cy="118.11" r="14.99" transform="matrix(0.42, -0.91, 0.91, 0.42, -86.64, 99.99)"/><path class="cls-8" d="M46.23,101.39l-1.33.42-2,10.47a30.07,30.07,0,0,1,6.85-.37c7.78.42,8.91,5.69,8.91,5.69s1.34-5.55,6.75-7.46l4.32-1.49L66,100.79h-.58l-6.73,8.89Z"/><path class="cls-8" d="M42.88,112.28l4.54,6.28s6.49-10.85,11.22-8.88-12.41-7.91-12.41-7.91Z"/><path class="cls-8" d="M71.13,109.38l-3.64,8.8s-4.71-10.86-8.14-8.88,6.16-8.72,6.16-8.72l1,.21Z"/><circle class="cls-4" cx="5.47" cy="157.37" r="10.23" transform="translate(-62.57 15.36) rotate(-23.61)"/><polygon class="cls-4" points="15.19 160.56 -3.26 216.61 -12 214.65 -11.63 211.63 -11.06 207.18 -4.68 156.1 15.19 160.56"/><circle class="cls-4" cx="99.4" cy="159.67" r="10.23"/><polygon class="cls-4" points="130.15 211.07 122.13 215.07 90.74 165.1 108.95 156 127.44 204.04 129.05 208.23 130.15 211.07"/><polygon class="cls-4" points="130.14 211.07 122.13 215.08 120.02 211.71 129.05 208.23 130.14 211.07"/><rect class="cls-4" x="118.96" y="207.57" width="12.23" height="6.88" transform="translate(-74.04 67.76) rotate(-23.61)"/><rect class="cls-8" x="57.44" y="115.31" width="1.49" height="72.54"/><circle class="cls-8" cx="54.16" cy="123.79" r="1.65"/><circle class="cls-8" cx="54.16" cy="131.58" r="1.65"/><circle class="cls-8" cx="54.16" cy="139.37" r="1.65"/><circle class="cls-8" cx="54.16" cy="147.16" r="1.65"/><circle class="cls-8" cx="54.16" cy="154.95" r="1.65"/><circle class="cls-8" cx="54.16" cy="162.74" r="1.65"/><rect class="cls-8" x="65.48" y="126.78" width="13.61" height="2.12"/><rect class="cls-8" x="31.29" y="126.78" width="13.61" height="2.12"/></g><path class="cls-9" d="M49.74,212.47a6.78,6.78,0,0,1,7.13-6.84,6.76,6.76,0,0,1,5.26,2.22l-1.6,1.5A4.68,4.68,0,0,0,57,207.79a4.68,4.68,0,1,0,0,9.35,4.6,4.6,0,0,0,3.55-1.58l1.6,1.52a6.75,6.75,0,0,1-5.28,2.23A6.77,6.77,0,0,1,49.74,212.47Z"/><path class="cls-9" d="M73.39,214.8h-8a3.08,3.08,0,0,0,3.29,2.43,3.66,3.66,0,0,0,2.76-1.1l1.27,1.47a5.16,5.16,0,0,1-4.09,1.65c-3.4,0-5.6-2.19-5.6-5.21a5,5,0,0,1,5.24-5.18,4.94,4.94,0,0,1,5.13,5.24C73.43,214.29,73.41,214.57,73.39,214.8Zm-8-1.57h5.75a2.76,2.76,0,0,0-2.87-2.47A2.79,2.79,0,0,0,65.42,213.23Z"/><path class="cls-9" d="M85.71,213.3v5.82H83.33v-5.51c0-1.81-.89-2.68-2.41-2.68-1.69,0-2.83,1-2.83,3.06v5.13H75.71V209H78v1.31a4.39,4.39,0,0,1,3.49-1.42C83.9,208.86,85.71,210.24,85.71,213.3Z"/><path class="cls-9" d="M94.83,218.56a3.72,3.72,0,0,1-2.28.69c-2.23,0-3.5-1.18-3.5-3.42V211H87.38v-1.9h1.67v-2.32h2.38v2.32h2.71V211H91.43v4.82c0,1,.49,1.52,1.4,1.52a2.09,2.09,0,0,0,1.33-.42Z"/><path class="cls-9" d="M102.65,208.86v2.26a2.8,2.8,0,0,0-.55-.06c-1.8,0-2.94,1.06-2.94,3.13v4.93H96.78V209h2.27v1.48A4,4,0,0,1,102.65,208.86Z"/><path class="cls-9" d="M103.74,214a5.41,5.41,0,1,1,5.39,5.21A5.1,5.1,0,0,1,103.74,214Zm8.41,0a3,3,0,1,0-3,3.18A3,3,0,0,0,112.15,214Z"/><path class="cls-9" d="M132,205v14.1h-2.28V217.8a4.19,4.19,0,0,1-3.36,1.45,5.2,5.2,0,0,1,0-10.39,4.13,4.13,0,0,1,3.26,1.36V205Zm-2.34,9a3,3,0,1,0-3,3.18A3,3,0,0,0,129.67,214Z"/><path class="cls-9" d="M144.63,214.8h-8a3.06,3.06,0,0,0,3.28,2.43,3.66,3.66,0,0,0,2.76-1.1L144,217.6a5.16,5.16,0,0,1-4.09,1.65c-3.4,0-5.6-2.19-5.6-5.21a5,5,0,0,1,5.24-5.18,4.94,4.94,0,0,1,5.13,5.24C144.66,214.29,144.64,214.57,144.63,214.8Zm-8-1.57h5.75a2.76,2.76,0,0,0-2.87-2.47A2.79,2.79,0,0,0,136.65,213.23Z"/><path class="cls-9" d="M64.78,238.84H58.13l-1.31,3.08H54.27l6-13.3h2.43l6,13.3H66.11ZM64,236.9l-2.51-5.81L59,236.9Z"/><path class="cls-9" d="M69.23,236.84c0-3,2.28-5.18,5.49-5.18A4.56,4.56,0,0,1,79.05,234l-1.83,1.07a2.86,2.86,0,0,0-2.52-1.41,3.18,3.18,0,0,0,0,6.35,2.86,2.86,0,0,0,2.52-1.41l1.83,1.06a4.62,4.62,0,0,1-4.33,2.38A5.15,5.15,0,0,1,69.23,236.84Z"/><path class="cls-9" d="M80.11,236.84a5.41,5.41,0,1,1,5.4,5.21A5.1,5.1,0,0,1,80.11,236.84Zm8.42,0a3,3,0,1,0-3,3.18A3,3,0,0,0,88.53,236.84Z"/><path class="cls-9" d="M104,236.84a5,5,0,0,1-5.15,5.21,4.15,4.15,0,0,1-3.25-1.37v4.92H93.2V231.77h2.26v1.33a4.19,4.19,0,0,1,3.37-1.44A4.94,4.94,0,0,1,104,236.84Zm-2.42,0a3,3,0,1,0-3,3.18A3,3,0,0,0,101.56,236.84Z"/><path class="cls-9" d="M105.91,228.67a1.45,1.45,0,0,1,1.52-1.42,1.41,1.41,0,0,1,1.52,1.37,1.52,1.52,0,0,1-3,0Zm.33,3.1h2.37v10.15h-2.37Z"/><path class="cls-9" d="M110.89,236.84a5.41,5.41,0,1,1,5.4,5.21A5.1,5.1,0,0,1,110.89,236.84Zm8.42,0a3,3,0,1,0-3,3.18A3,3,0,0,0,119.31,236.84Z"/><path class="cls-9" d="M128.39,236.84a5.41,5.41,0,1,1,5.4,5.21A5.1,5.1,0,0,1,128.39,236.84Zm8.42,0a3,3,0,1,0-3,3.18A3,3,0,0,0,136.81,236.84Z"/><path class="cls-9" d="M43.09,264.72l-2.72-3.9a4.35,4.35,0,0,1-.51,0h-3v3.88H34.39v-13.3h5.47c3.5,0,5.66,1.78,5.66,4.73a4.26,4.26,0,0,1-2.83,4.2l3.06,4.37Zm-3.34-11.21H36.86v5.3h2.89c2.16,0,3.28-1,3.28-2.66S41.91,253.51,39.75,253.51Z"/><path class="cls-9" d="M57.55,260.4h-8a3.07,3.07,0,0,0,3.29,2.43,3.62,3.62,0,0,0,2.75-1.1l1.27,1.47a5.13,5.13,0,0,1-4.08,1.65c-3.4,0-5.61-2.19-5.61-5.21a5,5,0,0,1,5.25-5.18,5,5,0,0,1,5.13,5.24C57.59,259.89,57.57,260.17,57.55,260.4Zm-8-1.57h5.76a2.76,2.76,0,0,0-2.87-2.47A2.8,2.8,0,0,0,49.57,258.83Z"/><path class="cls-9" d="M59,259.64c0-3,2.28-5.18,5.49-5.18a4.54,4.54,0,0,1,4.33,2.35L67,257.88a2.88,2.88,0,0,0-2.53-1.41,3.18,3.18,0,0,0,0,6.35A2.88,2.88,0,0,0,67,261.41l1.82,1.06a4.6,4.6,0,0,1-4.33,2.38A5.15,5.15,0,0,1,59,259.64Z"/><path class="cls-9" d="M80.73,254.57v10.15H78.47v-1.3a4.16,4.16,0,0,1-3.27,1.43c-2.6,0-4.37-1.43-4.37-4.49v-5.79h2.38V260c0,1.84.87,2.72,2.37,2.72,1.65,0,2.77-1,2.77-3.06v-5.13Z"/><path class="cls-9" d="M94.62,259.64a5,5,0,0,1-5.15,5.21,4.18,4.18,0,0,1-3.25-1.37v4.92H83.85V254.57h2.26v1.33a4.17,4.17,0,0,1,3.36-1.44A4.94,4.94,0,0,1,94.62,259.64Zm-2.41,0a3,3,0,1,0-3,3.18A3,3,0,0,0,92.21,259.64Z"/><path class="cls-9" d="M106.38,260.4h-8a3.08,3.08,0,0,0,3.29,2.43,3.62,3.62,0,0,0,2.75-1.1l1.27,1.47a5.13,5.13,0,0,1-4.08,1.65c-3.4,0-5.6-2.19-5.6-5.21a5,5,0,0,1,5.24-5.18,5,5,0,0,1,5.13,5.24C106.42,259.89,106.4,260.17,106.38,260.4Zm-8-1.57h5.76a2.76,2.76,0,0,0-2.87-2.47A2.8,2.8,0,0,0,98.4,258.83Z"/><path class="cls-9" d="M114.57,254.46v2.26a2.88,2.88,0,0,0-.55-.06c-1.81,0-3,1.06-3,3.14v4.92H108.7V254.57H111v1.48A4,4,0,0,1,114.57,254.46Z"/><path class="cls-9" d="M125,258.77v6h-2.24v-1.24a3.61,3.61,0,0,1-3.19,1.37c-2.32,0-3.78-1.27-3.78-3s1.13-3,4.21-3h2.62v-.15c0-1.39-.83-2.21-2.52-2.21a5,5,0,0,0-3.08,1l-.93-1.73a7.16,7.16,0,0,1,4.29-1.25C123.33,254.46,125,255.84,125,258.77Zm-2.38,2.77v-1.18h-2.45c-1.61,0-2,.61-2,1.35s.72,1.41,1.94,1.41A2.57,2.57,0,0,0,122.64,261.54Z"/><path class="cls-9" d="M138.09,250.62v14.1h-2.28V263.4a4.18,4.18,0,0,1-3.36,1.45,5.2,5.2,0,0,1,0-10.39,4.16,4.16,0,0,1,3.27,1.36v-5.2Zm-2.34,9a3,3,0,1,0-3,3.18A3,3,0,0,0,135.75,259.64Z"/><path class="cls-9" d="M140.37,259.64a5.41,5.41,0,1,1,5.4,5.21A5.1,5.1,0,0,1,140.37,259.64Zm8.42,0a3,3,0,1,0-3,3.18A3,3,0,0,0,148.79,259.64Z"/><path class="cls-9" d="M152.31,263.71l.91-1.81a6.8,6.8,0,0,0,3.53,1c1.5,0,2.13-.42,2.13-1.12,0-1.94-6.27-.11-6.27-4.16,0-1.92,1.73-3.17,4.46-3.17a8.08,8.08,0,0,1,3.8.87l-.91,1.81a5.56,5.56,0,0,0-2.91-.76c-1.44,0-2.12.47-2.12,1.14,0,2.05,6.27.22,6.27,4.19,0,1.9-1.75,3.14-4.6,3.14A8.1,8.1,0,0,1,152.31,263.71Z"/></svg>