<?xml version="1.0" encoding="utf-8"?>
<!-- Generator: Adobe Illustrator 23.0.3, SVG Export Plug-In . SVG Version: 6.00 Build 0)  -->
<svg version="1.1" id="Layer_1" xmlns="http://www.w3.org/2000/svg" xmlns:xlink="http://www.w3.org/1999/xlink" x="0px" y="0px"
	 viewBox="0 0 500 500" style="enable-background:new 0 0 500 500;" xml:space="preserve">
<style type="text/css">
	.st0{fill:none;}
	.st1{fill:#8FD9F9;}
	.st2{fill:#00A6FF;}
	.st3{fill:#969FAA;}
	.st4{fill:#D8DEE5;}
	.st5{fill:#13CE66;}
	.st6{fill:#FFFFFF;}
	.st7{fill:#343F4B;}
	.st8{fill:#FFC359;}
	.st9{fill:#FF95A9;}
</style>
<g>
	<path class="st0" d="M397.4,272.5c0.1,0,0.1-0.1,0.2-0.1l-0.2-2.3l-0.5,0C397.1,270.9,397.3,271.7,397.4,272.5z"/>
	<path class="st0" d="M36.2,360.3c3.6,5.1,7.4,10.1,11.4,15l-2.3-24.6L36.2,360.3z"/>
	<path class="st0" d="M368.6,429.8L368.6,429.8l-6.7,14c-0.2,0.6-0.3,1.2-0.5,1.8c3.2-1.5,6.4-3.2,9.6-4.8l-1.9-12L368.6,429.8z"/>
	<path class="st0" d="M360.6,248.3l0.7-13.3c-5,2.4-10.8,3.6-16.8,3.2l-3.9-0.3l-0.6,9L360.6,248.3z"/>
	<path class="st1" d="M187.3,358.8c0.1-0.1,0.1-0.3,0.2-0.4c2.1-4.9,4.6-9.9,7.4-14.6c2-3.4,4.2-6.6,6.3-9.4c-1.6-0.7-3.2-1.2-5-1.6
		c-0.1,0-0.2,0-0.2,0c-0.3-0.1-0.6-0.1-1-0.2c-0.1,0-0.2,0-0.4,0c-0.3,0-0.6-0.1-0.8-0.1c-0.2,0-0.3,0-0.5,0c-0.1,0-0.1,0-0.2,0
		c-0.2,0-0.3,0-0.5,0c0,0,0,0,0,0c-0.2,0-0.4,0-0.6,0c-0.2,0-0.4,0-0.7,0c-0.2,0-0.4,0-0.7,0c-0.2,0-0.4,0-0.5,0c-0.1,0-0.1,0-0.2,0
		l-1.3,0.1l-1.4,0.1l-2,0.1l1,0c0,0.1,0.1,0.1,0.1,0.2c0,0,0,0,0,0c0.5,1.6,0.9,3.4,1,5.1c0.7,9.7-5,18.4-13.9,23.1c0,0,0,0,0,0
		c-1.6,0.8-3.2,1.5-4.9,2c0,0,0,0,0,0c0,0,0,0,0,0c-2.4,0.7-5,1.2-7.6,1.4c-15.7,0.9-29.3-9.4-30.4-23.2c-0.1-1.7-0.1-3.4,0.2-5
		l-11.7,0.8l-17.8,1.2l-0.2,0l-0.3,0c-1,0.1-1.9,0.2-2.8,0.4c-9.7,2.1-17.5,10.2-18.8,20.7c-0.1,1.1-0.2,2.1-0.2,3.1l0,0l0,0l0,0
		l0.5,45.4c0,0,0,0,0,0c9.5,8.2,19.6,15.7,30.2,22.4c0.6,0.4,1.3,0.8,1.9,1.2c1.7,1.1,3.5,2.1,5.2,3.2l0.5-4l3.5-29.3l1.8,0.2
		l1.9,0.2l-4.2,34.9c4.9,2.8,9.8,5.4,14.9,7.9l34.6-1.6l18.1-0.8l4-0.2l-0.2-17l0,0l0,0c0,0,0-0.1,0-0.1c0-1,0-2,0.2-3
		c0.2-1.9,0.7-3.7,1.3-5.4c0.3-0.9,0.6-1.7,1-2.5c-0.9-0.6-1.7-1.2-2.5-1.8c-0.6-0.5-1.1-1-1.6-1.5c-0.1-0.1-0.1-0.1-0.2-0.2
		c-0.7-0.8-1.4-1.6-2-2.4c-2.3-3.3-3.6-7.1-4.3-11.3c-1-5.5-1-11.6-1.1-18.2c0,0,0,0,0-0.1c0-0.5,0-0.9,0-1.4
		C182.7,372.2,184.5,365.6,187.3,358.8C187.3,358.8,187.3,358.8,187.3,358.8z"/>
	<path class="st2" d="M139,335.9l-0.1-0.9l-7.9,0.4c-0.1,0.4-0.1,0.7-0.2,1.1L139,335.9z"/>
	<polygon class="st2" points="185.4,332.8 179.6,333 179.6,333.1 	"/>
	<path class="st2" d="M179.6,335.6c2.1-1.2,4.4-2.1,6.8-2.7c0-0.1-0.1-0.1-0.1-0.2l-1,0l-5.8,0.4v0
		C179.6,334,179.6,334.8,179.6,335.6z"/>
	<path class="st2" d="M167.8,359c-0.2-1.7-0.2-3.3,0-5c0-0.1,0-0.2,0-0.4c0-0.2,0.1-0.5,0.1-0.7c-2.2,1-4.7,1.7-7.2,1.9
		c-11.2,0.8-20.9-7.7-21.7-18.9v0l-8.2,0.5c-0.3,1.6-0.3,3.3-0.2,5c1.1,13.7,14.6,24.1,30.4,23.2c2.7-0.2,5.2-0.6,7.6-1.4l-0.1-0.3
		C168.2,361.7,167.9,360.4,167.8,359z"/>
	<polygon class="st2" points="168.5,363 168.6,363.2 168.6,363.2 168.5,363 	"/>
	<path class="st2" d="M167.7,354c0-0.1,0-0.2,0-0.4C167.8,353.8,167.8,353.9,167.7,354z"/>
	<path class="st2" d="M179.6,335.6C179.6,335.6,179.6,335.6,179.6,335.6c2.1-1.2,4.4-2.1,6.9-2.6c0,0,0,0,0,0
		C184,333.5,181.7,334.4,179.6,335.6z"/>
	<path class="st2" d="M168.5,363l0.1,0.3c0,0,0,0,0,0C168.6,363.1,168.6,363.1,168.5,363z"/>
	<path class="st2" d="M167.9,353c0,0.2-0.1,0.5-0.1,0.7C167.8,353.4,167.8,353.2,167.9,353C167.9,353,167.9,353,167.9,353z"/>
	<path class="st2" d="M168.3,362.1c-0.1-0.3-0.1-0.6-0.2-0.9c-0.5-2.4-0.6-4.9-0.4-7.2c-0.2,1.6-0.2,3.3,0,5c0.1,1.4,0.4,2.7,0.8,4
		L168.3,362.1L168.3,362.1z"/>
	<polygon class="st2" points="168.5,363 168.5,363 168.3,362.1 	"/>
	<path class="st2" d="M168.1,361.2c0.1,0.3,0.1,0.6,0.2,0.9l5.2-0.9c9-4.6,14.7-13.4,13.9-23.1c-0.1-1.8-0.5-3.5-1-5.1
		c-2.5,0.5-4.8,1.5-6.9,2.7c-0.4,7.6-5,14.2-11.7,17.3c0,0.2-0.1,0.5-0.1,0.7c0,0.1,0,0.2,0,0.4
		C167.5,356.4,167.6,358.8,168.1,361.2z"/>
	<polygon class="st2" points="168.3,362.1 168.3,362.1 168.3,362.1 	"/>
	<path class="st2" d="M168.3,362.1L168.3,362.1l0.2,0.9c0,0.1,0,0.2,0.1,0.3c0,0,0,0,0,0C168.5,362.9,168.4,362.5,168.3,362.1z"/>
	<polygon class="st2" points="173.6,361.2 168.3,362.1 168.3,362.1 173.6,361.2 	"/>
	<path class="st2" d="M168.3,362.1c0.1,0.4,0.2,0.7,0.3,1.1c1.7-0.5,3.4-1.2,4.9-2L168.3,362.1z"/>
	<path class="st2" d="M179.6,333.1l0-0.1l0,0C179.6,333.1,179.6,333.1,179.6,333.1L179.6,333.1z"/>
	<path class="st2" d="M139,335.9c0-0.3,0-0.6,0-0.9l0,0L139,335.9L139,335.9z"/>
	<polygon class="st2" points="179.6,333.1 179.6,333.1 179.6,333.1 	"/>
	<polygon class="st2" points="139,335.9 139,335.9 139,335.9 	"/>
	<g>
		<path class="st3" d="M458.1,222.7l-2.6-24.7l-5.4-52.3c-0.6-6.2-6.1-10.6-12.3-10l-17.6,1.8c-1.2-0.3-2.5-0.4-3.8-0.3l-29.1,3.7
			c-4.8,0.5-8.4,4.1-8,8.1c0.1,0.7,0.3,1.4,0.6,2c1.4,2.9,5,4.7,8.9,4.3l22.8-2.9l3.9,37.3l13.1-1l0.1,1.2c1.6-2.1,4.1-3.5,6.9-3.8
			c0,0,0,0,0,0c5.2-0.5,9.8,2.9,10.9,7.8c0.1,0.4,0.2,0.8,0.2,1.3c0.1,1.3,0,2.6-0.3,3.9c-1.1,3.9-4.5,6.9-8.7,7.3l0,0l2.5,23.9
			l13-1.3C456.1,228.5,458.4,225.7,458.1,222.7z"/>
		<path class="st3" d="M430.5,231.2l-0.4-3l-2.5-20.9l-0.8-6.3l-0.1-1h0l-0.3-2.8c0-0.4-0.1-0.9,0-1.3c0-1.7,0.5-3.3,1.3-4.8l-12,1
			l0.9,9c0.6,6.2-3.9,11.6-10.1,12.3l-28,2.9l-16.3,1.7l0,0l0,0l-0.9,17l-0.7,13.3l-0.1,1l-0.2,2.8c-0.9,13.9,3.8,20.1,16.4,19.2
			l17.7-1l2.4-0.1l0.5,0l10.1-0.6c19.2-3,24.1-10.6,24.6-21.1c0.1-2.7-0.1-5.6-0.4-8.6L430.5,231.2z M391,227
			c0.7,5.7-3.4,10.9-9.2,11.6c-5.7,0.7-10.9-3.4-11.6-9.2L391,227z"/>
	</g>
	<g>
		<path class="st4" d="M133.3,191.3c-10.6-3.8-22.8,1.3-29.4,12c-0.8,1.4-1.6,2.8-2.3,4.4c0,0,0,0.1,0,0.1c-1,2.4-1.7,4.8-2,7.2
			c0,0,0,0.1,0,0.1c-0.6,4.2-0.3,8.4,0.8,12.2c0.7-2.3,1.6-4.5,2.5-6.6c0.5-1.1,1.1-2.2,1.7-3.3c0.5-0.9,1-1.7,1.5-2.5
			c0,0,0.1-0.1,0.1-0.1c6.6-10.6,16.5-18.6,28.2-22.5c0.2-0.1,0.4-0.1,0.7-0.2c-0.2-0.1-0.4-0.2-0.6-0.3
			C134,191.6,133.6,191.5,133.3,191.3z"/>
		<path class="st4" d="M478.4,273.7c-1,0-2,0-3.1,0.2l-25.2,2.8l-0.2-1.8c-0.4-3.5-2.8-6.3-5.9-7.3c-1.1-0.4-2.3-0.5-3.5-0.4
			l-39.6,4.1c-1.2,0.1-2.3,0.5-3.3,1c-0.1,0-0.1,0.1-0.2,0.1c-2,1.2-3.5,3.1-4,5.4c0,0,0,0,0,0c-0.2,0.9-0.3,1.9-0.2,2.9l0.2,2.1
			l-2.9,0.3l-15.7,1.7l-0.4,0l-0.6,0.1c-1,0.1-2,0.3-2.9,0.5c-8.5,1.8-16.3,6.5-21.8,13.5c-1.7,2.1-3.1,4.5-4.3,7
			c-0.6,1.4-1.2,2.7-1.7,4.1c-0.3,0.9-0.6,1.8-0.8,2.7l0,0l0,0l0,0l-17.9,69.9c0,0,0,0,0,0c2.2,5.8,3.4,11.4,2.4,17.7
			c-0.1,0.8-0.4,1.6-0.8,2.5c-0.5,1.1-1.2,2.3-2.2,3.5c-1.4,1.8-3.1,3.6-5.2,5.3c-0.6,0.5-1.3,1.1-2,1.6l-4.6,18l0.5,0.2
			c-0.1,0.3-0.2,0.6-0.2,1l0,0l-0.9,4l-0.3,1.2l0.3,1.8l1.5,10.6l1.8,12.7c2.1-0.5,4.1-1.1,6.2-1.7c1.2-0.4,2.5-0.7,3.7-1.1
			c3.8-1.2,7.6-2.4,11.4-3.7c7.2-2.6,14.3-5.4,21.2-8.6c0.4-0.2,0.7-0.3,1.1-0.5c0.9-0.4,1.8-0.8,2.7-1.3c0.2-0.1,0.3-0.1,0.5-0.2
			c0.2-0.6,0.4-1.2,0.5-1.8l6.7-14l0.5-1l1.9,12c39.9-21.2,73.6-52.4,97.8-90.3h0c0.6-1,1.3-2,1.9-3c9-14.6,16.6-30.1,22.7-46.4
			c0,0,0,0,0,0c2.1-5.6,3.9-11.2,5.6-17c0.4-1.2,0.7-2.5,1.1-3.7C493.4,275.8,485.9,273.7,478.4,273.7z"/>
		<path class="st4" d="M355.4,206.5c1.8,2.5,4.1,4,6.4,4.4c0,0,0,0,0,0c0.4,0.1,0.7,0.1,1.1,0.1c0.2,0,0.4,0,0.6,0
			c5.7-0.5,9.7-7.4,9.4-16.1l6-0.5c0.3,1.9,0.8,3.7,1.6,5.3c0.8,1.8,1.9,3.4,3.2,4.7c2.7,2.7,6,4.2,9.5,4.2c0.3,0,0.7,0,1,0
			c3.8-0.3,7.2-2.3,9.7-5.7c2-2.9,3.1-6.4,3.2-10.1l8.6-0.7l12-1l1-0.1l-0.1-1.2l-0.1-1.2l-13.1,1l-8.5,0.7
			c-1-8.8-7.8-15.3-15.3-14.7c-3.8,0.3-7.2,2.3-9.7,5.7c-0.9,1.3-1.6,2.7-2.2,4.2c-0.7,2-1.1,4.2-1,6.5l-6,0.5
			c-0.5-3.8-1.8-7.3-3.7-10c-2.3-3.1-5.2-4.7-8.1-4.5c0,0-0.1,0-0.1,0c-5.9,0.5-10,8.1-9.3,17.3
			C351.9,199.6,353.3,203.6,355.4,206.5z M384,182.7c2-2.8,4.8-4.4,7.8-4.7c0.3,0,0.5,0,0.8,0c6.1,0,11.4,5.7,12,13.1
			c0.3,3.8-0.7,7.4-2.7,10.3c-2,2.8-4.8,4.4-7.8,4.7c-3.1,0.2-6.1-1-8.5-3.4c-2.4-2.5-4-5.9-4.3-9.7
			C381,189.2,381.9,185.6,384,182.7z M360.5,180.6c0.2,0,0.4-0.1,0.6-0.1c2.1-0.2,4.2,1.1,5.9,3.4c1.9,2.6,3.1,6.1,3.4,9.9
			c0.6,7.6-2.6,14.3-7.1,14.7c-0.6,0-1.1,0-1.7-0.2c0,0,0,0,0,0c-1.5-0.4-3-1.5-4.3-3.3c-1.9-2.6-3.1-6.1-3.4-9.9
			C353.5,187.9,356.4,181.4,360.5,180.6z"/>
		<path class="st4" d="M399,194.2c0.2,0.1,0.4,0.2,0.6,0.2c0.2,0,0.5-0.1,0.6-0.3c0.3-0.3,0.3-0.9-0.1-1.2l-10.3-9.2
			c-0.3-0.3-0.9-0.3-1.2,0.1c-0.3,0.3-0.3,0.9,0.1,1.2L399,194.2z"/>
		<path class="st4" d="M397.1,198.2c0.2,0.1,0.4,0.2,0.6,0.2c0.2,0,0.5-0.1,0.6-0.3c0.3-0.3,0.3-0.9-0.1-1.2l-12.6-11.3
			c-0.3-0.3-0.9-0.3-1.2,0.1c-0.3,0.3-0.3,0.9,0.1,1.2L397.1,198.2z"/>
		<path class="st4" d="M360.7,190.4L360.7,190.4l6.7,6.8c0.2,0.2,0.4,0.2,0.6,0.2c0.2,0,0.4-0.1,0.6-0.2c0.3-0.3,0.3-0.9,0-1.2
			l-8-8.1l0,0l-0.3-0.3c-0.3-0.3-0.9-0.3-1.2,0c-0.3,0.3-0.3,0.9,0,1.2L360.7,190.4z"/>
		<path class="st4" d="M361,195.7L361,195.7l4.9,5c0.2,0.2,0.4,0.2,0.6,0.2c0.2,0,0.4-0.1,0.6-0.2c0.3-0.3,0.3-0.9,0-1.2l-6.3-6.4
			l0,0l-3.9-4c-0.3-0.3-0.9-0.3-1.2,0c-0.3,0.3-0.3,0.9,0,1.2L361,195.7z"/>
	</g>
	<g>
		<path class="st5" d="M393.4,277.9c0.5-2.3,2-4.2,4-5.4c-0.1-0.8-0.3-1.6-0.5-2.4l-2.4,0.1l-17.7,1c-12.6,0.9-17.3-5.4-16.4-19.2
			l0.2-2.8l0.1-1l-20.6-1.4l-1,14.3c-0.9,13.6-12.7,23.9-26.3,23c-6.5-0.4-12.3-3.4-16.4-7.8c-4.5-4.8-7.1-11.4-6.6-18.5l0.4-5.2
			l0.6-9l-19.5-1.3c-13-1.6-25.3,5.7-30.4,17.4l-0.2-0.1l-0.4,1.4c-0.1,0.2-0.2,0.4-0.2,0.7c0,0,0,0,0,0c-0.4,1.2-0.8,2.5-1,3.7
			c-0.1,0.5-0.2,1.1-0.3,1.6l-5.2,20.3c1.5-0.7,3-1.3,4.6-1.8c1.1-0.4,2.3-0.7,3.4-1c2.5-0.6,5-1.1,7.7-1.3c0,0,0,0,0,0
			c1.4-0.1,2.9-0.2,4.3-0.2c3.7,0,7.1,0.1,10.2,0.4c2.1-0.2,11.7-1.1,21.7,1.1c2.7-0.6,5.5-0.9,8.3-0.9c0.1,0,0.3,0,0.4,0
			c12.1,0,23.2,5.2,26,14.2c3.7,11.9-1.3,20.5-8.4,25.1c1.1,12.7-0.6,20.4,2.4,33.1c2.5,10.5,7.2,18.7,10.2,26.8l17.9-69.9l0,0l0,0
			l0,0c0.2-0.9,0.5-1.8,0.8-2.7c0.5-1.4,1-2.8,1.7-4.1c1.2-2.5,2.7-4.9,4.3-7c5.5-7.1,13.3-11.8,21.8-13.5c1-0.2,1.9-0.4,2.9-0.5
			l0.6-0.1c0.1,0,0.3,0,0.4,0l15.7-1.7l2.9-0.3l-0.2-2.1C393.1,279.8,393.2,278.8,393.4,277.9C393.4,277.9,393.4,277.9,393.4,277.9z
			"/>
		<path class="st5" d="M297.6,456.1l-0.2-9.4l-0.2-8.2l-0.3-12.3v0l-0.1-3.8l0-0.8l-0.1-5.5c-0.1-7.1-5.3-12.9-11.9-14.2
			c-0.2,0-0.4-0.1-0.6-0.1c-1-0.2-2.1-0.2-3.2-0.1l-3,0l0.1,1.7l0.3,4.9l0,0.4c0.3,4.4-1.1,8.5-3.6,11.7c-2.8,3.7-7,6.2-11.9,6.8
			c-0.3,0-0.7,0.1-1,0.1c-6.6,0.4-12.5-2.7-15.9-7.8c-1.5-2.3-2.5-4.9-2.8-7.8c0-0.2,0-0.5-0.1-0.7l0-0.3l-0.1-0.8l-0.6-8.5l-5.5,0
			l-1.2,0l-0.3,0l-0.6,0l-0.7,0l-0.8,0h0l-7.4-0.1l-5.1,0l0,0l-1.3,0l-2.4,0c0.2,0,0.4,0,0.7,0.1c0.6,0.1,1.1,0.2,1.7,0.3
			c0.5,0.1,0.9,0.2,1.4,0.3c0,0,0,0,0,0c2.3,0.6,4.5,1.6,6.5,2.9c1.3,0.8,2.5,1.8,3.6,2.8c1.5,1.4,2.8,3.1,3.8,4.8
			c0.2,0.3,0.4,0.6,0.5,0.9c0.3,0.6,0.6,1.2,0.9,1.8c0.1,0.2,0.2,0.5,0.3,0.7c0.6,1.4,1,2.9,1.3,4.4c0.5,2.4,0.6,4.9,0.3,7.5
			c0,0,0,0,0,0h0l-0.2,6.7l-0.2,5.5l-0.1,1.6l-0.4,12l-0.1,1.5l-0.1,2.8l-0.2,5.4l-0.3,7.5l0,0.1c0,0,0,0,0.1,0
			c3.2,0.2,6.4,0.2,9.6,0.3c0.1,0,0.3,0,0.4,0c0.8,0,1.6,0,2.4,0c4,0,8-0.1,12-0.3c2.9-0.1,5.9-0.3,8.8-0.5c2.1-0.2,4.2-0.4,6.3-0.6
			c0.2,0,0.4,0,0.6-0.1c4.8-0.5,9.5-1.1,14.2-1.9c2.2-0.4,4.5-0.8,6.7-1.2l-0.1-3.8L297.6,456.1z"/>
		<path class="st5" d="M208.7,401.9c1.5-0.4,3-0.7,4.5-0.8l-1.3,0C210.8,401.2,209.7,401.5,208.7,401.9z"/>
	</g>
	<g>
		<path class="st6" d="M181.4,144.5l-25,1c0.3,6.9,6.1,12.3,13,12C176.3,157.2,181.7,151.4,181.4,144.5z"/>
		<path class="st6" d="M284.9,194.2c6.8,0.4,12.7-4.8,13.1-11.6l-24.7-1.5C272.9,187.9,278.1,193.8,284.9,194.2z"/>
		<path class="st6" d="M189.8,279.4l-17.1,1c0.3,4.2,3,7.6,6.7,9c1.3,0.4,2.6,0.7,4,0.6c5.6-0.3,9.9-5.2,9.5-10.8L189.8,279.4z"/>
		<path class="st6" d="M120.9,401.6l-3.5,29.3l-0.5,4c0.6,0.3,1.1,0.7,1.7,1c0.6,0.3,1.2,0.7,1.8,1l4.2-34.9l-1.9-0.2L120.9,401.6z"
			/>
		<path class="st6" d="M391,227l-20.8,2.4c0.7,5.7,5.9,9.9,11.6,9.2C387.6,237.9,391.7,232.7,391,227z"/>
		<path class="st6" d="M293,348.9l-15.2,0.9l-0.6,0l-0.3,0l-10,0.6l-3.5,0.2c0,0.3,0.1,0.5,0.1,0.8c0.1,1.1,0.4,2.2,0.7,3.2
			c0.2,0.7,0.5,1.3,0.8,1.9c1.3,2.7,3.4,4.9,6,6.4c1.5,0.9,3.1,1.5,4.8,1.8c1.3,0.2,2.6,0.4,3.9,0.3c0.8,0,1.6-0.2,2.4-0.3
			c0.7-0.2,1.4-0.3,2-0.6c6.2-2.3,10.5-8.4,10.1-15.4L293,348.9z"/>
	</g>
	<g>
		<path class="st7" d="M74.9,123.1L74.9,123.1l1.6,30.8c0.2,3.1,2.8,5.5,5.9,5.3l16.7-0.9l-1.5-28.8l0,0c-5.1,0.3-9.6-2.7-11.6-7
			c-0.6-1.4-1-2.9-1.1-4.5c0-0.5,0-1,0-1.5c0.4-6,5.3-10.9,11.5-11.3c0,0,0,0,0,0c6.2-0.3,11.5,4.1,12.6,10c0.1,0.5,0.2,1,0.2,1.5
			l0.2,3.3h0l0.1,1.2l0.4,7.6L111,154l0.2,3.7l0,0.3c0.4,7.7,3.4,14.6,8.2,19.9c2.9,3.2,6.4,5.9,10.4,7.8c3.9,1.9,8.3,3,12.9,3.1
			c0.9,0,1.8,0,2.7,0l11.2-0.6l21-1.1c9.3-0.5,16.2-8.6,15.3-17.8l-1.6-16.3l-0.4-3.7l-2-19.7l0,0l0,0l-53.2,2.7
			c-7.4,0.4-13.7-5.3-14.2-12.7l-2.5-48.4c6.6,6.4,15.7,10.2,25.6,9.7l8-0.4l19.4-1L182,79c1.5,3.8,2.6,7.9,3,12.2l0.9,9.5l0.1,1
			c1.3-0.3,2.6-0.7,3.8-1.2l1.8-0.1c2.6-0.1,4.7-1.8,5.4-4.1c6.6-5.3,10.6-13.6,10.1-22.7c-0.5-8.9-5.1-16.6-12-21.2l-0.8-15.9
			c-0.2-3.7-3.4-6.6-7.1-6.4L150,31.9l0,0l-2,0.1c-4.3,0.2-8.2,2.1-10.9,5c-3.2-3.6-7.9-5.8-13-5.5c-7.7,0.4-13.8,6.1-15.1,13.3
			l-26.8,1.4c-6.2,0.3-10.9,5.6-10.6,11.8L74.9,123.1z M181.4,144.5c0.3,6.9-5.1,12.7-12,13c-6.9,0.3-12.7-5.1-13-12L181.4,144.5z"
			/>
		<path class="st7" d="M354.1,195.1c0.3,3.8,1.5,7.4,3.4,9.9c1.3,1.7,2.7,2.9,4.3,3.3l-0.7-12.6l-5.2-5.3c-0.3-0.3-0.3-0.9,0-1.2
			c0.3-0.3,0.9-0.3,1.2,0l3.9,4l-0.2-2.8l-1.6-1.7c-0.3-0.3-0.3-0.9,0-1.2c0.3-0.3,0.9-0.3,1.2,0l0.3,0.3l-0.1-2.1
			c-0.1-1.8-0.1-3.5,0.1-5.2C356.4,181.4,353.5,187.9,354.1,195.1z"/>
		<path class="st7" d="M378,152l-1.2-23.2c-1.6-31.1-26.2-56.1-57.3-58.2l-2.8-0.2v0l-11.1-0.7c-31.5-2.1-59.4,19.9-64.7,51
			l-10,58.2c-4.7,27.2,15.3,52.5,42.8,54.4l17.5,1.2l1.4-21.4l-0.8-0.1c-20.9-1.4-36.4-20.2-33.7-41l4.8-36.7
			c13.8-0.8,26.9-6.9,36.5-17.2l9.9-10.5l-0.4,5.4c-0.6,8.2,0.5,16.5,3.2,24.2c1.1,3.2,2.4,6.2,4,9.2l12.4,23.5
			c5,9.4,7.3,19.7,7.2,29.9c-0.1,5.4-0.8,10.7-2.2,15.9c-2,7.3-5.4,14.3-10.1,20.7c0.2,0.1,0.3,0.1,0.5,0.2l16.6,1.1l3.9,0.3
			c6,0.4,11.7-0.8,16.8-3.2l0.9-17l0,0l-0.4-7.1c-2.4-0.4-4.6-1.9-6.4-4.4c-2.1-2.9-3.5-6.9-3.9-11.2c-0.7-9.2,3.3-16.8,9.3-17.3
			C362.5,167.1,368.9,157.7,378,152z"/>
		<path class="st7" d="M324.4,382.8c-3-8-7.7-16.3-10.2-26.8c-3.1-12.8-1.3-20.5-2.4-33.1c7.1-4.6,12.1-13.2,8.4-25.1
			c-2.8-9-14-14.2-26-14.2c-0.1,0-0.3,0-0.4,0c-2.8,0-5.6,0.3-8.3,0.9c-9.9-2.3-19.6-1.4-21.7-1.1c-3.1-0.2-6.5-0.4-10.2-0.4
			c-1.5,0-2.9,0.1-4.3,0.2c0,0,0,0,0,0c-2.6,0.2-5.2,0.7-7.7,1.3c-1.2,0.3-2.3,0.6-3.4,1c-1.6,0.5-3.1,1.1-4.6,1.8l5.2-20.3
			c0.1-0.5,0.2-1.1,0.3-1.6c0.3-1.3,0.6-2.5,1-3.7c0,0,0,0,0,0L229.9,238l0,0l0,0l0,0c-1.1-2.6-2.5-5.2-4.2-7.6
			c-6-8.9-14.7-14.9-24.3-17.7c-1.7-2.6-3.7-5-6.1-7c-5.9-9-17.2-14.9-38.8-15.9c-2.2-0.1-4.4-0.2-6.8-0.2c-1.7,0-3.4,0.1-5,0.3
			c-3.4,0.3-6.6,1-9.8,2c-0.2,0.1-0.4,0.1-0.7,0.2c-11.7,3.8-21.6,11.9-28.2,22.5c0,0-0.1,0.1-0.1,0.1c-0.5,0.8-1,1.7-1.5,2.5
			c-0.6,1.1-1.2,2.2-1.7,3.3c-1,2.1-1.8,4.3-2.5,6.6c-1.1-3.8-1.4-8-0.8-12.2c0,0,0-0.1,0-0.1c0.4-2.4,1-4.8,2-7.2c0,0,0-0.1,0-0.1
			c0.6-1.5,1.4-3,2.3-4.4c6.6-10.7,18.8-15.8,29.4-12c-2.1-1.8-4.8-3.5-8.3-5.2c-1.2-0.6-2.4-1.1-3.7-1.7
			c-6.9-2.9-14.4-2.4-20.8,0.6c-5.9,2.8-11,7.9-13.8,14.5c-2.2,5.3-2.7,10.9-1.8,16l-19.4,0.9c-1.2,0.1-2.5,0.2-3.6,0.4
			c-9.7,1.4-19,5.9-26.2,13.6c-2,2.2-3.8,4.5-5.3,6.9l0,0l0,0l0,0L0,285.7c0,0,0,0,0,0c8.1,27,20.4,52.1,36.2,74.6v0l9-9.6l2.3,24.6
			c9.7,11.9,20.4,22.8,32,32.8l-0.5-45.4l0,0l0,0l0,0c0-1,0-2.1,0.2-3.1c1.2-10.5,9-18.5,18.8-20.7c0.9-0.2,1.8-0.4,2.8-0.4l0.3,0
			c0.1,0,0.1,0,0.2,0l17.8-1.2l11.7-0.8c0.1-0.4,0.1-0.7,0.2-1.1l7.9-0.4l-2.2-26.5l-0.2,0l-1-11.3l-2.4-27.1l-1,0.1
			c-4.8,0.3-9-3.3-9.3-8.1v0c-0.2-2.5,0.7-4.8,2.3-6.5c1.5-1.6,3.5-2.7,5.9-2.8c0,0,0.1,0,0.1,0c0.2,0,0.3,0,0.5,0
			c0.4,0,0.8,0,1.1,0c4.1,0,8-0.7,11.8-2.1c11.1-4.2,19.9-14.4,23.1-27.3l3.8,4.1c1.4,1.5,2.8,2.8,4.4,4.1c7.3,6,16.3,9.5,25.7,10.1
			l0.3,2.1l1.2,9.1l0,0l2.5,19.1c1.5,11.3-3.6,21.9-12.2,28.2c-4.4,3.2-9.7,5.2-15.6,5.6l-0.4,0l1.2,14l1.1,13.4l5.8-0.3l2-0.1
			l1.4-0.1c1.5-0.2,3-0.2,4.4-0.1c0,0,0,0,0.1,0c2.8,0.2,5.5,0.9,8,2c0,0,0,0,0,0c0,0,0,0,0,0c-2.2,2.8-4.3,6-6.3,9.4
			c-2.8,4.7-5.4,9.7-7.4,14.6c-0.1,0.1-0.1,0.3-0.2,0.4c0,0,0,0,0,0c-2.8,6.8-4.6,13.5-4.6,18.6c0,0.5,0,0.9,0,1.4c0,0,0,0,0,0.1
			c0,6.6,0.1,12.7,1.1,18.2c0.8,4.2,2.1,8.1,4.3,11.3c0.6,0.8,1.2,1.7,2,2.4c0.1,0.1,0.1,0.1,0.2,0.2c0.5,0.5,1,1,1.6,1.5
			c0.8,0.6,1.6,1.2,2.5,1.8c0.7-1.5,1.6-2.9,2.6-4.1c3-3.9,7.1-6.7,11.8-8.1c1-0.5,2.1-0.8,3.3-0.9l1.3,0c1.1-0.1,2.2-0.1,3.3,0
			c0.1,0,0.1,0,0.2,0c0.2,0,0.3,0,0.5,0l2.4,0l1.3,0l0,0l5.1,0l7.4,0.1h0l0.8,0l0.7,0l0.6,0l0.3,0l1.2,0l5.5,0l-0.3-4l-0.1-0.8
			l-0.3-4.3l-0.2-3.4h0l-0.2-2.5l-0.9-13.3l-0.1-1.1l-0.1-1.8l0-0.1l-2.7,0.2l-1.2,0.1l-1.8,0.1c-0.1,0-0.3,0-0.4,0
			c-0.4,0-0.7,0-1.1,0c-0.3,0-0.6-0.1-0.9-0.1c-5.3-0.7-9.8-4.8-11.6-10.5c-0.4-1.1-0.6-2.3-0.7-3.6c0-0.2-0.1-0.4-0.1-0.6v0
			c0-0.1,0-0.3,0-0.4c0-0.6,0-1.1,0-1.7c0-0.5,0.1-1,0.1-1.5c0.1-0.7,0.2-1.3,0.4-1.9c0.4-1.6,1-3.1,1.8-4.5c1.5-2.4,3.5-4.3,6-5.5
			c0.1-0.1,0.2-0.1,0.3-0.2c1.3-0.5,2.6-0.9,4-1c0.5,0,1,0,1.5,0c0.5,1.3,1.1,2.5,1.6,3.3c0.5,0.9,1,1.5,1.4,1.5
			c0.3,0.1,0.6-0.2,0.8-0.8c0.2-0.6,0.4-1.6,0.4-3c0,0,0.1,0,0.1,0.1l-0.1-1.1c0.2-9.3,6.6-17.5,12.9-23.3c1.1-1,2.2-2,3.2-2.9
			c1.5-1.3,3-2.4,4.3-3.3c0.5-0.4,1-0.7,1.5-1.1c0,0,0,0,0,0c1.1-0.7,1.9-1.3,2.5-1.6c0.5,4.7,2.4,10.6,8.2,10.6
			c4.1,0,7.4-0.7,9.9-1.5c3.4-1.1,5.3-2.3,5.3-2.3s1.9,12.9,13.5,12.9c0,0,0,0,0,0c0.6,0,1.2,0,1.9-0.1l3.8,29.3
			c1.5,11.5-4.5,22.2-14.2,27.3c-0.5,0.3-1.1,0.5-1.6,0.8c-1.7,0.7-3.5,1.3-5.3,1.7c-1.2,0.3-2.5,0.4-3.8,0.5l-1.3,0.1l-0.8,0.1
			l-1.2,0.1l0,0.1l0.9,13.1l0.1,2l3,0c1.1-0.1,2.2,0,3.2,0.1c0.2,0,0.4,0.1,0.6,0.1c0.1,0,0.2,0,0.4,0c5.6-0.2,10.7,1.6,14.9,4.8
			c3.1,2.4,5.6,5.5,7.2,9.1c0.4,0.8,0.7,1.7,1,2.6c3.1-1.5,5.9-3.2,8.4-5.1c0.7-0.5,1.4-1,2-1.6c2.1-1.7,3.9-3.5,5.2-5.3
			c0.9-1.2,1.6-2.4,2.2-3.5c0.4-0.9,0.7-1.7,0.8-2.5C327.9,394.2,326.6,388.6,324.4,382.8C324.4,382.8,324.4,382.8,324.4,382.8z"/>
	</g>
	<g>
		<path class="st8" d="M192.7,332.4C192.7,332.4,192.7,332.4,192.7,332.4c0.2,0,0.4,0,0.6,0c0.1,0,0.1,0,0.2,0c0.2,0,0.3,0,0.5,0
			c0.3,0,0.6,0.1,0.8,0.1c0.1,0,0.2,0,0.4,0c0.3,0,0.6,0.1,1,0.2c0.1,0,0.2,0,0.2,0c1.7,0.3,3.4,0.9,5,1.6c0,0,0,0,0,0c0,0,0,0,0,0
			c-2.5-1.1-5.2-1.8-8-2c0,0,0,0-0.1,0c-1.5-0.1-2.9,0-4.4,0.1l1.3-0.1c0.1,0,0.1,0,0.2,0c0.2,0,0.4,0,0.5,0c0.2,0,0.5,0,0.7,0
			c0.2,0,0.4,0,0.7,0C192.3,332.4,192.5,332.4,192.7,332.4z"/>
		<path class="st8" d="M312.9,450l-1.5-10.6l-0.3-1.8l-0.4-3l-1.4-9.7h0c0,0,0,0,0,0c-0.1-2.3-0.5-4.5-1.2-6.5
			c-0.3-0.9-0.6-1.7-1-2.6c-1.6-3.6-4.1-6.7-7.2-9.1c-4.1-3.2-9.3-5-14.9-4.8c-0.1,0-0.2,0-0.4,0c6.6,1.3,11.8,7.1,11.9,14.2
			l0.1,5.5l0,0.8l0.1,3.8v0l0.3,12.3l0.2,8.2l0.2,9.4l0.1,6.6l0.1,3.8c2-0.4,4-0.8,5.9-1.2c0.5-0.1,1-0.2,1.5-0.3
			c3.2-0.7,6.3-1.4,9.4-2.3L312.9,450z"/>
		<path class="st8" d="M236.6,415.9c-0.1-0.2-0.2-0.5-0.3-0.7c-0.3-0.6-0.6-1.2-0.9-1.8c-0.2-0.3-0.4-0.6-0.5-0.9
			c-1.1-1.8-2.4-3.4-3.8-4.8c-1.1-1.1-2.3-2-3.6-2.8c-2-1.3-4.2-2.3-6.5-2.9c0,0,0,0,0,0c-0.5-0.1-0.9-0.2-1.4-0.3
			c-0.6-0.1-1.1-0.2-1.7-0.3c-0.2,0-0.4,0-0.7-0.1c-0.2,0-0.3,0-0.5,0c-0.1,0-0.1,0-0.2,0c-1.1-0.1-2.2-0.1-3.3,0
			c-1.6,0.1-3.1,0.4-4.5,0.8c-4.7,1.4-8.8,4.2-11.8,8.1c-1,1.3-1.9,2.7-2.6,4.1c-0.4,0.8-0.7,1.6-1,2.5c-0.6,1.7-1,3.5-1.3,5.4
			c-0.1,1-0.2,2-0.2,3c0,0,0,0.1,0,0.1l0,0l0,0l0.2,17l0.1,11.7l0,0.7l0,4.6l0,0.4l0,3.5l0,1.7c0.2,0,0.4,0.1,0.7,0.1
			c0.4,0.1,0.9,0.2,1.3,0.3c0.8,0.2,1.7,0.4,2.5,0.5c0.3,0.1,0.6,0.1,1,0.2c0.7,0.1,1.3,0.3,2,0.4c0.1,0,0.3,0.1,0.4,0.1
			c2.7,0.5,5.4,1,8.1,1.4c0.7,0.1,1.4,0.2,2.1,0.3c0.3,0.1,0.7,0.1,1,0.1c2.2,0.3,4.5,0.6,6.8,0.9c1.1,0.1,2.1,0.2,3.2,0.4
			c1,0.1,2,0.2,3,0.3c1.8,0.2,3.6,0.3,5.3,0.5c1.8,0.1,3.7,0.3,5.5,0.4c0.5,0,0.9,0,1.4,0.1c0.1,0,0.1,0,0.2,0l0-0.1l0.3-7.5
			l0.2-5.4l0.1-2.8l0.1-1.5l0.4-12l0.1-1.6l0.2-5.5l0.2-6.7h0c0,0,0,0,0,0c0.3-2.6,0.2-5.1-0.3-7.5
			C237.6,418.7,237.2,417.3,236.6,415.9z"/>
	</g>
	<g>
		<path class="st9" d="M191.1,152.9l-0.4-3.7L191.1,152.9C191.1,153,191.1,152.9,191.1,152.9z"/>
		<path class="st9" d="M135.6,132.3l53.2-2.7l0,0l-2.8-27.9l-0.1-1l-0.9-9.5c-0.4-4.3-1.5-8.4-3-12.2l-10.1,0.5l-19.4,1l-8,0.4
			c-9.9,0.5-19.1-3.3-25.6-9.7l2.5,48.4C121.8,127,128.2,132.7,135.6,132.3z"/>
		<path class="st9" d="M133.3,191.3c0.3,0.1,0.7,0.2,1,0.4c0.2,0.1,0.4,0.2,0.6,0.3c3.1-1,6.4-1.7,9.8-2c1.7-0.2,3.3-0.3,5-0.3
			c2.4,0,4.6,0.1,6.8,0.2l-0.1-1.7l-11.2,0.6c-0.9,0-1.8,0-2.7,0c-4.6-0.1-8.9-1.2-12.9-3.1c-4-1.9-7.5-4.5-10.4-7.8
			c-4.7-5.3-7.8-12.2-8.2-19.9l0-0.3L111,154l-1.3-25.1l-0.4-7.6l-0.1-1.2h0l-0.2-3.3c0-0.5-0.1-1-0.2-1.5c-1.1-6-6.4-10.3-12.6-10
			c0,0,0,0,0,0c-6.2,0.3-11.1,5.2-11.5,11.3c0,0.5-0.1,1,0,1.5c0.1,1.6,0.5,3.1,1.1,4.5c2,4.4,6.6,7.3,11.6,7l0,0l1.5,28.8l1.1,20.6
			l0,0l0.3,6.1c6.4-3.1,13.9-3.5,20.8-0.6c1.3,0.6,2.6,1.1,3.7,1.7C128.5,187.8,131.2,189.6,133.3,191.3z"/>
		<path class="st9" d="M323.5,236.6c4.7-6.3,8-13.3,10.1-20.7c1.4-5.2,2.2-10.6,2.2-15.9c0.1-10.2-2.3-20.5-7.2-29.9l-12.4-23.5
			c-1.6-3-2.9-6.1-4-9.2c-2.6-7.8-3.7-16-3.2-24.2l0.4-5.4l-9.9,10.5c-9.6,10.2-22.7,16.3-36.5,17.2l-4.8,36.7
			c-2.7,20.8,12.7,39.6,33.7,41l0.8,0.1l-1.4,21.4l-0.6,9l-0.6,9l-0.4,5.2c-0.5,7.1,2.1,13.7,6.6,18.5c4.1,4.4,9.9,7.3,16.4,7.8
			c13.6,0.9,25.4-9.4,26.3-23l1-14.3l0.6-9l-16.6-1.1C323.9,236.7,323.7,236.7,323.5,236.6z M284.9,194.2c-6.8-0.4-12-6.3-11.6-13.1
			l24.7,1.5C297.6,189.4,291.7,194.6,284.9,194.2z"/>
		<path class="st9" d="M308.2,418.4c0.7,2.1,1.1,4.2,1.2,6.5c0,0,0,0,0,0h0l1.4,9.7l0.4,3l0.3-1.2l0.9-4l0,0c0.1-0.3,0.1-0.6,0.2-1
			l-0.5-0.2l4.6-18C314.1,415.2,311.3,416.9,308.2,418.4z"/>
		<path class="st9" d="M192.1,459.5l0-0.4l0-4.6l0-0.7l-0.1-11.7l-4,0.2l-18.1,0.8l-34.6,1.6c7.3,3.6,14.8,6.8,22.4,9.7
			c1.8,0.7,3.5,1.3,5.3,1.9c9.2,3.2,18.6,5.9,28.2,8.1c0.3,0.1,0.7,0.2,1,0.2l0-1.7L192.1,459.5z"/>
		<path class="st9" d="M203,252.7L203,252.7l-1.2-9.1l-0.3-2.1c-9.4-0.6-18.4-4.1-25.7-10.1c-1.5-1.3-3-2.6-4.4-4.1l-3.8-4.1
			c-3.2,12.9-12.1,23.1-23.1,27.3c-3.7,1.4-7.7,2.2-11.8,2.1c-0.4,0-0.8,0-1.1,0c-0.2,0-0.3,0-0.5,0c0,0-0.1,0-0.1,0
			c-2.3,0.2-4.4,1.2-5.9,2.8c-1.5,1.7-2.4,4-2.3,6.5v0c0.3,4.8,4.5,8.5,9.3,8.1l1-0.1l2.4,27.1l1,11.3l0.2,0l2.2,26.5l0,0
			c0,0.3,0,0.6,0,0.9v0c0.8,11.2,10.5,19.7,21.7,18.9c2.6-0.2,5-0.8,7.2-1.9c0,0,0,0,0,0c6.7-3.1,11.3-9.7,11.7-17.3c0,0,0,0,0,0
			c0-0.8,0-1.6,0-2.5c0,0,0-0.1,0-0.1h0l-1.1-13.4l-1.2-14l0.4,0c5.8-0.4,11.2-2.4,15.6-5.6c8.6-6.2,13.6-16.8,12.2-28.2L203,252.7z
			 M193.1,279.2c0.3,5.6-3.9,10.4-9.5,10.8c-1.4,0.1-2.8-0.1-4-0.6c-3.7-1.3-6.5-4.8-6.7-9l17.1-1L193.1,279.2z"/>
		<path class="st9" d="M416.6,201.1l-0.9-9l-8.6,0.7c0,3.7-1.2,7.2-3.2,10.1c-2.4,3.4-5.8,5.4-9.7,5.7c-0.3,0-0.7,0-1,0
			c-3.5,0-6.8-1.5-9.5-4.2c-1.3-1.4-2.4-2.9-3.2-4.7c-0.8-1.7-1.3-3.4-1.6-5.3l-6,0.5c0.3,8.7-3.7,15.7-9.4,16.1c-0.2,0-0.4,0-0.6,0
			c-0.4,0-0.8,0-1.1-0.1c0,0,0,0,0,0l0.4,7.1l0,0l16.3-1.7l28-2.9C412.7,212.7,417.2,207.3,416.6,201.1z"/>
		<path class="st9" d="M392.5,178c-0.3,0-0.5,0-0.8,0c-3.1,0.2-5.8,1.9-7.8,4.7c-2,2.8-3,6.5-2.7,10.3c0.3,3.8,1.8,7.2,4.3,9.7
			c2.4,2.4,5.4,3.6,8.5,3.4c3.1-0.2,5.8-1.9,7.8-4.7c2-2.8,3-6.5,2.7-10.3C403.9,183.7,398.6,178,392.5,178z M398.3,198.1
			c-0.2,0.2-0.4,0.3-0.6,0.3c-0.2,0-0.4-0.1-0.6-0.2l-12.6-11.3c-0.3-0.3-0.4-0.8-0.1-1.2c0.3-0.3,0.8-0.4,1.2-0.1l12.6,11.3
			C398.6,197.3,398.6,197.8,398.3,198.1z M400.2,194.1c-0.2,0.2-0.4,0.3-0.6,0.3c-0.2,0-0.4-0.1-0.6-0.2l-10.3-9.2
			c-0.3-0.3-0.4-0.8-0.1-1.2c0.3-0.3,0.8-0.4,1.2-0.1l10.3,9.2C400.5,193.3,400.5,193.8,400.2,194.1z"/>
		<path class="st9" d="M369.1,182.4c1.9,2.6,3.2,6.1,3.7,10l6-0.5c0-2.3,0.3-4.5,1-6.5c0.5-1.5,1.2-2.9,2.2-4.2
			c2.4-3.4,5.8-5.4,9.7-5.7c7.6-0.6,14.3,5.9,15.3,14.7l8.5-0.7l-3.9-37.3l-22.8,2.9c-4,0.4-7.6-1.4-8.9-4.3c-0.6,0.3-1.2,0.7-1.8,1
			c-9.1,5.7-15.5,15.1-17.2,25.9c0,0,0.1,0,0.1,0C363.9,177.7,366.8,179.3,369.1,182.4z"/>
		<path class="st9" d="M370.4,193.8c-0.3-3.8-1.5-7.4-3.4-9.9c-1.7-2.4-3.8-3.6-5.9-3.4c-0.2,0-0.4,0.1-0.6,0.1
			c-0.1,1.7-0.2,3.5-0.1,5.2l0.1,2.1l0,0l8,8.1c0.3,0.3,0.3,0.9,0,1.2c-0.2,0.2-0.4,0.2-0.6,0.2c-0.2,0-0.4-0.1-0.6-0.2l-6.7-6.8
			l0,0l0.2,2.8l0,0l6.3,6.4c0.3,0.3,0.3,0.9,0,1.2c-0.2,0.2-0.4,0.2-0.6,0.2c-0.2,0-0.4-0.1-0.6-0.2l-4.9-5l0,0l0.7,12.6
			c0,0,0,0,0,0c0.5,0.1,1.1,0.2,1.7,0.2C367.8,208.2,371,201.4,370.4,193.8z"/>
		<path class="st9" d="M446.7,195.1c0-0.4-0.1-0.8-0.2-1.3c-1.1-4.9-5.8-8.3-10.9-7.8c0,0,0,0,0,0c-2.8,0.3-5.3,1.7-6.9,3.8l0.1,1.2
			l-1,0.1c-0.8,1.4-1.3,3-1.3,4.8c0,0.4,0,0.8,0,1.3l0.3,2.8h0l0.1,1l0.8,6.3l2.5,20.9l0.4,3l1,8.5c0.3,3,0.5,5.9,0.4,8.6
			c-0.4,10.5-5.3,18.1-24.6,21.1l-10.1,0.6l0.2,2.3c1-0.5,2.1-0.9,3.3-1l39.6-4.1c1.2-0.1,2.4,0,3.5,0.4l-2.1-20.3l0,0l-1.8-17.1
			l-2.5-23.9l0,0c4.2-0.4,7.6-3.4,8.7-7.3C446.7,197.7,446.8,196.4,446.7,195.1z"/>
		<path class="st9" d="M301.3,326.5c-0.6,0.1-1.2,0.1-1.9,0.1c0,0,0,0,0,0c-11.7,0-13.5-12.9-13.5-12.9s-1.8,1.3-5.3,2.3
			c-2.5,0.8-5.8,1.5-9.9,1.5c-5.8,0-7.6-5.9-8.2-10.6c-0.6,0.3-1.4,0.9-2.5,1.6c0,0,0,0,0,0c-0.5,0.3-1,0.7-1.5,1.1
			c-1.3,0.9-2.7,2-4.3,3.3c-1.1,0.9-2.2,1.8-3.2,2.9c-6.3,5.9-12.7,14-12.9,23.3l0.1,1.1c0,0-0.1,0-0.1-0.1c-0.1,1.4-0.2,2.4-0.4,3
			c-0.2,0.6-0.5,0.9-0.8,0.8c-0.4-0.1-0.9-0.7-1.4-1.5c-0.5-0.8-1-2-1.6-3.3c-0.5,0-1,0-1.5,0c-1.4,0.1-2.8,0.4-4,1
			c-0.1,0.1-0.2,0.1-0.3,0.2c-2.4,1.1-4.5,3.1-6,5.5c-0.8,1.4-1.4,2.9-1.8,4.5c-0.2,0.6-0.3,1.3-0.4,1.9c-0.1,0.5-0.1,1-0.1,1.5
			l0,1.7c0,0.1,0,0.3,0,0.4v0c0,0.2,0,0.4,0.1,0.6c0.1,1.2,0.4,2.4,0.7,3.6c1.8,5.7,6.3,9.8,11.6,10.5c0.3,0,0.6,0.1,0.9,0.1
			c0.4,0,0.7,0,1.1,0c0.1,0,0.3,0,0.4,0l1.8-0.1l1.2-0.1l2.7-0.2l0,0.1l0.1,1.8l0.1,1.1l0.9,13.3l0.2,2.5h0l0.2,3.4l0.3,4.3l0.1,0.8
			l0.3,4l0.6,8.5l0.1,0.8l0,0.3c0,0.2,0,0.5,0.1,0.7c0.3,2.9,1.3,5.5,2.8,7.8c3.4,5.1,9.4,8.2,15.9,7.8c0.3,0,0.7-0.1,1-0.1
			c4.9-0.6,9.1-3.2,11.9-6.8c2.5-3.2,3.9-7.4,3.6-11.7l0-0.4l-0.3-4.9l-0.1-1.7l-0.1-2l-0.9-13.1l0-0.1l1.2-0.1l0.8-0.1l1.3-0.1
			c1.3-0.1,2.6-0.3,3.8-0.5c1.9-0.4,3.6-1,5.3-1.7c0.5-0.2,1.1-0.5,1.6-0.8c9.6-5.1,15.7-15.8,14.2-27.3L301.3,326.5z M284,364.3
			c-0.6,0.2-1.3,0.4-2,0.6c-0.8,0.2-1.5,0.3-2.4,0.3c-1.3,0.1-2.7,0-3.9-0.3c-1.7-0.3-3.3-0.9-4.8-1.8c-2.6-1.5-4.7-3.7-6-6.4
			c-0.3-0.6-0.5-1.2-0.8-1.9c-0.4-1-0.6-2.1-0.7-3.2c0-0.3-0.1-0.5-0.1-0.8l3.5-0.2l10-0.6l0.3,0l0.6,0l15.2-0.9l1-0.1
			C294.5,355.8,290.2,362,284,364.3z"/>
	</g>
</g>
</svg>
