<svg xmlns="http://www.w3.org/2000/svg" xmlns:xlink="http://www.w3.org/1999/xlink" viewBox="0 0 194.29 308.94"><defs><style>.cls-1,.cls-15,.cls-16,.cls-9{fill:none;}.cls-2{isolation:isolate;}.cls-3{fill:#fff;}.cls-4{clip-path:url(#clip-path);}.cls-5{fill:#343f4b;}.cls-18,.cls-6{fill:#ff95a9;}.cls-7{fill:#13ce66;}.cls-8{fill:#d8dee5;}.cls-15,.cls-16,.cls-9{stroke:#d8dee5;}.cls-15,.cls-9{stroke-miterlimit:10;}.cls-9{stroke-width:4.53px;}.cls-10{fill:#8fd9f9;}.cls-11{fill:#ffc359;}.cls-12{clip-path:url(#clip-path-2);}.cls-13{fill:#00a6ff;}.cls-14{fill:#969faa;}.cls-15{stroke-width:4.06px;}.cls-16{stroke-linecap:round;stroke-linejoin:round;stroke-width:2.7px;opacity:0.5;}.cls-17{fill:#ff809f;}.cls-18{opacity:0.42;mix-blend-mode:overlay;}.cls-19{fill:#424242;}</style><clipPath id="clip-path"><rect class="cls-1" x="29.3" y="18.89" width="134.81" height="164.43"/></clipPath><clipPath id="clip-path-2"><path class="cls-1" d="M81.89,122.92,57,124.08l4.35,11.86s12.41,1.06,15.94-1.06S81.89,122.92,81.89,122.92Z"/></clipPath></defs><title>consumidor</title><g class="cls-2"><g id="Capa_1" data-name="Capa 1"><rect class="cls-3" x="0.25" width="194.04" height="308.94" rx="25.53"/><g class="cls-4"><circle class="cls-5" cx="103.81" cy="140.39" r="10.16"/><polygon class="cls-5" points="134.34 191.43 126.39 195.41 95.21 145.78 113.3 136.74 131.66 184.45 133.26 188.61 134.34 191.43"/><polygon class="cls-5" points="134.34 191.44 126.39 195.41 124.29 192.07 133.26 188.62 134.34 191.44"/><polygon class="cls-5" points="68.1 105.67 95.6 146 113.33 136.28 94.1 91.42 68.1 105.67"/><circle class="cls-5" cx="80.4" cy="97.28" r="14.89" transform="translate(-30.12 158.2) rotate(-79.29)"/><polygon class="cls-5" points="68.1 105.67 90.93 139.15 110.07 128.66 94.1 91.42 68.1 105.67"/><path class="cls-5" d="M90.85,92.84l-.26,74.3-54.24,2.47-7-74a10.42,10.42,0,0,1,9.9-11.4L80,82.39A10.43,10.43,0,0,1,90.85,92.84Z"/><path class="cls-5" d="M77.86,46.13l-2.71.14L74.21,28l2.71-.14a9.14,9.14,0,0,1,9.59,8.66h0A9.13,9.13,0,0,1,77.86,46.13Z"/><path class="cls-5" d="M42.63,50.69H56.17a0,0,0,0,1,0,0V64.87a0,0,0,0,1,0,0H51.72a9.09,9.09,0,0,1-9.09-9.09V50.69A0,0,0,0,1,42.63,50.69Z" transform="translate(-2.9 2.62) rotate(-2.95)"/><rect class="cls-6" x="50.88" y="63.11" width="18.62" height="20.17" transform="translate(-3.68 3.19) rotate(-2.95)"/><path class="cls-5" d="M68.05,22.26h3.78A10.91,10.91,0,0,1,82.74,33.16v2.75a9.86,9.86,0,0,1-9.86,9.86H68.05a0,0,0,0,1,0,0V22.26A0,0,0,0,1,68.05,22.26Z" transform="translate(-1.65 3.92) rotate(-2.95)"/><path class="cls-6" d="M74.79,70.46l-24,1.23-1.39-27A14.91,14.91,0,0,1,63.52,29h0a14.91,14.91,0,0,1,15.59,13.4L81.17,63A6.76,6.76,0,0,1,74.79,70.46Z"/><path class="cls-1" d="M80.39,55.23,79.11,42.42Z"/><path class="cls-5" d="M57.28,27.21h0a0,0,0,0,1,0,0V52.69a0,0,0,0,1,0,0H41.71a0,0,0,0,1,0,0V42.78A15.56,15.56,0,0,1,57.28,27.21Z" transform="translate(-1.99 2.6) rotate(-2.94)"/><path class="cls-6" d="M49.94,55.23,54,55,53.79,51a4.06,4.06,0,0,0-4.27-3.84h0a4,4,0,0,0-3.84,4.26h0A4.06,4.06,0,0,0,49.94,55.23Z"/><path class="cls-5" d="M81,38.21,65.63,39a11.42,11.42,0,0,1-12-10.8,5.42,5.42,0,0,1,10.82-.55.55.55,0,0,0,.59.53l15.4-.79Z"/><path class="cls-5" d="M75,33.1l-7.66.4a5.42,5.42,0,1,1-.56-10.82l7.66-.39A5.41,5.41,0,1,1,75,33.1Z"/><path class="cls-6" d="M70,82.79A9.31,9.31,0,1,1,60.23,74,9.3,9.3,0,0,1,70,82.79Z"/><path class="cls-5" d="M81.72,68.48a5.42,5.42,0,0,1-5.12,6L65.87,75A10.83,10.83,0,0,1,54.5,64.73l-.65-12.66,4-.21h0a4.52,4.52,0,0,0,4.74,4.28l17.75-.91Z"/><polygon class="cls-5" points="51 109.3 17.59 144.89 1.58 132.56 27.51 91.21 51 109.3"/><polygon class="cls-5" points="51 109.3 23.26 138.85 5.98 125.53 27.51 91.21 51 109.3"/><circle class="cls-5" cx="40.14" cy="99.11" r="14.89" transform="translate(-66.64 93.43) rotate(-64.91)"/><circle class="cls-5" cx="10.53" cy="138.1" r="10.16" transform="translate(-54.43 15.77) rotate(-23.61)"/><polygon class="cls-5" points="20.17 141.27 1.85 196.94 -6.83 194.99 -6.46 192 -5.9 187.57 0.44 136.84 20.17 141.27"/><polygon class="cls-5" points="-6.83 195 1.85 196.94 3.08 193.19 -6.46 192 -6.83 195"/><path class="cls-3" d="M77.94,60.21a4.18,4.18,0,1,1-8.35.33Z"/><polygon class="cls-5" points="51.41 83.74 61.19 92.56 70 82.79 76.07 83.27 76.07 97.28 46.97 97.28 46.97 83.89 51.41 83.74"/><path class="cls-6" d="M57.26,179.23h0a5,5,0,0,0-1.5.85,5.25,5.25,0,0,0,6.63,8.14l7-5.69-3.67-6.42Z"/><path class="cls-6" d="M64.09,182a3.75,3.75,0,1,1,5.28.53A3.76,3.76,0,0,1,64.09,182Z"/><path class="cls-6" d="M91.4,140.06a7.08,7.08,0,1,0-1.73-9.86A7.08,7.08,0,0,0,91.4,140.06Z"/><polygon class="cls-6" points="89.19 130.99 65.28 176.7 71.68 180.58 101.27 138.32 89.19 130.99"/><circle class="cls-7" cx="106.69" cy="102.53" r="9.75" transform="translate(-38.7 75.01) rotate(-33.14)"/><polygon class="cls-7" points="116.17 104.69 106.2 129.59 91 124.63 97.68 98.65 116.17 104.69"/><circle class="cls-7" cx="113.21" cy="158.08" r="17.43" transform="translate(-76.3 114.58) rotate(-41.46)"/><path class="cls-7" d="M97,102.34l-1.14,54.57,34.79,2.34,18.21-56.16a6,6,0,0,0-5.3-7.84l-36.16-2.43A9.74,9.74,0,0,0,97,102.34Z"/><circle class="cls-7" cx="100.2" cy="127.06" r="9.75" transform="translate(-59.31 99.87) rotate(-42.07)"/><path class="cls-7" d="M141.56,114.22a9.74,9.74,0,1,1,8.52-10.83A9.74,9.74,0,0,1,141.56,114.22Z"/><polygon class="cls-7" points="150.15 104.66 149.72 145.8 135.61 146.56 130.73 105.7 150.15 104.66"/><polygon class="cls-7" points="130.73 105.7 133.91 132.34 149.87 131.48 150.15 104.66 130.73 105.7"/><path class="cls-5" d="M119.39,35.28l3.7.25-3.7,55.07-10.63-.71a15.58,15.58,0,0,1-14.3-18.16L97.79,52.3A20.52,20.52,0,0,1,119.39,35.28Z"/><rect class="cls-6" x="114.74" y="78.32" width="16.49" height="20.31" transform="translate(239.77 184.99) rotate(-176.15)"/><path class="cls-6" d="M106.62,46.11,134.73,48l-2.44,36.29-17.46-1.17a12.16,12.16,0,0,1-11.24-13.69Z"/><path class="cls-6" d="M133.29,68.76l-3.53-.24L130,65a3.54,3.54,0,0,1,3.77-3.29h0a3.53,3.53,0,0,1,3.29,3.76h0A3.55,3.55,0,0,1,133.29,68.76Z"/><path class="cls-5" d="M144.43,79.59,143.15,55A20.53,20.53,0,0,0,124,35.59l-2.54-.17-1,14.33a20.9,20.9,0,0,0,2.37,11.16l4.14,7.85A20.87,20.87,0,0,1,125.33,91h0l7,.47A11.31,11.31,0,0,0,144.43,79.59Z"/><path class="cls-5" d="M127.78,40.33,117.37,51.45a18.22,18.22,0,0,1-14.5,5.72h0l-.67,9.88,1-15.46A12.88,12.88,0,0,1,117,39.6Z"/><path class="cls-6" d="M114.08,98.05a8.25,8.25,0,1,0,8.78-7.68A8.25,8.25,0,0,0,114.08,98.05Z"/><path class="cls-3" d="M116.85,72.93a4.12,4.12,0,1,1-8.23-.5Z"/><polygon class="cls-6" points="145.14 152.78 97.27 172.01 94.05 165.26 139.05 140.03 145.14 152.78"/><circle class="cls-6" cx="142.51" cy="146.21" r="7.08" transform="translate(-30.96 253.89) rotate(-77.56)"/><path class="cls-6" d="M90.62,178.78A5.26,5.26,0,0,0,92,177.7h0L98,171l-4.63-5.76-7.85,4.4a5.25,5.25,0,1,0,5.14,9.15Z"/><path class="cls-6" d="M94.75,172a3.75,3.75,0,1,1,4.76-2.33A3.75,3.75,0,0,1,94.75,172Z"/><ellipse class="cls-5" cx="54.32" cy="81.96" rx="9.14" ry="8.69" transform="translate(-42.27 100.34) rotate(-67.24)"/><ellipse class="cls-8" cx="58.68" cy="84.4" rx="9.14" ry="8" transform="translate(-41.85 105.86) rotate(-67.24)"/><ellipse class="cls-5" cx="67.36" cy="93.58" rx="17.38" ry="18.27"/><path class="cls-9" d="M61.09,176.7s-1.76-4.27-4.88-3.1S59,176.7,59,176.7s-3.28.67-3.68,2.49S60.69,180.31,61.09,176.7Z"/><path class="cls-6" d="M90.64,169.16A5.83,5.83,0,1,1,92.07,161,5.84,5.84,0,0,1,90.64,169.16Z"/><polygon class="cls-10" points="89.35 130.06 93.09 163.74 81.62 165.77 73.57 132.84 89.35 130.06"/><polygon class="cls-6" points="92.47 161.68 112.16 199.34 106.89 202.54 82.51 167.73 92.47 161.68"/><circle class="cls-11" cx="81.37" cy="130.93" r="8.03" transform="translate(-72.75 127.48) rotate(-56.86)"/><polygon class="cls-11" points="73.57 132.84 78.82 154.31 91.78 152.02 89.35 130.05 73.57 132.84"/><circle class="cls-10" cx="76" cy="176.7" r="14.36" transform="translate(-106.74 116.65) rotate(-48.54)"/><path class="cls-11" d="M89.35,130.1A8,8,0,1,1,80.52,123,8,8,0,0,1,89.35,130.1Z"/><path class="cls-10" d="M89.39,130.78l.94,44.95-28.66,1.93-15-46.27A4.94,4.94,0,0,1,51,124.94l29.79-2A8,8,0,0,1,89.39,130.78Z"/><circle class="cls-10" cx="88.43" cy="146.39" r="8.03"/><rect class="cls-10" x="76.86" y="130.18" width="16.06" height="16.98" transform="translate(-49.97 47.86) rotate(-24.57)"/><path class="cls-6" d="M95.39,162A3.09,3.09,0,1,1,92.16,159,3.09,3.09,0,0,1,95.39,162Z"/><path class="cls-10" d="M50.87,140.9a8,8,0,1,0-7-8.92A8,8,0,0,0,50.87,140.9Z"/><path class="cls-6" d="M100,167.32a4.11,4.11,0,0,1-1.41-.17h0l-7.12-2.08.72-6.05,7.4-.34a4.32,4.32,0,1,1,.41,8.63Z"/><polygon class="cls-10" points="43.79 133.03 44.14 166.92 55.77 167.54 59.79 133.88 43.79 133.03"/><polygon class="cls-10" points="59.79 133.88 57.17 155.83 44.02 155.12 43.79 133.03 59.79 133.88"/><polygon class="cls-6" points="51.01 172.59 92.85 165.16 92.16 159.03 49.7 161.02 51.01 172.59"/><polygon class="cls-6" points="77.33 123.17 63.77 124.08 62.64 110.49 76.2 109.58 77.33 123.17"/><path class="cls-6" d="M83.47,83.49,60.31,85l2.63,29.9,13.77-1A10,10,0,0,0,86,102.7Z"/><path class="cls-6" d="M61.5,102.14l2.91-.19L64.21,99a2.91,2.91,0,0,0-3.1-2.71h0a2.92,2.92,0,0,0-2.72,3.1h0A2.91,2.91,0,0,0,61.5,102.14Z"/><path class="cls-5" d="M86.25,88A10.61,10.61,0,0,0,75,78.12l-8.91.6,8.57,9.16a15,15,0,0,0,12,4.72h0"/><path class="cls-5" d="M73.75,83.87C73.26,91.19,67.57,96.76,61,96.32l-9.94-.66,9.65-11.53a16.14,16.14,0,0,1,13.38-6h0"/><circle class="cls-6" cx="49.98" cy="166.85" r="5.83" transform="translate(-102.47 82.61) rotate(-44.4)"/><path class="cls-3" d="M75,105.58a3.4,3.4,0,0,0,6.79-.41Z"/><rect class="cls-3" x="51.18" y="151.83" width="12.81" height="1.24" transform="translate(-100.66 191.33) rotate(-83.11)"/><g class="cls-12"><path class="cls-13" d="M80,124.83c.35,4.57-3.61,8.53-8.85,8.84s-9.78-3.15-10.14-7.73,3.62-8.53,8.86-8.84S79.61,120.25,80,124.83Z"/></g><path class="cls-6" d="M77.32,123.17a6.79,6.79,0,1,1-7.23-6.32A6.78,6.78,0,0,1,77.32,123.17Z"/><path class="cls-10" d="M90.36,176.7H61.64l-1.55,1.67C54.87,184,49.7,192.68,49.7,201.86v36.56c0,6.64-1.08,12,3.7,12H98.84c4.77,0,3.9-5.38,3.9-12l-5.4-40.55C97.34,190.24,92.79,183.53,90.36,176.7Z"/><path class="cls-8" d="M90.65,176.7h-29l-1.43,1.2c-4.8,4-5.09,10.29-5.09,16.89V213.4c0,4.77,3.56,8.64,8,8.64h23c4.4,0,8-3.87,8-8.65V192.51A38.15,38.15,0,0,0,90.65,176.7Z"/><path class="cls-5" d="M144.29,178.49a22.62,22.62,0,0,0,2.57,8.26l41.84-4.59a22.7,22.7,0,1,0-44.41-3.67Z"/><circle class="cls-8" cx="129.93" cy="158.1" r="8.49"/><polygon class="cls-8" points="111.29 204.19 118.37 206.45 137.72 161.44 121.62 156.31 112.61 198.08 111.82 201.73 111.29 204.19"/><polygon class="cls-8" points="111.29 204.2 118.37 206.46 119.67 203.43 111.82 201.73 111.29 204.2"/><polygon class="cls-8" points="154.94 124.81 137.43 161.67 121.53 155.93 131.63 116.4 154.94 124.81"/><circle class="cls-8" cx="143.7" cy="119.47" r="12.45" transform="translate(-31.73 55.07) rotate(-19.58)"/><polygon class="cls-8" points="154.94 124.81 140.4 155.41 123.24 149.22 131.63 116.4 154.94 124.81"/><path class="cls-8" d="M134.5,117.15l9.8,61.34,45.11-5-3.74-62A8.71,8.71,0,0,0,176,103.4l-33.87,3.72A8.7,8.7,0,0,0,134.5,117.15Z"/><path class="cls-14" d="M167.64,76.92h2.23a0,0,0,0,1,0,0V88.78a0,0,0,0,1,0,0H158.56a0,0,0,0,1,0,0V86A9.09,9.09,0,0,1,167.64,76.92Z" transform="translate(336.11 148.3) rotate(174.07)"/><rect class="cls-6" x="149.51" y="88.54" width="15.56" height="16.86" transform="translate(323.75 177.18) rotate(174.07)"/><rect class="cls-8" x="149.14" y="101.82" width="19.02" height="16.86" rx="8.43" transform="translate(327.83 203.53) rotate(174.07)"/><path class="cls-6" d="M144.88,96.6l20-2.08L162.52,72a12.46,12.46,0,0,0-13.68-11.1h0A12.46,12.46,0,0,0,137.69,74l1,17.28A5.65,5.65,0,0,0,144.88,96.6Z"/><path class="cls-1" d="M138.29,84.74,137.69,74Z"/><path class="cls-14" d="M155.33,57.49h13a0,0,0,0,1,0,0v21.3a0,0,0,0,1,0,0h0a13,13,0,0,1-13-13V57.49a0,0,0,0,1,0,0Z" transform="translate(329.84 119.19) rotate(174.07)"/><path class="cls-6" d="M163.44,80.81l-3.38.35-.35-3.38a3.38,3.38,0,0,1,3-3.72h0a3.39,3.39,0,0,1,3.73,3h0A3.39,3.39,0,0,1,163.44,80.81Z"/><path class="cls-14" d="M147.13,63.8l9.71-1.24a2.46,2.46,0,1,0-.5-4.79L146.64,59a2.46,2.46,0,1,0,.49,4.79Z"/><path class="cls-14" d="M137.65,96.1c-.29,4.63,1.27,6.71,5.48,6.42l10.22-.6c8.06-1.26,8.59-5,8.07-9.94L159.8,78.71l-3.37.35h0a3.77,3.77,0,0,1-3.36,4.14l-14.79,1.54Z"/><polygon class="cls-8" points="169.54 125.61 201.72 150.7 213.35 138.44 186.6 107.64 169.54 125.61"/><polygon class="cls-8" points="169.53 125.61 196.25 146.44 208.81 133.21 186.6 107.64 169.53 125.61"/><circle class="cls-8" cx="177.19" cy="115.79" r="12.45" transform="translate(-34.46 118.75) rotate(-33.96)"/><path class="cls-3" d="M141,88.54a3.49,3.49,0,0,0,6.94-.81Z"/><ellipse class="cls-15" cx="148.51" cy="76.08" rx="4.3" ry="5.11" transform="translate(-5.54 11.96) rotate(-4.53)"/><ellipse class="cls-15" cx="138.29" cy="76.89" rx="3.15" ry="5.11" transform="translate(-5.64 11.16) rotate(-4.53)"/><line class="cls-15" x1="141.43" y1="76.65" x2="144.22" y2="76.42"/><line class="cls-15" x1="152.51" y1="75.96" x2="160.42" y2="75.33"/><line class="cls-16" x1="147.31" y1="73.53" x2="150.74" y2="76.59"/><line class="cls-16" x1="145.9" y1="74.17" x2="150.11" y2="77.93"/><line class="cls-16" x1="137.43" y1="74.79" x2="140.2" y2="77.6"/><line class="cls-16" x1="136.33" y1="75.34" x2="139.72" y2="78.78"/><path class="cls-6" d="M121.09,194.82a4.45,4.45,0,0,1-5.54-3,4.51,4.51,0,0,1,2.93-5.64,4.44,4.44,0,0,1,5.53,3A4.53,4.53,0,0,1,121.09,194.82Z"/><path class="cls-6" d="M116.78,202.39a5.45,5.45,0,0,1-.22-1.73h0l.27-9.09,7.24-.94,2.62,8.71a5.29,5.29,0,0,1-3.43,6.61A5.21,5.21,0,0,1,116.78,202.39Z"/><polygon class="cls-6" points="108.79 176.29 117.17 193.27 124.07 190.63 121.83 171.3 108.79 176.29"/><ellipse class="cls-6" cx="115.15" cy="173.36" rx="6.99" ry="7.16" transform="translate(-25.67 20.11) rotate(-8.99)"/><path class="cls-5" d="M105.26,106.56s12.8-1.72,15,6.93.49,11.31,1.94,17.32,5,9.83,4.22,14.83-17.85,14.37-22.35,0S105.26,106.56,105.26,106.56Z"/><path class="cls-11" d="M113.21,162a7.81,7.81,0,0,0,7.44-8.22,7.92,7.92,0,0,0-8.09-7.68,7.81,7.81,0,0,0-7.45,8.22A7.92,7.92,0,0,0,113.21,162Z"/><line class="cls-11" x1="120.65" y1="153.79" x2="105.22" y2="155.37"/><polygon class="cls-11" points="120.65 153.79 123.7 175.46 108.87 176.98 105.22 155.37 120.65 153.79"/><circle class="cls-17" cx="90.65" cy="223.64" r="6.51"/><polygon class="cls-17" points="84.14 223.59 85.99 260.99 93.47 261.05 97.16 223.69 84.14 223.59"/><circle class="cls-17" cx="89.2" cy="189.28" r="8.06"/><polygon class="cls-17" points="97.26 189.28 97.26 223.65 84.26 224.14 81.17 189.89 97.26 189.28"/><circle class="cls-17" cx="106.14" cy="223.64" r="6.51"/><polygon class="cls-17" points="99.63 223.59 101.48 260.99 108.96 261.05 112.64 223.69 99.63 223.59"/><circle class="cls-17" cx="104.69" cy="189.28" r="8.06"/><polygon class="cls-17" points="112.74 189.28 112.74 223.65 99.75 224.14 96.65 189.89 112.74 189.28"/><ellipse class="cls-5" cx="102" cy="121" rx="15.33" ry="14.57"/><path class="cls-5" d="M78.37,137.92c0,7.82,0,14.16,12.68,14.16,7,0,12.68-6.34,12.68-14.16s-12.66-1.48-12.68-14.16C91,111.76,78.37,130.1,78.37,137.92Z"/><ellipse class="cls-5" cx="101.37" cy="142.6" rx="9.11" ry="9.57"/><path class="cls-5" d="M99.21,128.27l2.45.12.85-16.5-2.45-.12a8.25,8.25,0,0,0-8.67,7.82h0A8.26,8.26,0,0,0,99.21,128.27Z"/><circle class="cls-7" cx="99.23" cy="176.81" r="17.64" transform="translate(-98.97 134.09) rotate(-48.54)"/><path class="cls-7" d="M116.42,150.85l.57,26.21-29.31,1.18-2.24-28.43a3,3,0,0,1,2.68-4l23,.19A4.93,4.93,0,0,1,116.42,150.85Z"/><path class="cls-7" d="M115.63,177.65H83l-1.38,1.58c-4.63,5.31-5,13.47-5,22.13v12.93c0,6.26,8.16,6.49,12.4,6.49h22.16c4.24,0,7.68-5.07,7.68-11.33V198.37A65.59,65.59,0,0,0,115.63,177.65Z"/><path class="cls-6" d="M90.91,195.33a4.46,4.46,0,0,1-5-3.87,4.52,4.52,0,0,1,3.77-5.12,4.46,4.46,0,0,1,5,3.87A4.52,4.52,0,0,1,90.91,195.33Z"/><path class="cls-6" d="M85.47,202.13a5.62,5.62,0,0,1,0-1.74h0l1.69-8.94,7.3.2,1.22,9a5.29,5.29,0,0,1-4.41,6A5.21,5.21,0,0,1,85.47,202.13Z"/><rect class="cls-6" x="98" y="134.36" width="11.82" height="14.39" transform="translate(-9.26 7.29) rotate(-3.85)"/><path class="cls-6" d="M110.3,148.34a5.91,5.91,0,1,1-6.29-5.43A5.88,5.88,0,0,1,110.3,148.34Z"/><polygon class="cls-6" points="81.65 175.1 87.28 193.19 94.51 191.66 95.31 172.21 81.65 175.1"/><ellipse class="cls-6" cx="88.39" cy="173.2" rx="6.99" ry="7.16"/><path class="cls-6" d="M117,113.49l-20.79,1.4L98,141.73l12.91-.87a9,9,0,0,0,8.31-10.12Z"/><path class="cls-6" d="M95.65,135.6l4.57-.3-.35-5.23c-.19-2.88-2.4-5.09-4.93-4.92h0c-2.52.17-4.41,2.65-4.22,5.54h0C90.91,133.57,93.12,135.77,95.65,135.6Z"/><path class="cls-3" d="M105.26,129a5.14,5.14,0,1,0,10.26-.63Z"/><path class="cls-5" d="M105,112.46s-.47,5.49,2.77,5.49a9.43,9.43,0,0,0,5.06-1.26s.63,4.31,4.52,4.31,8.78-3.55,6.9-9.63S109,104.44,105,112.46Z"/><path class="cls-5" d="M105.26,114.28S97,119,96.89,125.14s-3.67-7-3.67-7,.84-4.74,5-6.38C106.31,108.57,105.26,114.28,105.26,114.28Z"/><path class="cls-11" d="M88.25,161.69a7.81,7.81,0,0,0,8.64-7,7.93,7.93,0,0,0-6.8-8.85,7.8,7.8,0,0,0-8.63,7A7.92,7.92,0,0,0,88.25,161.69Z"/><line class="cls-11" x1="96.89" y1="154.73" x2="81.4" y2="153.88"/><polygon class="cls-11" points="96.89 154.73 96.2 174.91 81.63 175.79 81.4 153.88 96.89 154.73"/><ellipse class="cls-18" cx="102.01" cy="126.38" rx="2.39" ry="1.23" transform="translate(-29.63 31.26) rotate(-15.24)"/><ellipse class="cls-18" cx="116.56" cy="125.91" rx="2" ry="1.23"/></g><path class="cls-19" d="M26.75,212.27a6.78,6.78,0,0,1,7.13-6.84,6.74,6.74,0,0,1,5.26,2.22l-1.6,1.5A4.67,4.67,0,0,0,34,207.59a4.68,4.68,0,1,0,3.55,7.77l1.6,1.52a6.73,6.73,0,0,1-5.28,2.23A6.77,6.77,0,0,1,26.75,212.27Z"/><path class="cls-19" d="M40.07,213.84a5.1,5.1,0,0,1,5.4-5.18,5.2,5.2,0,1,1,0,10.39A5.13,5.13,0,0,1,40.07,213.84Zm8.42,0a3,3,0,1,0-3,3.18A3,3,0,0,0,48.49,213.84Z"/><path class="cls-19" d="M70.13,213.1v5.82H67.75v-5.51c0-1.81-.83-2.68-2.28-2.68s-2.64,1-2.64,3v5.15H60.46v-5.51c0-1.81-.84-2.68-2.28-2.68s-2.64,1-2.64,3v5.15H53.16V208.77h2.26v1.29a4.21,4.21,0,0,1,3.33-1.4,3.8,3.8,0,0,1,3.42,1.69,4.7,4.7,0,0,1,3.8-1.69C68.42,208.66,70.13,210,70.13,213.1Z"/><path class="cls-19" d="M72,217.91l.91-1.81a6.84,6.84,0,0,0,3.54,1c1.5,0,2.12-.42,2.12-1.12,0-1.94-6.26-.11-6.26-4.16,0-1.92,1.72-3.17,4.46-3.17a8.08,8.08,0,0,1,3.8.87l-.91,1.81a5.56,5.56,0,0,0-2.91-.76c-1.44,0-2.13.47-2.13,1.14,0,2.05,6.27.22,6.27,4.19,0,1.9-1.75,3.14-4.59,3.14A8.11,8.11,0,0,1,72,217.91Z"/><path class="cls-19" d="M92.78,208.77v10.15H90.52v-1.3a4.16,4.16,0,0,1-3.27,1.43c-2.6,0-4.37-1.43-4.37-4.49v-5.79h2.37v5.47c0,1.84.88,2.72,2.38,2.72,1.65,0,2.77-1,2.77-3.06v-5.13Z"/><path class="cls-19" d="M112.86,213.1v5.82h-2.38v-5.51c0-1.81-.83-2.68-2.27-2.68s-2.65,1-2.65,3v5.15h-2.37v-5.51c0-1.81-.84-2.68-2.28-2.68s-2.64,1-2.64,3v5.15H95.9V208.77h2.26v1.29a4.19,4.19,0,0,1,3.32-1.4,3.8,3.8,0,0,1,3.42,1.69,4.72,4.72,0,0,1,3.8-1.69C111.15,208.66,112.86,210,112.86,213.1Z"/><path class="cls-19" d="M115.58,205.67a1.45,1.45,0,0,1,1.52-1.42,1.42,1.42,0,0,1,1.52,1.37,1.52,1.52,0,0,1-3,0Zm.32,3.1h2.38v10.15H115.9Z"/><path class="cls-19" d="M131.33,204.82v14.1h-2.28V217.6a4.19,4.19,0,0,1-3.36,1.45,5.2,5.2,0,0,1,0-10.39A4.13,4.13,0,0,1,129,210v-5.2Zm-2.34,9a3,3,0,1,0-3,3.18A3,3,0,0,0,129,213.84Z"/><path class="cls-19" d="M133.61,213.84a5.41,5.41,0,1,1,5.4,5.21A5.1,5.1,0,0,1,133.61,213.84Zm8.42,0a3,3,0,1,0-3,3.18A3,3,0,0,0,142,213.84Z"/><path class="cls-19" d="M152.57,208.66v2.26a2.88,2.88,0,0,0-.55-.06c-1.8,0-2.94,1.06-2.94,3.13v4.93H146.7V208.77H149v1.48A4,4,0,0,1,152.57,208.66Z"/><path class="cls-19" d="M159.09,213.84a5.41,5.41,0,1,1,5.39,5.21A5.1,5.1,0,0,1,159.09,213.84Zm8.41,0a3,3,0,1,0-3,3.18A3,3,0,0,0,167.5,213.84Z"/><path class="cls-19" d="M57.06,234.91H59.4v5.3a8.39,8.39,0,0,1-5.21,1.7c-4.12,0-7.16-2.87-7.16-6.84s3-6.84,7.2-6.84a6.9,6.9,0,0,1,5.34,2.16L58,231.91a5,5,0,0,0-3.67-1.52,4.68,4.68,0,1,0,0,9.35,5.44,5.44,0,0,0,2.74-.68Z"/><path class="cls-19" d="M71.92,237.4H64a3.06,3.06,0,0,0,3.28,2.43,3.65,3.65,0,0,0,2.76-1.1l1.27,1.47a5.15,5.15,0,0,1-4.08,1.65c-3.4,0-5.61-2.19-5.61-5.21a5,5,0,0,1,5.24-5.18A4.94,4.94,0,0,1,72,236.7C72,236.89,71.94,237.18,71.92,237.4Zm-8-1.57h5.75a2.76,2.76,0,0,0-2.87-2.47A2.8,2.8,0,0,0,63.94,235.83Z"/><path class="cls-19" d="M84.23,235.9v5.82H81.85v-5.51c0-1.81-.89-2.68-2.41-2.68-1.69,0-2.83,1-2.83,3.06v5.13H74.24V231.57H76.5v1.31A4.4,4.4,0,0,1,80,231.46C82.42,231.46,84.23,232.84,84.23,235.9Z"/><path class="cls-19" d="M96.84,237.4h-8a3.07,3.07,0,0,0,3.29,2.43,3.66,3.66,0,0,0,2.76-1.1l1.27,1.47a5.16,5.16,0,0,1-4.09,1.65c-3.4,0-5.6-2.19-5.6-5.21a5,5,0,0,1,5.24-5.18,4.94,4.94,0,0,1,5.13,5.24C96.88,236.89,96.86,237.18,96.84,237.4Zm-8-1.57h5.76a2.76,2.76,0,0,0-2.87-2.47A2.8,2.8,0,0,0,88.86,235.83Z"/><path class="cls-19" d="M105,231.46v2.26a2.88,2.88,0,0,0-.55-.06c-1.8,0-2.94,1.06-2.94,3.14v4.92H99.16V231.57h2.26v1.48A4,4,0,0,1,105,231.46Z"/><path class="cls-19" d="M115.48,235.77v5.95h-2.24v-1.24a3.6,3.6,0,0,1-3.19,1.37c-2.32,0-3.78-1.27-3.78-3s1.14-3,4.22-3h2.62v-.15c0-1.39-.84-2.21-2.53-2.21a5,5,0,0,0-3.08,1l-.93-1.73a7.19,7.19,0,0,1,4.3-1.25C113.79,231.46,115.48,232.84,115.48,235.77Zm-2.37,2.77v-1.17h-2.45c-1.62,0-2,.6-2,1.34s.72,1.41,1.93,1.41A2.59,2.59,0,0,0,113.11,238.54Z"/><path class="cls-19" d="M128.56,227.62v14.1h-2.28V240.4a4.2,4.2,0,0,1-3.37,1.45,5.2,5.2,0,0,1,0-10.39,4.16,4.16,0,0,1,3.27,1.36v-5.2Zm-2.34,9a3,3,0,1,0-3,3.18A3,3,0,0,0,126.22,236.64Z"/><path class="cls-19" d="M130.84,236.64a5.41,5.41,0,1,1,5.39,5.21A5.1,5.1,0,0,1,130.84,236.64Zm8.41,0a3,3,0,1,0-3,3.18A3,3,0,0,0,139.25,236.64Z"/><path class="cls-19" d="M149.8,231.46v2.26a2.88,2.88,0,0,0-.55-.06c-1.81,0-2.95,1.06-2.95,3.14v4.92h-2.37V231.57h2.26v1.48A4,4,0,0,1,149.8,231.46Z"/></g></g></svg>