<?xml version="1.0" standalone="no"?>
<!DOCTYPE svg PUBLIC "-//W3C//DTD SVG 20010904//EN"
 "http://www.w3.org/TR/2001/REC-SVG-20010904/DTD/svg10.dtd">
<svg version="1.0" xmlns="http://www.w3.org/2000/svg"
 width="449.000000pt" height="585.000000pt" viewBox="0 0 449.000000 585.000000"
 preserveAspectRatio="xMidYMid meet">

<g transform="translate(0.000000,585.000000) scale(0.100000,-0.100000)"
fill="#000000" stroke="none">
<path d="M1640 5834 c-63 -17 -119 -48 -181 -100 -54 -46 -114 -73 -157 -74
-83 0 -142 -61 -123 -126 5 -16 105 -222 223 -459 l215 -430 -41 -30 c-26 -20
-53 -54 -74 -95 -31 -60 -34 -71 -30 -140 2 -50 10 -89 24 -117 l21 -41 -115
-38 c-219 -72 -444 -195 -632 -347 -345 -277 -591 -661 -701 -1094 -59 -235
-60 -240 -57 -1353 l3 -1015 23 -57 c49 -121 159 -231 280 -280 l57 -23 1840
-3 c1383 -2 1854 0 1895 9 128 27 268 135 323 249 59 122 57 90 57 1116 0 935
-3 1056 -36 1229 -134 724 -660 1334 -1349 1564 -66 22 -120 44 -119 48 0 4 6
21 12 37 11 24 16 27 40 22 15 -4 52 -22 82 -40 82 -50 153 -70 240 -69 133 1
244 56 327 164 90 116 200 139 320 68 32 -19 77 -43 101 -52 51 -21 149 -32
187 -23 26 7 27 9 20 54 -4 26 -11 68 -16 93 l-10 47 -54 4 c-37 3 -70 15
-112 40 -98 58 -148 73 -243 73 -102 0 -166 -20 -243 -75 -30 -22 -72 -62 -92
-90 -46 -63 -106 -99 -176 -106 l-54 -5 61 30 c74 37 166 131 199 203 14 30
29 83 34 119 15 105 53 165 131 205 26 13 62 18 135 19 111 2 191 25 251 70
l34 26 -19 27 c-11 15 -40 49 -63 75 l-43 48 -44 -23 c-34 -17 -65 -22 -136
-24 -154 -4 -238 -38 -326 -131 -60 -63 -94 -133 -110 -228 -27 -161 -101
-225 -259 -225 -45 0 -100 -5 -123 -11 l-42 -10 -57 56 -58 55 220 440 c139
279 220 451 220 470 0 18 -11 41 -28 61 -23 26 -37 32 -95 39 -71 9 -93 19
-167 81 -177 146 -416 145 -592 -2 -68 -57 -122 -79 -193 -79 -71 0 -119 21
-190 80 -118 99 -268 133 -415 94z m201 -195 c19 -7 66 -36 104 -64 124 -94
205 -121 333 -113 100 7 177 37 255 100 84 68 129 88 202 88 71 0 120 -20 189
-78 39 -33 90 -63 144 -88 2 -1 -87 -182 -197 -403 l-201 -401 -423 0 -422 0
-200 401 c-119 238 -195 403 -189 406 26 9 131 76 154 98 60 57 171 81 251 54z
m960 -1188 c47 -47 34 -117 -26 -146 -28 -13 -102 -15 -524 -15 -524 0 -545 2
-570 48 -20 37 -13 91 14 117 l24 25 526 0 527 0 29 -29z m15 -394 c801 -175
1383 -824 1464 -1632 8 -74 10 -418 8 -1060 l-3 -950 -27 -51 c-31 -58 -84
-108 -142 -135 -39 -18 -113 -19 -1866 -19 l-1825 0 -50 24 c-65 30 -112 78
-142 143 l-24 51 4 1039 3 1038 26 116 c175 773 765 1330 1538 1454 64 11 186
13 500 11 406 -3 418 -3 536 -29z"/>
</g>
</svg>
