<svg height="382pt" viewBox="-37 0 382 382.46113" width="382pt" xmlns="http://www.w3.org/2000/svg"><path d="m154.214844 176.234375c-31.5.039063-57.21875 25.191406-57.96875 56.679687 16.640625 11.757813 36.460937 18.167969 56.832031 18.386719.363281 0 .730469.003907 1.089844.003907 20.78125-.003907 41.050781-6.457032 58.011719-18.464844-.789063-31.460938-26.496094-56.566406-57.964844-56.605469zm0 0"/><path d="m186.214844 99.683594c0 17.675781-14.328125 32-32 32s-32-14.324219-32-32c0-17.671875 14.328125-32 32-32s32 14.328125 32 32zm0 0"/><path d="m307.890625 147.78125c-2.558594-38.957031-19.132813-75.671875-46.65625-103.355469-28.351563-28.441406-66.859375-44.425781-107.019531-44.425781s-78.667969 15.984375-107.019532 44.425781c-27.527343 27.683594-44.097656 64.398438-46.660156 103.355469-1.347656 21.226562 1.78125 42.5 9.183594 62.4375 7.261719 19.898438 19.140625 38.71875 35.308594 55.945312l109.1875 116.296876 109.183594-116.300782c16.167968-17.226562 28.050781-36.046875 35.308593-55.945312 7.40625-19.9375 10.535157-41.210938 9.183594-62.433594zm-153.71875 115.527344c-.410156 0-.8125 0-1.222656-.007813-63.363281-.679687-114.347657-54.09375-113.652344-119.074219.191406-31.089843 12.582031-60.859374 34.5-82.90625 21.523437-21.863281 51.011719-34.027343 81.6875-33.699218 30.671875.328125 59.894531 13.125 80.941406 35.441406 21.441407 22.511719 33.1875 52.542969 32.710938 83.628906-.699219 64.558594-52.15625 116.617188-114.964844 116.617188zm0 0"/><path d="m155.347656 39.621094c-27.433594-.28125-53.804687 10.605468-73.046875 30.160156-41.714843 42.359375-41.285156 110.488281.957031 152.316406 5.902344-34.566406 35.855469-59.847656 70.921876-59.867187 35.066406-.015625 65.042968 25.238281 70.980468 59.796875 41.613282-41.203125 42.757813-108.082032 2.574219-150.683594-18.804687-19.984375-44.945313-31.441406-72.386719-31.722656zm-1.132812 106.0625c-25.40625 0-46-20.59375-46-46 0-25.402344 20.59375-46 46-46s46 20.597656 46 46c-.027344 25.394531-20.605469 45.972656-46 46zm0 0"/></svg>