<?xml version="1.0" standalone="no"?>
<!DOCTYPE svg PUBLIC "-//W3C//DTD SVG 20010904//EN"
 "http://www.w3.org/TR/2001/REC-SVG-20010904/DTD/svg10.dtd">
<svg version="1.0" xmlns="http://www.w3.org/2000/svg"
 width="512.000000pt" height="512.000000pt" viewBox="0 0 512.000000 512.000000"
 preserveAspectRatio="xMidYMid meet">

<g transform="translate(0.000000,512.000000) scale(0.100000,-0.100000)"
fill="#000000" stroke="none">
<path d="M2505 5011 c-16 -10 -38 -27 -47 -37 -9 -11 -166 -320 -348 -689
-182 -368 -332 -670 -333 -671 -1 -2 -331 -50 -732 -109 -402 -58 -743 -110
-758 -115 -50 -17 -86 -50 -98 -91 -24 -78 -8 -96 574 -660 290 -281 527 -518
527 -526 0 -8 -56 -342 -125 -743 -133 -772 -133 -771 -91 -835 22 -33 80 -48
131 -34 22 6 333 165 690 353 358 187 657 341 665 341 8 0 308 -154 665 -342
358 -187 669 -346 691 -352 92 -24 156 30 157 132 0 29 -55 375 -123 771
l-124 718 344 336 c645 628 747 732 760 779 11 36 10 46 -6 79 -36 72 -34 72
-844 189 -404 59 -736 107 -737 109 -1 1 -149 299 -328 662 -180 362 -338 674
-351 692 -47 60 -105 77 -159 43z m1193 -1823 c327 -47 595 -88 598 -90 2 -2
-192 -195 -431 -427 -385 -375 -434 -425 -429 -447 8 -31 201 -1168 199 -1171
-1 -2 -243 124 -538 280 l-536 282 0 1375 0 1375 272 -545 272 -545 593 -87z"/>
</g>
</svg>
