<?xml version="1.0" standalone="no"?>
<!DOCTYPE svg PUBLIC "-//W3C//DTD SVG 20010904//EN"
 "http://www.w3.org/TR/2001/REC-SVG-20010904/DTD/svg10.dtd">
<svg version="1.0" xmlns="http://www.w3.org/2000/svg"
 width="487.000000pt" height="512.000000pt" viewBox="0 0 487.000000 512.000000"
 preserveAspectRatio="xMidYMid meet">

<g transform="translate(0.000000,512.000000) scale(0.100000,-0.100000)"
fill="#000000" stroke="none">
<path d="M2422 4966 c-6 -14 -158 -373 -338 -798 -180 -425 -330 -776 -333
-780 -3 -3 -388 -39 -856 -78 -467 -40 -858 -75 -868 -79 -15 -5 120 -127 641
-579 l660 -572 -14 -63 c-8 -34 -97 -417 -198 -852 -101 -434 -183 -791 -182
-793 2 -1 335 199 742 445 406 246 748 447 759 447 11 0 353 -201 759 -447
407 -246 740 -446 741 -445 3 3 -380 1655 -390 1689 -4 12 174 172 655 590
522 453 658 575 643 580 -10 4 -400 39 -868 79 -467 39 -853 75 -856 78 -3 4
-154 356 -334 782 -180 426 -333 785 -339 798 l-12 23 -12 -25z"/>
</g>
</svg>
