<svg xmlns="http://www.w3.org/2000/svg" xmlns:xlink="http://www.w3.org/1999/xlink" viewBox="0 0 194.29 308.94"><defs><style>.cls-1{fill:none;}.cls-2{isolation:isolate;}.cls-3{fill:#fff;}.cls-4{clip-path:url(#clip-path);}.cls-5{fill:#00662f;}.cls-6{fill:#ff95a9;}.cls-7{fill:#d8dee5;}.cls-13,.cls-8{fill:#231e3f;}.cls-9{fill:#969faa;}.cls-10{fill:#008f30;}.cls-11{fill:#434041;}.cls-12{clip-path:url(#clip-path-2);}.cls-13{opacity:0.35;}.cls-14{fill:#a8a177;opacity:0.6;mix-blend-mode:multiply;}.cls-15{fill:#00fb55;}.cls-16{fill:#00c844;}.cls-17{opacity:0.75;}.cls-18{clip-path:url(#clip-path-3);}.cls-19{fill:#424242;}</style><clipPath id="clip-path"><rect class="cls-1" x="29.74" y="18.89" width="134.81" height="164.43"/></clipPath><clipPath id="clip-path-2"><path class="cls-1" d="M103.57,129.68l1.1,11.17,8.74-.87c-6.54-6.69.74-10.66.74-10.66l-.06-.68Z"/></clipPath><clipPath id="clip-path-3"><path class="cls-1" d="M87.18,31.47l1.35,13.68,10.71-1.06c-8-8.2.91-13.07.91-13.07l-.08-.82Z"/></clipPath></defs><title>reciclador-01</title><g class="cls-2"><g id="Capa_1" data-name="Capa 1"><rect class="cls-3" x="0.12" width="194.04" height="308.94" rx="25.53"/><g class="cls-4"><path class="cls-5" d="M130,208.12a33.87,33.87,0,0,1-1.88,12.77l-62.7,2.85A33.84,33.84,0,1,1,130,208.12Z"/><polygon class="cls-6" points="101.92 131.5 158.77 217.25 174.2 206.15 134.33 113.74 101.92 131.5"/><circle class="cls-7" cx="117.26" cy="121.04" r="18.56" transform="translate(-23.46 213.76) rotate(-79.29)"/><polygon class="cls-7" points="101.92 131.5 130.38 173.23 154.24 160.16 134.34 113.74 101.92 131.5"/><polygon class="cls-5" points="127.18 170.24 129.36 173.79 154.95 159.77 153.13 155.13 127.18 170.24"/><path class="cls-7" d="M130.28,115.51,130,208.12,62.34,211.2,53.61,119A13,13,0,0,1,66,104.79l50.75-2.31A13,13,0,0,1,130.28,115.51Z"/><path class="cls-8" d="M70.18,63H87a0,0,0,0,1,0,0V80.64a0,0,0,0,1,0,0H79.27a9.09,9.09,0,0,1-9.09-9.09V63a0,0,0,0,1,0,0Z" transform="translate(-3.59 4.14) rotate(-2.95)"/><rect class="cls-6" x="80.46" y="78.45" width="23.2" height="25.14" transform="translate(-4.56 4.85) rotate(-2.95)"/><path class="cls-8" d="M111.88,57.31l-2.42.35-2.41-16.41,2.42-.36a8.28,8.28,0,0,1,9.37,7h0A8.29,8.29,0,0,1,111.88,57.31Z"/><path class="cls-8" d="M102,35.89h2.36a10.91,10.91,0,0,1,10.91,10.91v.58a9.86,9.86,0,0,1-9.86,9.86H102a0,0,0,0,1,0,0V35.89A0,0,0,0,1,102,35.89Z" transform="translate(-5.62 16.31) rotate(-8.37)"/><path class="cls-6" d="M110.26,87.61,80.35,89.15,78.62,55.47A18.58,18.58,0,0,1,96.21,36h0a18.58,18.58,0,0,1,19.44,16.7l2.57,25.69A8.44,8.44,0,0,1,110.26,87.61Z"/><path class="cls-1" d="M117.25,68.63l-1.6-16Z"/><path class="cls-8" d="M87.35,39.18h1.22a0,0,0,0,1,0,0V65.46a0,0,0,0,1,0,0H69.18a0,0,0,0,1,0,0v-8.1A18.18,18.18,0,0,1,87.35,39.18Z" transform="translate(-2.58 4.12) rotate(-2.94)"/><path class="cls-6" d="M79.29,68.62l5-.26-.26-5a5.06,5.06,0,0,0-5.31-4.8h0A5.06,5.06,0,0,0,74,63.83h0A5,5,0,0,0,79.29,68.62Z"/><path class="cls-6" d="M104.3,103A11.6,11.6,0,1,1,92.12,92,11.6,11.6,0,0,1,104.3,103Z"/><polygon class="cls-6" points="80.61 136.03 38.97 180.39 19 165.01 51.33 113.47 80.61 136.03"/><polygon class="cls-7" points="80.61 136.02 46.04 172.86 24.49 156.26 51.33 113.47 80.61 136.02"/><polygon class="cls-5" points="48.83 169.88 46.04 172.86 24.49 156.26 25.25 152.02 48.83 169.88"/><circle class="cls-7" cx="67.07" cy="123.32" r="18.56" transform="translate(-73.06 131.77) rotate(-64.91)"/><circle class="cls-6" cx="29.74" cy="171.73" r="12.66" transform="translate(-112.72 71.33) rotate(-45)"/><polygon class="cls-6" points="29.15 159.09 102.13 155.73 103.71 166.7 100.05 167.59 94.65 168.91 32.75 184.03 29.15 159.09"/><polygon class="cls-6" points="103.71 166.7 102.13 155.72 97.22 155.95 100.06 167.59 103.71 166.7"/><circle class="cls-6" cx="115.44" cy="162.54" r="7.42" transform="translate(-67.76 241.17) rotate(-77.84)"/><circle class="cls-6" cx="102.39" cy="161.28" r="5.57" transform="translate(-31.41 24.93) rotate(-12.05)"/><polygon class="cls-6" points="113.69 169.76 101.07 166.7 102.13 155.72 115.1 155.13 113.69 169.76"/><rect class="cls-9" x="60.08" y="149.43" width="14.15" height="1.86" transform="translate(-88.46 96.49) rotate(-46.84)"/><path class="cls-3" d="M113.93,75.43a5.52,5.52,0,0,1-11-.67Z"/><path class="cls-5" d="M81.13,103.7l-1.6.52-2.45,12.67a35.89,35.89,0,0,1,8.29-.45c9.41.5,10.78,6.88,10.78,6.88s1.62-6.72,8.16-9c2.75-1,5.24-1.81,5.24-1.81L105,103h-.69l-8.15,10.76Z"/><rect class="cls-5" x="94.81" y="118.38" width="4.55" height="15.48" transform="translate(-15.55 13.67) rotate(-7.46)"/><circle class="cls-7" cx="96.74" cy="122.33" r="1.49"/><circle class="cls-7" cx="97.68" cy="128.86" r="1.49"/><path class="cls-5" d="M115,136.85l-1.15.11a2.53,2.53,0,0,1-.31-1.23h0l0-.31c0-.44,0-.66,0-.67,0-.17-.15-.25-.39-.23l.25,2.5-1.14.11-.52-5.2,1.41-.14a1.56,1.56,0,0,1,.87.14.75.75,0,0,1,.42.66l.06.63a.84.84,0,0,1-.62.89.8.8,0,0,1,.79.79l0,.57C114.7,136.29,114.81,136.75,115,136.85Zm-1.65-3.28-.09-.86c0-.18-.14-.26-.38-.24l.14,1.41C113.23,133.86,113.33,133.75,113.32,133.57Z"/><path class="cls-5" d="M117.56,136.59l-2.24.22-.51-5.21,2.22-.22.07.67-1.08.11.14,1.41,1-.1.06.63-1,.1.18,1.83,1.09-.11Z"/><path class="cls-5" d="M117.92,136.55l-.51-5.2,1.42-.14a1.4,1.4,0,0,1,.86.17.87.87,0,0,1,.44.74l.31,3.15a.93.93,0,0,1-.26.79,1.34,1.34,0,0,1-.82.35Zm1.38-1.09-.33-3.32c0-.18-.13-.26-.35-.24l.38,3.87C119.22,135.75,119.32,135.65,119.3,135.46Z"/><path class="cls-5" d="M122.11,136.14l-1.15.11-.51-5.2,1.14-.12Z"/><path class="cls-5" d="M122.32,134l1-.1.11,1.2c0,.11.09.17.24.15s.2-.08.19-.2l-.06-.61a1.06,1.06,0,0,0-.45-.63,10.86,10.86,0,0,1-1-.86.91.91,0,0,1-.23-.52l-.06-.58c-.06-.68.35-1.06,1.23-1.15s1.21.19,1.27.81l.09.9-1,.1-.09-1c0-.1-.07-.15-.19-.14s-.19.12-.17.33l0,.33a1.08,1.08,0,0,0,.45.64,8.41,8.41,0,0,1,1,.87,1,1,0,0,1,.26.59l.06.67c.07.69-.34,1.08-1.22,1.17s-1.31-.19-1.38-.82Z"/><path class="cls-10" d="M109.42,134.6l-2,.2a.5.5,0,0,1-.55-.45l0-.26a.64.64,0,0,1,.57-.69h0a.91.91,0,0,1,.43,0,4.77,4.77,0,0,1,1.61.93.13.13,0,0,1-.07.22"/><path class="cls-11" d="M109.44,134.82l-2,.2a.5.5,0,0,0-.45.55l0,.25a.63.63,0,0,0,.69.57h0a1,1,0,0,0,.42-.13,4.72,4.72,0,0,0,1.39-1.23.13.13,0,0,0-.11-.2"/><path class="cls-10" d="M109.94,135.23l.2,2a.51.51,0,0,1-.45.56l-.26,0a.63.63,0,0,1-.69-.56v-.05a.94.94,0,0,1,.05-.44,5,5,0,0,1,.93-1.61.13.13,0,0,1,.22.08"/><path class="cls-11" d="M110.16,135.21l.2,2a.51.51,0,0,0,.55.46l.25,0a.63.63,0,0,0,.57-.69v0a1,1,0,0,0-.13-.42,4.74,4.74,0,0,0-1.23-1.4.13.13,0,0,0-.2.12"/><path class="cls-10" d="M110.05,134.08l-.2-2a.5.5,0,0,1,.45-.55l.25,0a.63.63,0,0,1,.69.57v.05a1.27,1.27,0,0,1,0,.43,4.66,4.66,0,0,1-.94,1.61.12.12,0,0,1-.21-.07"/><path class="cls-11" d="M109.83,134.1l-.2-2a.5.5,0,0,0-.55-.45l-.25,0a.63.63,0,0,0-.57.69v0a1.23,1.23,0,0,0,.14.42,4.58,4.58,0,0,0,1.23,1.39.13.13,0,0,0,.2-.11"/><g class="cls-12"><path class="cls-5" d="M110.48,138.77a4.2,4.2,0,1,1,3.76-4.59,4.21,4.21,0,0,1-3.76,4.59Zm-.81-8.17a4,4,0,1,0,4.38,3.6,4,4,0,0,0-4.38-3.6Z"/></g><polygon class="cls-5" points="111 131.2 112.63 131.55 111.96 130.02 111.73 130.82 111 131.2"/><path class="cls-13" d="M79.54,120.29l4,5.13s7.14-13.36,13.11-11.68c2.08.59-14.56-8.64-14.56-8.64Z"/><path class="cls-5" d="M77.08,116.89l5.49,7.6s7.86-13.14,13.58-10.75-15-9.57-15-9.57Z"/><path class="cls-13" d="M109.34,118,106.19,125S101,111.6,96.67,113.28c-1.51.58,7.3-9.58,7.3-9.58Z"/><path class="cls-5" d="M111.27,113.37,106.86,124s-5.7-13.14-9.85-10.74,7.45-10.55,7.45-10.55l1.18.25Z"/><path class="cls-14" d="M116.05,51.44l-.14,4.46c-.63-3.13-6-2.35-16.74-1.94C92.78,54.22,89,55,88.76,57.66c-1-14.58.67-24.13,11.14-24.13C114.2,33.53,116.44,40.24,116.05,51.44Z"/><path class="cls-5" d="M117,47.22c-1.57-1.21-3.22-.6-10.52-.6a84.06,84.06,0,0,0-23.52,3.27c-6.88,2.07-12,5-13.57,8.42-.71.52-1.82-6.2-1.92-11,0-.27,0-.53,0-.78a22.6,22.6,0,0,1,.71-5.62C70.21,33,76.88,26.26,89,24.33l.12,0c1.36-.21,2.78-.36,4.29-.46.53,0,1-.05,1.56-.05a24.76,24.76,0,0,1,8.39,1.26,5.27,5.27,0,0,1,.51.19,20.8,20.8,0,0,1,11.94,11.32C118.27,42,118.08,47.13,117,47.22Z"/><path class="cls-5" d="M125.19,44.5c-2.51.12-5.31-.13-8.23,0a28.39,28.39,0,0,1,1.09,9.45h0C136.62,54.83,140.51,43.76,125.19,44.5Z"/><path class="cls-5" d="M69.35,58.31C70.87,54.92,76,52,82.92,49.89a84.06,84.06,0,0,1,23.52-3.27c7.3,0,8.94-.61,10.52.6,1.12-.09,1.31-5.2-1.11-10.65A20.82,20.82,0,0,0,103.9,25.25c5.29,3.26,5.8,11.82,6.16,14.52.41,3.07-8.18,3.68-21.46,6.95S69.52,55,69.35,58.31Z"/><path class="cls-15" d="M82.93,49.89C80.69,39.7,76.12,24.71,99.36,25c23.93.26,17.88,23.14,17.88,23.14Z"/><path class="cls-16" d="M129.47,44.64c-6-.15-8.11,2.74-20.83,6.88-9.66,3.15-19.06-.16-25.71-1.63,2.27-2.07,25.44-5.62,38.22-5.72C124.48,44.15,128.91,44.56,129.47,44.64Z"/><path class="cls-3" d="M101.15,40.25l-1.4.14a3,3,0,0,1-.38-1.51h0l0-.39c0-.53-.07-.8-.07-.81,0-.22-.18-.31-.47-.28l.31,3.06-1.4.14-.64-6.38L98.8,34a1.85,1.85,0,0,1,1.06.17.93.93,0,0,1,.52.81l.08.77a1,1,0,0,1-.77,1.09,1,1,0,0,1,1,1l0,.7C100.82,39.57,101,40.14,101.15,40.25Zm-2-4-.1-1c0-.22-.18-.32-.46-.29l.17,1.72C99,36.59,99.15,36.46,99.12,36.23Z"/><path class="cls-3" d="M104.32,39.93l-2.74.27L101,33.82l2.73-.26.08.81-1.32.13.17,1.73,1.19-.12.07.78-1.19.11.22,2.25,1.34-.14Z"/><path class="cls-3" d="M104.77,39.89l-.63-6.38,1.75-.17a1.68,1.68,0,0,1,1,.21,1,1,0,0,1,.54.9l.39,3.86a1.11,1.11,0,0,1-.33,1,1.61,1.61,0,0,1-1,.43Zm1.69-1.34-.41-4.07c0-.22-.16-.32-.43-.29l.47,4.74C106.36,38.9,106.48,38.78,106.46,38.55Z"/><path class="cls-3" d="M109.89,39.38l-1.4.14-.63-6.38,1.4-.14Z"/><path class="cls-3" d="M110.15,36.78l1.28-.13.14,1.46c0,.15.11.21.29.2s.25-.1.23-.25l-.07-.75a1.34,1.34,0,0,0-.55-.77,11.17,11.17,0,0,1-1.22-1.06,1.08,1.08,0,0,1-.29-.63l-.07-.72c-.08-.82.42-1.29,1.5-1.4s1.49.24,1.57,1l.1,1.1-1.27.13-.11-1.18c0-.12-.09-.18-.24-.17s-.23.15-.21.4l.07.41a1.28,1.28,0,0,0,.55.78,11.75,11.75,0,0,1,1.24,1.06,1.3,1.3,0,0,1,.31.74l.08.81c.08.85-.42,1.33-1.5,1.43s-1.61-.23-1.68-1Z"/><path class="cls-3" d="M94.35,37.5l-2.46.24a.63.63,0,0,1-.68-.56l0-.3a.78.78,0,0,1,.7-.85h.05a1.41,1.41,0,0,1,.54.07,5.69,5.69,0,0,1,2,1.14.16.16,0,0,1-.09.27"/><g class="cls-17"><path class="cls-3" d="M94.37,37.76,91.92,38a.62.62,0,0,0-.56.67l0,.31a.77.77,0,0,0,.85.69h.05a1.33,1.33,0,0,0,.52-.17A5.79,5.79,0,0,0,94.52,38a.16.16,0,0,0-.15-.24"/></g><path class="cls-3" d="M95,38.27l.24,2.45a.61.61,0,0,1-.55.68l-.31,0a.78.78,0,0,1-.85-.69v-.06a1.19,1.19,0,0,1,.06-.53,5.94,5.94,0,0,1,1.14-2,.16.16,0,0,1,.27.09"/><g class="cls-17"><path class="cls-3" d="M95.26,38.24l.24,2.46a.61.61,0,0,0,.68.55l.3,0a.78.78,0,0,0,.7-.85v0a1.32,1.32,0,0,0-.16-.51A6,6,0,0,0,95.5,38.1a.15.15,0,0,0-.24.14"/></g><path class="cls-3" d="M95.12,36.85l-.24-2.45a.61.61,0,0,1,.55-.68l.31,0a.79.79,0,0,1,.85.69v.06a1.19,1.19,0,0,1-.06.53,5.94,5.94,0,0,1-1.15,2,.15.15,0,0,1-.26-.1"/><g class="cls-17"><path class="cls-3" d="M94.85,36.88l-.24-2.46a.62.62,0,0,0-.68-.55l-.31,0a.78.78,0,0,0-.69.85v0a1.13,1.13,0,0,0,.16.51A5.79,5.79,0,0,0,94.61,37a.15.15,0,0,0,.24-.14"/></g><g class="cls-18"><path class="cls-3" d="M95.65,42.61A5.15,5.15,0,1,1,100.26,37a5.15,5.15,0,0,1-4.61,5.63Zm-1-10A4.91,4.91,0,1,0,100,37a4.92,4.92,0,0,0-5.37-4.41Z"/></g><polygon class="cls-3" points="96.28 33.33 98.29 33.76 97.47 31.88 97.18 32.86 96.28 33.33"/><ellipse class="cls-6" cx="109.79" cy="153.18" rx="2.43" ry="6.26"/></g><path class="cls-19" d="M47.57,219.12l-2.71-3.9a4.43,4.43,0,0,1-.52,0h-3v3.88H38.87v-13.3h5.47c3.5,0,5.67,1.78,5.67,4.73a4.27,4.27,0,0,1-2.83,4.2l3,4.37Zm-3.34-11.21H41.34v5.3h2.89c2.17,0,3.29-1,3.29-2.66S46.4,207.91,44.23,207.91Z"/><path class="cls-19" d="M62,214.8h-8a3.08,3.08,0,0,0,3.29,2.43,3.62,3.62,0,0,0,2.75-1.1l1.28,1.47a5.16,5.16,0,0,1-4.09,1.65c-3.4,0-5.6-2.19-5.6-5.21a5,5,0,0,1,5.24-5.18,4.94,4.94,0,0,1,5.13,5.24C62.07,214.29,62.05,214.57,62,214.8Zm-8-1.57h5.76a2.76,2.76,0,0,0-2.87-2.47A2.8,2.8,0,0,0,54.05,213.23Z"/><path class="cls-19" d="M63.52,214c0-3,2.28-5.18,5.49-5.18a4.56,4.56,0,0,1,4.33,2.35l-1.83,1.07A2.85,2.85,0,0,0,69,210.87a3.18,3.18,0,0,0,0,6.35,2.85,2.85,0,0,0,2.52-1.41l1.83,1.06A4.62,4.62,0,0,1,69,219.25,5.15,5.15,0,0,1,63.52,214Z"/><path class="cls-19" d="M75.07,205.87a1.44,1.44,0,0,1,1.52-1.42,1.42,1.42,0,0,1,1.52,1.37,1.46,1.46,0,0,1-1.52,1.48A1.45,1.45,0,0,1,75.07,205.87Zm.32,3.1h2.38v10.15H75.39Z"/><path class="cls-19" d="M80.05,214c0-3,2.28-5.18,5.49-5.18a4.56,4.56,0,0,1,4.33,2.35l-1.82,1.07a2.88,2.88,0,0,0-2.53-1.41,3.18,3.18,0,0,0,0,6.35,2.88,2.88,0,0,0,2.53-1.41l1.82,1.06a4.62,4.62,0,0,1-4.33,2.38A5.15,5.15,0,0,1,80.05,214Z"/><path class="cls-19" d="M91.6,205.87a1.45,1.45,0,0,1,1.52-1.42,1.42,1.42,0,0,1,1.52,1.37,1.52,1.52,0,0,1-3,.05Zm.32,3.1H94.3v10.15H91.92Z"/><path class="cls-19" d="M96.58,214c0-3,2.28-5.18,5.49-5.18a4.56,4.56,0,0,1,4.33,2.35l-1.82,1.07a2.88,2.88,0,0,0-2.53-1.41,3.18,3.18,0,0,0,0,6.35,2.88,2.88,0,0,0,2.53-1.41l1.82,1.06a4.62,4.62,0,0,1-4.33,2.38A5.15,5.15,0,0,1,96.58,214Z"/><path class="cls-19" d="M108.36,205h2.37v14.1h-2.37Z"/><path class="cls-19" d="M122.34,213.17v6H120.1v-1.24a3.6,3.6,0,0,1-3.19,1.37c-2.32,0-3.78-1.27-3.78-3s1.14-3,4.21-3H120V213c0-1.39-.84-2.21-2.53-2.21a5,5,0,0,0-3.08,1l-.93-1.73a7.16,7.16,0,0,1,4.29-1.25C120.65,208.86,122.34,210.24,122.34,213.17ZM120,215.94v-1.18h-2.45c-1.62,0-2.06.61-2.06,1.35s.73,1.41,1.94,1.41A2.59,2.59,0,0,0,120,215.94Z"/><path class="cls-19" d="M135.41,205v14.1h-2.28V217.8a4.16,4.16,0,0,1-3.36,1.45,5.2,5.2,0,0,1,0-10.39,4.16,4.16,0,0,1,3.27,1.36V205Zm-2.33,9a3,3,0,1,0-3,3.18A3,3,0,0,0,133.08,214Z"/><path class="cls-19" d="M137.69,214a5.41,5.41,0,1,1,5.4,5.21A5.1,5.1,0,0,1,137.69,214Zm8.42,0a3,3,0,1,0-3,3.18A3,3,0,0,0,146.11,214Z"/><path class="cls-19" d="M156.65,208.86v2.26a2.8,2.8,0,0,0-.55-.06c-1.8,0-2.94,1.06-2.94,3.14v4.92h-2.38V209h2.27v1.48A4,4,0,0,1,156.65,208.86Z"/><path class="cls-19" d="M69.78,227.82v14.1H67.51V240.6a4.2,4.2,0,0,1-3.37,1.45,5.2,5.2,0,0,1,0-10.39A4.14,4.14,0,0,1,67.41,233v-5.21Zm-2.33,9a3,3,0,1,0-3,3.18A3,3,0,0,0,67.45,236.84Z"/><path class="cls-19" d="M82.4,237.6h-8A3.07,3.07,0,0,0,77.73,240a3.62,3.62,0,0,0,2.75-1.1l1.27,1.47a5.13,5.13,0,0,1-4.08,1.65c-3.4,0-5.6-2.19-5.6-5.21a5,5,0,0,1,5.24-5.18,5,5,0,0,1,5.13,5.24C82.44,237.09,82.42,237.38,82.4,237.6Zm-8-1.57h5.76a2.76,2.76,0,0,0-2.87-2.47A2.8,2.8,0,0,0,74.42,236Z"/><path class="cls-19" d="M102,238.31c0,2.28-1.79,3.61-5.21,3.61H90.19v-13.3h6.23c3.19,0,4.9,1.35,4.9,3.46A3.18,3.18,0,0,1,99.61,235,3.28,3.28,0,0,1,102,238.31Zm-9.35-7.75v3.66h3.5c1.71,0,2.68-.61,2.68-1.82s-1-1.84-2.68-1.84Zm6.86,7.5c0-1.33-1-1.92-2.87-1.92h-4V240h4C98.51,240,99.52,239.39,99.52,238.06Z"/><path class="cls-19" d="M112.92,236v5.95h-2.25v-1.24a3.6,3.6,0,0,1-3.19,1.37c-2.32,0-3.78-1.27-3.78-3s1.14-3,4.22-3h2.62v-.15c0-1.39-.84-2.21-2.53-2.21a5,5,0,0,0-3.07,1l-.93-1.73a7.16,7.16,0,0,1,4.29-1.25C111.22,231.66,112.92,233,112.92,236Zm-2.38,2.77v-1.17h-2.45c-1.62,0-2,.6-2,1.34s.72,1.41,1.94,1.41A2.58,2.58,0,0,0,110.54,238.74Z"/><path class="cls-19" d="M114.8,240.91l.91-1.81a6.8,6.8,0,0,0,3.53,1c1.5,0,2.13-.42,2.13-1.12,0-1.94-6.27-.11-6.27-4.16,0-1.92,1.73-3.17,4.47-3.17a8.14,8.14,0,0,1,3.8.87l-.92,1.81a5.53,5.53,0,0,0-2.9-.76c-1.45,0-2.13.47-2.13,1.14,0,2.05,6.27.22,6.27,4.19,0,1.9-1.75,3.14-4.6,3.14A8.1,8.1,0,0,1,114.8,240.91Z"/><path class="cls-19" d="M135.24,237.6h-8a3.07,3.07,0,0,0,3.29,2.43,3.62,3.62,0,0,0,2.75-1.1l1.27,1.47a5.13,5.13,0,0,1-4.08,1.65c-3.4,0-5.6-2.19-5.6-5.21a5,5,0,0,1,5.24-5.18,5,5,0,0,1,5.13,5.24C135.28,237.09,135.26,237.38,135.24,237.6Zm-8-1.57H133a2.76,2.76,0,0,0-2.87-2.47A2.8,2.8,0,0,0,127.26,236Z"/></g></g></svg>