<?xml version="1.0" encoding="utf-8"?>
<!-- Generator: Adobe Illustrator 23.0.4, SVG Export Plug-In . SVG Version: 6.00 Build 0)  -->
<svg version="1.1" id="Layer_1" xmlns="http://www.w3.org/2000/svg" xmlns:xlink="http://www.w3.org/1999/xlink" x="0px" y="0px"
	 viewBox="0 0 500 500" style="enable-background:new 0 0 500 500;" xml:space="preserve">
<style type="text/css">
	.st0{fill:#231E3F;}
	.st1{fill:#FF95A9;}
	.st2{fill:none;}
	.st3{fill:#FFFFFF;}
	.st4{fill:#7B7031;}
	.st5{opacity:0.6;fill:#A8A177;}
	.st6{fill:#00662F;}
	.st7{fill:#00C844;}
	.st8{opacity:0.75;}
	.st9{clip-path:url(#SVGID_2_);}
</style>
<g>
	<g>
		<path class="st0" d="M196.98,364.65l-80.74,4.16c-5.01,0.26-9.29-3.6-9.54-8.61l-4.38-85.03l89.82-4.62L196.98,364.65z"/>
		
			<rect x="153.25" y="235.15" transform="matrix(0.9987 -0.0514 0.0514 0.9987 -15.246 11.4547)" class="st1" width="123.7" height="134.04"/>
		<g>
			<path class="st0" d="M327.01,242.61l-12.9,1.9L301.23,157l12.9-1.9c24.04-3.54,46.41,13.19,49.96,37.35l0,0
				C367.65,216.62,351.05,239.08,327.01,242.61z"/>
			<path class="st0" d="M343.19,237.93l-60.24,8.86l-16.57-112.61l59.2-8.71c5.96-0.88,11.5,3.24,12.38,9.2l13.54,92.07
				C352.3,232.12,348.57,237.13,343.19,237.93z"/>
		</g>
		<path class="st1" d="M318.36,404.17l-115.87,5.96l-11.23,0.58c-17.87,0.92-33.1-12.82-34.02-30.69l-1.63-31.64l-5.95-115.56
			c-2.81-54.62,39.19-101.17,93.8-103.98h0c52.76-2.72,98.36,36.46,103.62,89.03l13.71,136.91
			C363.36,380.34,344.02,402.85,318.36,404.17z"/>
		<path class="st2" d="M355.61,302.97l-8.52-85.12L355.61,302.97z"/>
		<path class="st0" d="M113.96,147.8l85.12-4.38l7.2,139.91l-103.28,5.32l-6.27-121.76C96.23,156.87,103.94,148.32,113.96,147.8z"/>
		<path class="st1" d="M153.26,302.95l26.95-1.39l-1.39-26.95c-0.77-14.88-13.45-26.32-28.33-25.56l0,0
			c-14.88,0.77-26.33,13.45-25.56,28.33l0,0C125.7,292.27,138.38,303.71,153.26,302.95z"/>
		<path class="st3" d="M337.91,339.24c-0.99,16.21-14.93,28.56-31.15,27.57c-16.21-0.99-28.56-14.93-27.57-31.15L337.91,339.24z"/>
		<g>
			<path class="st4" d="M162.45,231.96"/>
			<path class="st4" d="M198.66,225"/>
			<path class="st5" d="M349.24,211.36l-0.77,23.74c-3.35-16.64-32.22-12.52-89.24-10.33c-34.06,1.42-54.33,5.73-55.49,19.74
				c-5.08-77.76,3.56-128.65,59.41-128.65C339.39,115.86,351.31,151.64,349.24,211.36z"/>
			<g>
				<path class="st6" d="M354.11,188.85c-8.41-6.45-17.18-3.23-56.11-3.23c-44.12,0-89.15,6.45-125.38,17.44
					c-36.66,11.07-64.26,26.81-72.37,44.9c-3.79,2.79-9.68-33.04-10.24-58.81c-0.09-1.44-0.09-2.79-0.09-4.14
					c0-10.16,1.26-20.23,3.79-29.95c11.12-42.07,46.69-77.95,111.52-88.23c0.26,0,0.52-0.13,0.65-0.13
					c7.24-1.13,14.82-1.92,22.84-2.44c2.83-0.17,5.58-0.26,8.33-0.26c16.96-0.22,31.82,2.31,44.73,6.71c0.92,0.31,1.83,0.61,2.7,1
					c33.18,12.12,53.32,36.84,63.69,60.38C361.08,161.12,360.04,188.37,354.11,188.85z"/>
				<path class="st6" d="M397.93,174.33c-13.38,0.65-28.29-0.71-43.83-0.23c4.74,15.08,3.52,31.74,2.9,49.9l2.91,0.47
					C458.91,229.43,479.63,170.39,397.93,174.33z"/>
				<path class="st6" d="M100.25,247.97c8.11-18.09,35.7-33.83,72.37-44.9c36.23-10.99,81.26-17.44,125.38-17.44
					c38.93,0,47.69-3.23,56.11,3.23c5.93-0.48,6.98-27.73-5.93-56.76c-10.38-23.54-30.52-48.26-63.69-60.38
					c28.16,17.39,30.91,63.04,32.83,77.42c2.18,16.35-43.59,19.62-114.44,37.06S101.16,230.18,100.25,247.97z"/>
			</g>
			<path class="st6" d="M172.65,203.08c-11.94-54.34-36.28-134.23,87.61-132.87c127.6,1.4,95.35,123.39,95.35,123.39L172.65,203.08z
				"/>
			<path class="st7" d="M420.78,175.09c-32.28-0.8-43.23,14.61-111.07,36.69c-51.47,16.78-101.59-0.86-137.06-8.7
				c12.12-11.04,135.65-29.99,203.8-30.47C394.18,172.49,417.81,174.65,420.78,175.09z"/>
		</g>
		<g>
			<g>
				<g>
					<path class="st3" d="M269.79,151.71l-7.47,0.74c-0.9-0.88-1.58-3.58-2.02-8.08l0-0.05l-0.15-2.04
						c-0.23-2.83-0.35-4.28-0.36-4.35c-0.11-1.15-0.95-1.65-2.49-1.5l1.61,16.31l-7.47,0.74l-3.36-34l9.22-0.91
						c2.1-0.21,3.98,0.09,5.63,0.9c1.65,0.81,2.58,2.26,2.79,4.34l0.4,4.08c0.26,2.64-1.1,4.58-4.09,5.82
						c3.17,0.42,4.9,2.14,5.2,5.16l0.25,3.73C268.02,148.04,268.79,151.08,269.79,151.71z M259,130.27l-0.55-5.61
						c-0.12-1.19-0.94-1.71-2.48-1.56l0.91,9.2C258.41,132.15,259.12,131.47,259,130.27z"/>
				</g>
				<g>
					<path class="st3" d="M286.72,149.99l-14.61,1.44l-3.36-34l14.51-1.44l0.43,4.36l-7.04,0.7l0.91,9.2l6.35-0.63l0.41,4.13
						l-6.35,0.63l1.18,11.95l7.14-0.71L286.72,149.99z"/>
				</g>
				<g>
					<path class="st3" d="M289.1,149.75l-3.36-34l9.32-0.92c2.03-0.2,3.89,0.17,5.58,1.11c1.69,0.94,2.65,2.55,2.88,4.83l2.04,20.58
						c0.21,2.12-0.37,3.84-1.73,5.16c-1.37,1.32-3.15,2.1-5.35,2.31L289.1,149.75z M298.09,142.64l-2.15-21.69
						c-0.12-1.19-0.89-1.71-2.31-1.57l2.5,25.27C297.56,144.51,298.21,143.84,298.09,142.64z"/>
				</g>
				<g>
					<path class="st3" d="M316.42,147.05l-7.47,0.74l-3.36-34l7.47-0.74L316.42,147.05z"/>
				</g>
				<g>
					<path class="st3" d="M317.8,133.17l6.78-0.67l0.77,7.8c0.08,0.77,0.58,1.12,1.53,1.02c0.91-0.09,1.32-0.52,1.25-1.3l-0.4-4.03
						c-0.12-1.23-1.09-2.6-2.9-4.09c-3.48-2.77-5.66-4.64-6.54-5.63c-0.88-0.98-1.38-2.11-1.51-3.37l-0.38-3.82
						c-0.44-4.41,2.23-6.9,7.99-7.47c5.16-0.51,7.94,1.24,8.34,5.26l0.58,5.88l-6.78,0.67l-0.62-6.26
						c-0.07-0.68-0.48-0.98-1.24-0.91c-0.89,0.09-1.26,0.79-1.14,2.1l0.36,2.19c0.13,1.26,1.11,2.65,2.96,4.16
						c3.42,2.68,5.61,4.57,6.57,5.67c0.96,1.1,1.52,2.4,1.67,3.9l0.43,4.34c0.45,4.52-2.22,7.07-8,7.64
						c-5.57,0.55-8.56-1.23-8.97-5.34L317.8,133.17z"/>
				</g>
			</g>
			<g>
				<g>
					<g>
						<path class="st3" d="M233.53,137.01l-13.08,1.29c-1.81,0.18-3.43-1.15-3.61-2.96l-0.16-1.64c-0.22-2.27,1.43-4.29,3.7-4.51
							l0.29-0.03c0.96-0.1,1.93,0.02,2.85,0.34c2.34,0.82,6.97,2.74,10.52,6.09C234.53,136.07,234.22,136.94,233.53,137.01"/>
					</g>
					<g class="st8">
						<path class="st3" d="M233.67,138.43l-13.08,1.29c-1.81,0.18-3.14,1.8-2.96,3.61l0.16,1.64c0.22,2.27,2.24,3.92,4.51,3.7
							l0.29-0.03c0.96-0.1,1.89-0.4,2.72-0.89c2.14-1.26,6.3-4.05,9.12-8.04C234.84,139.14,234.36,138.36,233.67,138.43"/>
					</g>
					<g>
						<path class="st3" d="M236.96,141.13l1.29,13.08c0.18,1.81-1.15,3.43-2.96,3.61l-1.64,0.16c-2.27,0.22-4.29-1.43-4.51-3.7
							l-0.03-0.29c-0.1-0.96,0.02-1.93,0.34-2.85c0.82-2.34,2.74-6.97,6.09-10.51C236.03,140.12,236.89,140.43,236.96,141.13"/>
					</g>
					<g class="st8">
						<path class="st3" d="M238.38,140.99l1.29,13.08c0.18,1.81,1.8,3.14,3.61,2.96l1.64-0.16c2.27-0.22,3.92-2.24,3.7-4.51
							l-0.03-0.29c-0.1-0.96-0.4-1.89-0.89-2.72c-1.26-2.14-4.05-6.3-8.04-9.12C239.1,139.82,238.31,140.29,238.38,140.99"/>
					</g>
					<g>
						<path class="st3" d="M237.65,133.58l-1.29-13.08c-0.18-1.81,1.15-3.43,2.96-3.61l1.64-0.16c2.27-0.22,4.29,1.43,4.51,3.7
							l0.03,0.29c0.1,0.96-0.02,1.93-0.34,2.85c-0.82,2.34-2.74,6.97-6.09,10.51C238.58,134.58,237.72,134.27,237.65,133.58"/>
					</g>
					<g class="st8">
						<path class="st3" d="M236.22,133.72l-1.29-13.08c-0.18-1.81-1.8-3.14-3.61-2.96l-1.64,0.16c-2.27,0.22-3.92,2.25-3.7,4.51
							l0.03,0.29c0.1,0.96,0.4,1.89,0.89,2.72c1.26,2.14,4.05,6.3,8.04,9.12C235.51,134.89,236.29,134.41,236.22,133.72"/>
					</g>
				</g>
				<g>
					<defs>
						<path id="SVGID_1_" d="M195.33,104.89l7.21,72.91l57.07-5.65c-42.73-43.72,4.86-69.65,4.86-69.65l-0.44-4.41L195.33,104.89z"
							/>
					</defs>
					<clipPath id="SVGID_2_">
						<use xlink:href="#SVGID_1_"  style="overflow:visible;"/>
					</clipPath>
					<g class="st9">
						<path class="st3" d="M240.46,164.27c-15.05,1.49-28.51-9.55-30-24.6c-1.49-15.05,9.55-28.51,24.6-30
							c15.05-1.49,28.51,9.55,30,24.6C266.54,149.32,255.51,162.78,240.46,164.27L240.46,164.27z M235.18,110.9
							c-14.37,1.42-24.91,14.27-23.49,28.65c1.42,14.37,14.27,24.91,28.65,23.49c14.37-1.42,24.91-14.27,23.49-28.65
							C262.4,120.02,249.55,109.48,235.18,110.9L235.18,110.9z"/>
					</g>
				</g>
			</g>
			<g>
				<polygon class="st3" points="243.84,114.8 254.54,117.1 250.16,107.07 248.63,112.29 				"/>
			</g>
		</g>
	</g>
</g>
</svg>
