<?xml version="1.0" encoding="utf-8"?>
<!-- Generator: Adobe Illustrator 23.0.4, SVG Export Plug-In . SVG Version: 6.00 Build 0)  -->
<svg version="1.1" id="Layer_1" xmlns="http://www.w3.org/2000/svg" xmlns:xlink="http://www.w3.org/1999/xlink" x="0px" y="0px"
	 viewBox="0 0 500 500" style="enable-background:new 0 0 500 500;" xml:space="preserve">
<style type="text/css">
	.st0{fill:#00A6FF;}
	.st1{fill:#FF95A9;}
	.st2{fill:#13CE66;}
	.st3{fill:#343F4B;}
	.st4{fill:none;}
	.st5{fill:#FFFFFF;}
	.st6{fill:#007CB2;}
</style>
<g>
	<g>
		<g>
			<path class="st0" d="M311.8,142.38c-7.54-7.54-39.6-9.43-49.98-10.37c-0.94,0-1.89,0-2.83,0.94c-0.94,0.94-1.89,2.83-1.89,3.77
				v84.86c0,2.83,1.89,4.71,4.71,4.71h28.29c1.89,0,3.77-0.94,4.71-2.83c0-2.83,16.97-52.8,18.86-77.32
				C313.68,145.21,313.68,143.33,311.8,142.38z"/>
		</g>
	</g>
	<g>
		<g>
			<path class="st1" d="M413.88,166.21c-9.35-3.09-17.72-7.1-25.18-10.14c-16.75-8.02-24.4-4.46-39.9,10.2
				c-6.78,6.41-11.76,15.71-10.92,19.5c-0.03,0.94-0.03,0.94,1.83,1.94c4.66,2.02,11.23,3.15,18.12-7.04
				c0.97-0.92,1.94-1.83,3.82-1.78c2.83,0.08,3.8-0.84,6.65-1.7c1.91-0.89,3.82-1.78,6.68-2.64c0.94,0.03,0.94,0.03,1.89,0.05
				c0.94,0.03,2.8,1.02,3.74,1.05c4.58,4.85,12.88,11.68,21.15,19.46c12.9,10.74,25.78,22.42,32.14,31.09l0.94,0.03
				C428.77,207.19,418.35,174.82,413.88,166.21z"/>
		</g>
	</g>
	<g>
		<g>
			<path class="st2" d="M478.7,141.44c-36.77,0-57.52,9.43-58.46,9.43c-0.94,0.94-1.89,1.89-2.83,2.83c0,0.94,0,2.83,0.94,3.77
				c5.66,9.43,24.52,61.29,27.35,74.49c0.94,1.89,2.83,3.77,4.71,3.77h28.29c2.83,0,4.71-1.89,4.71-4.71v-84.86
				C483.41,143.33,481.53,141.44,478.7,141.44z"/>
		</g>
	</g>
	<g>
		<g>
			<path class="st1" d="M427.03,235.44c-3.53-8.59-19.21-21.29-33.03-33c-7.35-6.81-14.74-12.68-20.26-17.55
				c-0.97,0.92-2.85,0.86-2.88,1.81c-2.85,0.86-3.82,1.78-7.59,1.67c-7.8,9.21-17.34,12.72-27.6,8.66
				c-4.69-1.07-7.41-4.92-8.24-8.72c-1.62-9.48,7.23-22.44,14.02-28.85l-18.85-0.53c-4.3,18.75-11.59,43.07-16.67,56.13
				c3.66,3.88,7.3,8.69,10.08,10.66c17.49,15.58,37.8,31.25,41.49,34.18c2.77,1.96,8.38,4.01,11.2,4.09
				c0.94,0.03,1.89,0.05,2.83,0.08l-14.66-15.5c-1.83-1.94-1.75-4.77,0.19-6.6c1.94-1.83,4.77-1.75,6.6,0.19l18.32,19.38
				c1.83,1.94,3.74,1.05,5.63,1.1c2.85-0.86,3.85-2.72,4.87-5.52l-21.07-22.29c-1.83-1.94-1.75-4.77,0.19-6.6
				c1.94-1.83,4.77-1.75,6.6,0.19l22.9,24.23c0.92,0.97,4.69,1.07,7.54,0.21c0.97-0.92,2.88-1.81,3.88-3.66l-25.65-27.13
				c-1.83-1.94-1.75-4.77,0.19-6.6c1.94-1.83,4.77-1.75,6.6,0.19l26.57,28.1c1.86,1,3.77,0.11,5.68-0.78
				C426.84,242.04,428.81,239.26,427.03,235.44z"/>
		</g>
	</g>
</g>
<g>
	<path class="st0" d="M272.51,436.4H9.8c-2.4-25.33,16.88-70.26,42.3-71.42l173.87-7.91C251.39,355.92,272.6,410.96,272.51,436.4z"
		/>
	<path class="st3" d="M125.9,280.72l-48.65,2.5c-5.01,0.26-9.29-3.6-9.54-8.61l-2.65-51.4l57.73-2.97L125.9,280.72z"/>
	
		<rect x="101.82" y="274.73" transform="matrix(0.9987 -0.0514 0.0514 0.9987 -16.1464 7.6964)" class="st1" width="79.5" height="86.15"/>
	<path class="st1" d="M203.91,306.12l-102.48,5.27l-5.94-115.4c-1.81-35.1,25.18-65.02,60.29-66.83h0
		c33.91-1.75,63.21,23.43,66.6,57.22l8.81,87.99C232.83,290.8,220.4,305.27,203.91,306.12z"/>
	<path class="st4" d="M227.85,241.07l-5.48-54.7L227.85,241.07z"/>
	<path class="st3" d="M78.07,122.28l48.22-2.48l5.59,108.66l-66.38,3.42l-4.66-90.51C60.33,131.34,68.04,122.79,78.07,122.28z"/>
	<path class="st1" d="M97.8,241.06l17.32-0.89l-0.89-17.32c-0.49-9.56-8.64-16.92-18.21-16.43l0,0
		c-9.56,0.49-16.92,8.64-16.43,18.21l0,0C80.09,234.2,88.24,241.55,97.8,241.06z"/>
	<path class="st3" d="M230.54,168.41l-92.55,3.38c-26.8,1.38-58.42,10.43-58.42-46.1c0-12.77,7.14-25.7,54.6-25.7
		c12.77,0,25.04,10.57,25.7,23.32c0.07,1.33,1.21,2.36,2.54,2.29l65.75-3.38L230.54,168.41z"/>
	<path class="st3" d="M204.81,146.58l-32.71,1.68c-12.75,0.66-23.62-9.15-24.28-21.9c-0.66-12.75,9.15-23.62,21.9-24.28l32.71-1.68
		c12.75-0.66,23.62,9.15,24.28,21.9C227.37,135.06,217.57,145.93,204.81,146.58z"/>
	<path class="st1" d="M183.49,358.77c1.13,21.92-15.73,40.61-37.65,41.74c-21.92,1.13-40.61-15.73-41.74-37.65
		c-1.13-21.92,15.73-40.61,37.65-41.74C163.67,319.99,182.36,336.85,183.49,358.77z"/>
	<path class="st5" d="M217.39,262.36c0.38,9.85-7.3,18.14-17.15,18.53c-9.85,0.38-18.14-7.3-18.53-17.15L217.39,262.36z"/>
	<polygon class="st0" points="104.09,362.86 145.83,400.51 183.49,358.77 209.38,360.81 209.38,420.65 85.12,420.65 85.12,363.48 	
		"/>
	<path class="st6" d="M102.31,357.55l-5.61,1.8l-8.57,44.41c0,0,12.13-2.48,29.07-1.57c32.98,1.77,37.78,24.13,37.78,24.13
		s5.66-23.55,28.61-31.63c9.62-3.39,18.34-6.35,18.34-6.35l-15.96-33.33h-2.43l-28.57,37.73L102.31,357.55z"/>
	<path class="st6" d="M88.13,403.76l19.25,26.64c0,0,27.53-46.05,47.59-37.66c20.06,8.38-52.66-33.55-52.66-33.55L88.13,403.76z"/>
	<path class="st6" d="M207.96,391.45l-15.43,37.32c0,0-19.98-46.05-34.54-37.66c-14.56,8.38,26.1-36.97,26.1-36.97l4.13,0.87
		L207.96,391.45z"/>
	<rect x="149.9" y="416.61" class="st6" width="6.3" height="20.14"/>
</g>
</svg>
