<svg id="Layer_1" data-name="Layer 1" xmlns="http://www.w3.org/2000/svg" xmlns:xlink="http://www.w3.org/1999/xlink" viewBox="0 0 750 1334"><defs><style>.cls-1{fill:none;}.cls-2{fill:#0e6e33;}.cls-3{clip-path:url(#clip-path);}.cls-4{opacity:0.18;}.cls-10,.cls-5,.cls-9{fill:#fff;}.cls-10,.cls-6{opacity:0.17;}.cls-7{clip-path:url(#clip-path-2);}.cls-8{clip-path:url(#clip-path-3);}.cls-9{opacity:0.21;}.cls-11{fill:url(#linear-gradient);}.cls-12{fill:url(#linear-gradient-2);}.cls-13{fill:#c5e4ac;}.cls-14{fill:#a6d56b;}.cls-15{fill:#83a11d;}.cls-16{fill:#003c19;}.cls-17{fill:url(#linear-gradient-3);}</style><clipPath id="clip-path"><rect class="cls-1" x="-0.96" y="-0.07" width="751.93" height="1334.14"/></clipPath><clipPath id="clip-path-2"><rect class="cls-1" x="-0.96" y="-0.07" width="751.2" height="904.3"/></clipPath><clipPath id="clip-path-3"><polygon class="cls-1" points="748.28 708.11 3 708.11 3 -2.12 526.45 -15.49 651.06 147.95 664.68 280.88 758.13 288.39 748.28 708.11"/></clipPath><linearGradient id="linear-gradient" x1="812.94" y1="-87.49" x2="1101.56" y2="-87.49" gradientTransform="translate(232.94 1933.02) rotate(-90)" gradientUnits="userSpaceOnUse"><stop offset="0.1" stop-color="#0e6e33"/><stop offset="0.34" stop-color="#0e6e33" stop-opacity="0.77"/><stop offset="0.84" stop-color="#0e6e33" stop-opacity="0.19"/><stop offset="1" stop-color="#0e6e33" stop-opacity="0"/></linearGradient><linearGradient id="linear-gradient-2" x1="895.39" y1="-87.49" x2="1248.79" y2="-87.49" gradientTransform="matrix(-1, 0, 0, 1, 1717.11, 1005.05)" xlink:href="#linear-gradient"/><linearGradient id="linear-gradient-3" x1="-1432.84" y1="-2188.34" x2="-818.71" y2="-2188.34" gradientTransform="translate(2565.26 -120.19) rotate(-90)" gradientUnits="userSpaceOnUse"><stop offset="0" stop-color="#0e5133"/><stop offset="1" stop-color="#0e6e33" stop-opacity="0"/></linearGradient></defs><title>APP REDIS_fondo_fondo</title><rect class="cls-2" x="0.96" y="-0.07" width="750" height="1333.02"/><g class="cls-3"><g class="cls-4"><path class="cls-5" d="M-166.55,377.88a561.6,561.6,0,0,1,34.63-239.13l3.36,1.27A555.22,555.22,0,0,0,642.3,831.46a555.21,555.21,0,0,0,122-905.69A555.24,555.24,0,0,0,272.43-206l-.77-3.52A558.81,558.81,0,0,1,944.54,411.11,558.81,558.81,0,0,1-73.28,647.91,561,561,0,0,1-164.84,396.6Q-165.86,387.26-166.55,377.88Z"/></g><g class="cls-6"><path class="cls-5" d="M-322,488A688.31,688.31,0,0,1-279.6,195l4.12,1.56A680.39,680.39,0,0,0,352,1117.65,680.4,680.4,0,0,0,818.7-66,680.46,680.46,0,0,0,215.91-227.47l-.94-4.3A684.8,684.8,0,0,1,919.34,833.66a684.82,684.82,0,0,1-884.6,205.81A684.82,684.82,0,0,1-319.95,511Q-321.18,499.51-322,488Z"/></g><g class="cls-6"><g class="cls-7"><path class="cls-5" d="M-66.1,353.45A450.19,450.19,0,0,1-38.35,161.81l2.69,1a444.94,444.94,0,0,0,779,415A445,445,0,0,0,285.69-114.44l-.62-2.81A447.83,447.83,0,0,1,745.69,579.48a447.82,447.82,0,0,1-810.42-211C-65.28,363.46-65.73,358.45-66.1,353.45Z"/><g class="cls-8"><path class="cls-5" d="M577.05,627.32l-1.75-3.16A402,402,0,0,0,647.62-29.23,402.06,402.06,0,0,0,46.34,494.36l-3,2a405.66,405.66,0,1,1,533.71,131Z"/><path class="cls-5" d="M517.46-20.86A317.77,317.77,0,0,0,123.38,467.68a317.8,317.8,0,0,0,271.1,102.87l-.32-2.81A315,315,0,0,1,121.55,48.09a314.89,314.89,0,0,1,393-67.34v-1.61Z"/><path class="cls-5" d="M639.23,104.41A319.13,319.13,0,0,0,537.3-8.49q-5.35-3.61-10.85-7H521q7.47,4.47,14.7,9.35A314.92,314.92,0,0,1,674.07,245.74l2.83-.08A319.37,319.37,0,0,0,639.23,104.41Z"/></g></g></g><path class="cls-9" d="M588.77,636.63l-31.29,3.79c-.82.06-1.44-.59-1.19-1.24l10.58-27.11a1.24,1.24,0,0,1,2.11-.13l6.55,10.95a17.51,17.51,0,0,0,5.2,5.42l8.66,6.65C590.19,635.49,589.79,636.56,588.77,636.63Z"/><path class="cls-9" d="M53.72,480.83l9.41,30.07c.21.8-.32,1.53-1,1.4l-28.58-5.47a1.24,1.24,0,0,1-.51-2.06l9.57-8.43a17.56,17.56,0,0,0,4.39-6.1l5-9.73C52.34,479.64,53.46,479.83,53.72,480.83Z"/><path class="cls-10" d="M391.56,560,409,565.82a.59.59,0,0,1,.32.95L396.9,578.36a.72.72,0,0,1-1.14-.46l-.7-7.4a10.17,10.17,0,0,0-1.37-4.16l-2.88-5.67C390.53,560.19,391,559.73,391.56,560Z"/><rect class="cls-11" x="-233.82" y="773.25" width="758.54" height="288.62" transform="translate(1063.01 772.11) rotate(90)"/><polygon class="cls-12" points="397.05 1296.83 517.25 693.02 750.45 538.29 750.45 1296.83 397.05 1296.83"/><rect class="cls-13" x="483.05" y="1305.01" width="266.83" height="29.06"/><path class="cls-14" d="M315.73,1305H571.5a11.06,11.06,0,0,1,11.06,11.06V1323a11.06,11.06,0,0,1-11.06,11.06H315.73a0,0,0,0,1,0,0V1305a0,0,0,0,1,0,0Z"/><path class="cls-15" d="M148.42,1305H404.19a11.06,11.06,0,0,1,11.06,11.06V1323a11.06,11.06,0,0,1-11.06,11.06H148.42a0,0,0,0,1,0,0V1305a0,0,0,0,1,0,0Z"/><path class="cls-16" d="M.26,1305H204.19a11.06,11.06,0,0,1,11.06,11.06V1323a11.06,11.06,0,0,1-11.06,11.06H.26a0,0,0,0,1,0,0V1305A0,0,0,0,1,.26,1305Z"/><rect class="cls-17" x="3" y="698.52" width="747.83" height="614.13"/></g></svg>