<svg id="Layer_1" data-name="Layer 1" xmlns="http://www.w3.org/2000/svg" viewBox="0 0 580.21 281.41"><defs><style>.cls-1{fill:#fff;}.cls-2{fill:none;stroke:#fff;stroke-miterlimit:10;}.cls-3{fill:#a7d16c;}</style></defs><title>REDIS</title><path class="cls-1" d="M77.5,151.22H71.77V167H50.63V104.29H80.82c17.46,0,28.57,9.13,28.57,23.64,0,9-4.3,15.86-11.82,19.71L110.73,167H88.16Zm2-30.63h-7.7v14.69h7.7c5.83,0,8.6-2.78,8.6-7.35S85.3,120.59,79.47,120.59Z"/><path class="cls-1" d="M169.47,151V167H117.35V104.29h51v15.94H138.13v7.35h26.51V142.8H138.13V151Z"/><path class="cls-1" d="M175.1,135.64c0-19.26,14.78-32.78,34.93-32.78,12.27,0,21.95,4.47,28.13,12.53l-13.35,11.92c-3.67-4.66-8.06-7.35-13.7-7.35-8.78,0-14.69,6.09-14.69,15.68s5.91,15.67,14.69,15.67c5.64,0,10-2.69,13.7-7.34l13.35,11.91C232,163.94,222.3,168.42,210,168.42,189.88,168.42,175.1,154.89,175.1,135.64Z"/><path class="cls-1" d="M244.23,104.29h21.14V167H244.23Z"/><path class="cls-1" d="M273.07,135.64c0-19.26,14.78-32.78,34.93-32.78,12.27,0,21.94,4.47,28.12,12.53l-13.35,11.92c-3.67-4.66-8.06-7.35-13.7-7.35-8.78,0-14.69,6.09-14.69,15.68s5.91,15.67,14.69,15.67c5.64,0,10-2.69,13.7-7.34l13.35,11.91c-6.18,8.06-15.85,12.54-28.12,12.54C287.85,168.42,273.07,154.89,273.07,135.64Z"/><path class="cls-1" d="M342.2,104.29h21.13v46.3h28.31V167H342.2Z"/><path class="cls-1" d="M441.06,156.06H417.24L413,167H391.54l27.4-62.69h20.78L467.13,167H445.27Zm-5.82-15.23-6.09-15.76-6.09,15.76Z"/><path class="cls-1" d="M497.39,151.22h-5.74V167H470.52V104.29H500.7c17.47,0,28.57,9.13,28.57,23.64,0,9-4.3,15.86-11.82,19.71L530.61,167H508Zm2-30.63h-7.71v14.69h7.71c5.82,0,8.6-2.78,8.6-7.35S505.18,120.59,499.36,120.59Z"/><path class="cls-2" d="M70.37,178.67v22.66h-4.3L54.78,187.57v13.76H49.6V178.67h4.34L65.2,192.43V178.67Z"/><path class="cls-2" d="M74.32,190c0-6.73,5.24-11.72,12.39-11.72s12.4,4.95,12.4,11.72-5.28,11.71-12.4,11.71S74.32,196.73,74.32,190Zm19.48,0a7.09,7.09,0,1,0-7.09,7.25A6.91,6.91,0,0,0,93.8,190Z"/><path class="cls-2" d="M129.75,197.12v4.21H112.21V178.67h17.12v4.21H117.42v4.92h10.52v4.08H117.42v5.24Z"/><path class="cls-2" d="M132.14,199.09l1.78-4a13.28,13.28,0,0,0,7.48,2.37c3.1,0,4.37-1,4.37-2.43,0-4.24-13.18-1.33-13.18-9.74,0-3.85,3.11-7.06,9.55-7.06a15.14,15.14,0,0,1,7.86,2l-1.61,4a12.81,12.81,0,0,0-6.28-1.78c-3.11,0-4.31,1.17-4.31,2.59,0,4.17,13.18,1.29,13.18,9.61,0,3.79-3.14,7-9.62,7C137.77,201.71,134.15,200.65,132.14,199.09Z"/><path class="cls-2" d="M184.34,201.33l0-13.6-6.66,11.2h-2.37L168.64,188v13.31h-4.92V178.67h4.34l8.48,14.08,8.35-14.08h4.3l.07,22.66Z"/><path class="cls-2" d="M194.62,178.67h5.24v22.66h-5.24Z"/><path class="cls-1" d="M213,190c0-6.73,5.24-11.72,12.39-11.72s12.4,4.95,12.4,11.72-5.28,11.71-12.4,11.71S213,196.73,213,190Zm19.48,0a7.09,7.09,0,1,0-7.09,7.25A6.91,6.91,0,0,0,232.45,190Z"/><path class="cls-1" d="M262.48,195.14c0,3.92-3.11,6.19-9.06,6.19H241.7V178.67h11.07c5.66,0,8.57,2.36,8.57,5.89a5.45,5.45,0,0,1-3,5A5.58,5.58,0,0,1,262.48,195.14Zm-15.57-12.52V188h5.21c2.56,0,3.95-.91,3.95-2.69s-1.39-2.65-3.95-2.65Zm10.29,12c0-1.91-1.45-2.81-4.17-2.81h-6.12v5.6H253C255.75,197.38,257.2,196.54,257.2,194.59Z"/><path class="cls-1" d="M266.45,178.67h5.25v18.38h11.36v4.28H266.45Z"/><path class="cls-1" d="M286,178.67h5.24v22.66H286Z"/><path class="cls-1" d="M311.92,189.64h4.79v9.19a15.63,15.63,0,0,1-9.16,2.88c-7.12,0-12.36-4.88-12.36-11.71s5.24-11.72,12.46-11.72a12.06,12.06,0,0,1,9.48,3.92l-3.37,3.11a7.66,7.66,0,0,0-5.86-2.56c-4.4,0-7.41,2.94-7.41,7.25a7,7,0,0,0,7.35,7.25,8.37,8.37,0,0,0,4.08-1Z"/><path class="cls-1" d="M336.48,196.47H326l-2,4.86h-5.37l10.1-22.66h5.17L344,201.33h-5.5Zm-1.65-4-3.6-8.67-3.59,8.67Z"/><path class="cls-1" d="M344.59,190c0-6.83,5.25-11.72,12.3-11.72a11.68,11.68,0,0,1,9.32,4l-3.36,3.1a7.31,7.31,0,0,0-5.7-2.65,7.25,7.25,0,0,0,0,14.5,7.22,7.22,0,0,0,5.7-2.69l3.36,3.11a11.62,11.62,0,0,1-9.35,4C349.84,201.71,344.59,196.83,344.59,190Z"/><path class="cls-1" d="M369.74,178.67H375v22.66h-5.24Z"/><path class="cls-1" d="M378.93,190c0-6.73,5.24-11.72,12.39-11.72s12.4,4.95,12.4,11.72-5.28,11.71-12.4,11.71S378.93,196.73,378.93,190Zm19.48,0a7.09,7.09,0,1,0-7.09,7.25A6.91,6.91,0,0,0,398.41,190Zm-5.67-17.83h5.44l-5.86,4.66h-3.94Z"/><path class="cls-1" d="M428.44,178.67v22.66h-4.31l-11.29-13.76v13.76h-5.18V178.67H412l11.26,13.76V178.67Z"/><path class="cls-2" d="M460.5,197.12v4.21H443V178.67h17.12v4.21H448.17v4.92h10.52v4.08H448.17v5.24Z"/><path class="cls-2" d="M462.89,199.09l1.78-4a13.28,13.28,0,0,0,7.48,2.37c3.1,0,4.37-1,4.37-2.43,0-4.24-13.18-1.33-13.18-9.74,0-3.85,3.11-7.06,9.55-7.06a15.14,15.14,0,0,1,7.86,2l-1.61,4a12.78,12.78,0,0,0-6.28-1.78c-3.11,0-4.31,1.17-4.31,2.59,0,4.17,13.18,1.29,13.18,9.61,0,3.79-3.14,7-9.62,7C468.52,201.71,464.9,200.65,462.89,199.09Z"/><path class="cls-2" d="M515.09,201.33l0-13.6-6.66,11.2H506L499.39,188v13.31h-4.92V178.67h4.34l8.48,14.08,8.35-14.08h4.3l.07,22.66Z"/><path class="cls-2" d="M525.37,178.67h5.24v22.66h-5.24Z"/><path class="cls-3" d="M164.66,82.88a14.71,14.71,0,0,1-2.57,1.85c-4.63,2.92-9.44,5.54-14.3,8a218.32,218.32,0,0,1-34.55,14.66,116.34,116.34,0,0,1-18,4.35c-4.28.63-8.59,1-12.89.15a19.27,19.27,0,0,1-2.23-.59c-4.86-1.65-7.09-5.52-6.15-10.59a25.1,25.1,0,0,1,2.93-7.63,68,68,0,0,1,9.18-12.35,200.45,200.45,0,0,1,19.34-18.32c1.75-1.5,3.56-2.93,5.33-4.41a2.8,2.8,0,0,0,1.07-1.13c-1.79.13-3.44.24-5.09.38a52.86,52.86,0,0,1-5.9.18c-1,0-2-.2-2.48-1.35-.34-.91.1-1.81,1.31-2.61A17.45,17.45,0,0,1,102,52.18q9.31-4.4,18.65-8.73a24.43,24.43,0,0,1,5.7-2,4.54,4.54,0,0,1,2.68.22,2.48,2.48,0,0,1,1.62,2.48,1.74,1.74,0,0,1-1,1.6,1.39,1.39,0,0,1-1.81-.41c-.48-.67-1-.55-1.66-.4a21.1,21.1,0,0,0-3.8,1.32c-5.78,2.59-11.55,5.22-17.32,7.84a3.61,3.61,0,0,0-.48.35c1.21,0,2.27,0,3.32,0,2.35-.13,4.7-.33,7-.49.29,0,.58,0,.87,0a1.42,1.42,0,0,1,1.51.87,1.44,1.44,0,0,1-.49,1.69c-.43.37-.89.72-1.35,1.07a223.87,223.87,0,0,0-27,24,76.07,76.07,0,0,0-7.94,9.87,31,31,0,0,0-3.9,7.68,13.3,13.3,0,0,0-.68,3.52A6.16,6.16,0,0,0,79.82,109a15.53,15.53,0,0,0,4.43,1.18A34.33,34.33,0,0,0,93,110c10.89-1.34,21.27-4.63,31.42-8.64a229.73,229.73,0,0,0,33.35-16.6c1.4-.83,2.73-1.79,4.08-2.7a1.63,1.63,0,0,0,.93-1.35,1.09,1.09,0,0,1,1.11-1.11,1.32,1.32,0,0,1,1.33.91A1.92,1.92,0,0,1,164.66,82.88Z"/><path class="cls-3" d="M170.9,75.83c-.13.71-.73,1-1.67.76a2,2,0,0,0-1.51.15c-2.44,1.1-4.07,3.11-5.71,5.1-.35.43-.08.82,0,1.21a7.47,7.47,0,0,1,.28,4A5.73,5.73,0,0,1,161,89.8a2.23,2.23,0,0,1-4-2,6.8,6.8,0,0,1,1.3-3.15c1.22-1.43.95-2.64,0-4a11.32,11.32,0,0,1-2-5.74,6.21,6.21,0,0,1,.87-3.84,3.94,3.94,0,0,1,2.59-1.89,1.86,1.86,0,0,1,2.21,1.35,1.53,1.53,0,0,1-1.33,1.88,1.8,1.8,0,0,0-1.45,1.84,7,7,0,0,0,.41,3.24,17.89,17.89,0,0,0,1.51,3.09c.81-.86,1.49-1.58,2.19-2.3A19.29,19.29,0,0,1,167.37,75a3.24,3.24,0,0,1,2.3-.62C170.53,74.53,171,75.13,170.9,75.83ZM160.09,85a5.57,5.57,0,0,0-1.51,3.3c0,.26-.1.62.25.73s.52-.18.69-.4A3.91,3.91,0,0,0,160.09,85Z"/><path class="cls-3" d="M231.65,47.11c-.15.62-.7.88-1.51.63a22.92,22.92,0,0,0-7.86-.63c-8.44.49-16.82,1.59-25.21,2.63-3.24.39-6.48.83-9.72,1.2a2,2,0,0,0-1.56.85c-6,8.56-11.32,17.5-14.72,27.46a31,31,0,0,0-1.65,6.85,9.24,9.24,0,0,0-.07,1.58c.1,2.32,1,3.06,3.35,2.71a16.57,16.57,0,0,0,1.82-.43,31.31,31.31,0,0,0,6.1-2.54,79.06,79.06,0,0,0,16.34-12c.35-.32.61-.74.95-1.07a1.16,1.16,0,0,1,1.58-.15,1.25,1.25,0,0,1,.35,1.66,2.61,2.61,0,0,1-.8.82c-4,3.14-7.95,6.36-12.14,9.27A50.12,50.12,0,0,1,177,91.45a19.94,19.94,0,0,1-4,1.17,8.09,8.09,0,0,1-.86.12c-3,.19-4.85-1.36-5.17-4.35a16.91,16.91,0,0,1,.45-5.58,67.75,67.75,0,0,1,5.16-14.33,128.5,128.5,0,0,1,8.77-15.39c.28-.42.72-.78.69-1.44-2.16.21-4.3.44-6.44.62a44.2,44.2,0,0,1-7.63.17,7.62,7.62,0,0,1-2.78-.68,2.42,2.42,0,0,1-1.45-1.69,1.29,1.29,0,0,1,.64-1.47,1.07,1.07,0,0,1,1.44.2c.9,1.22,2.18,1.28,3.48,1.35a74.18,74.18,0,0,0,10.64-.47c1-.09,2.1-.26,3.15-.33a1.91,1.91,0,0,0,1.52-.91,44.38,44.38,0,0,1,4.63-5.52,8.06,8.06,0,0,1,2.16-1.65,2.24,2.24,0,0,1,2.46.14,2.57,2.57,0,0,1,1,2.54,1.62,1.62,0,0,1-2.51,1.35.89.89,0,0,0-1.33.19,29.81,29.81,0,0,0-2.65,3,2.44,2.44,0,0,0,1.54.08q13-1.62,26.08-2.74a99.86,99.86,0,0,1,12.23-.33,15.06,15.06,0,0,1,2.43.27C231.42,45.94,231.81,46.52,231.65,47.11Z"/><path class="cls-3" d="M232.42,76.15c-.2.56-1.41,1.3-1.89,1.64a56.91,56.91,0,0,1-12,6.74,9.85,9.85,0,0,1-2,.48,3.38,3.38,0,0,1-3.93-2.17,10.61,10.61,0,0,1-.62-4.67c0-.86.1-1.73.14-2.59a11.92,11.92,0,0,0,.14-2.71C211.2,74,210,74.63,209.56,76a1.34,1.34,0,0,1-1.05.9,3.71,3.71,0,0,0-1.69,1,41.26,41.26,0,0,1-5.66,4.2,7.39,7.39,0,0,1-2.79,1.12,2.27,2.27,0,0,1-2.79-2.44,5,5,0,0,1,.63-2.34,15.37,15.37,0,0,1,6-6.43c2.13-1.22,4.25-1.52,6.23.32a.53.53,0,0,0,.86,0l1.59-1.46a9.78,9.78,0,0,1,1-.85c1.3-.9,2.46-.38,2.72,1.19a6.69,6.69,0,0,1-.06,1.73c-.18,1.76-.37,3.53-.52,5.3a9.22,9.22,0,0,0,.24,3.43c.37,1.27.9,1.61,2.22,1.48a8.62,8.62,0,0,0,2.34-.68,40.66,40.66,0,0,0,9.57-5.81c.43-.33,2.31-2,3-2.05C232.52,74.59,232.7,75.37,232.42,76.15Zm-26.91-1.92a2.48,2.48,0,0,0-1.78.41,12.73,12.73,0,0,0-5.06,5.15.59.59,0,0,0,.06.7,32.34,32.34,0,0,0,7.15-5C206.42,75,206.21,74.39,205.51,74.23Z"/><path class="cls-3" d="M269.12,75A1,1,0,0,1,268,76.15a3.75,3.75,0,0,0-2.17.52,49.1,49.1,0,0,0-4.87,2.43,15.67,15.67,0,0,1-2.44,1.18c-1.69.62-2.73.15-3.47-1.49-.19-.43-.32-.89-.48-1.34A15.38,15.38,0,0,0,254,76c-.49-1-.91-1.19-1.91-.62A14,14,0,0,0,250,76.83c-1.14.94-2.22,2-3.35,2.91a7.54,7.54,0,0,1-1.52,1.06,1.68,1.68,0,0,1-2.55-1.17,6,6,0,0,1-.19-1.7c0-1.15,0-2.29,0-3.44a3.1,3.1,0,0,0-.2-1.42,3.44,3.44,0,0,0-1.48.91c-2.18,1.78-4.2,3.75-6.23,5.7a9.24,9.24,0,0,1-1.88,1.54A1.67,1.67,0,0,1,230,79.76a2.06,2.06,0,0,1,0-.43,26.57,26.57,0,0,1,2.51-7.72,2.15,2.15,0,0,1,.78-.83,1.76,1.76,0,0,1,2.33.32,1.55,1.55,0,0,1-.06,2.2,4.93,4.93,0,0,0-1.33,2.82c1.36-1.2,2.71-2.4,4.09-3.58a13.16,13.16,0,0,1,2.54-1.84c2-1,3.52-.23,3.89,2a11.81,11.81,0,0,1,.06,2.85c-.07,1-.12,1.9-.17,2.82.47.28.69-.07.92-.26,1.06-.89,2.1-1.8,3.16-2.69a11.83,11.83,0,0,1,2.88-1.86,2.69,2.69,0,0,1,3.94,1.6c.29.7.47,1.45.69,2.18.59,1.95,1,2.15,2.86,1.25,2.33-1.12,4.53-2.45,6.77-3.73.37-.22.74-.45,1.12-.64a2.56,2.56,0,0,1,.8-.29A1.22,1.22,0,0,1,269.12,75Z"/><path class="cls-3" d="M287.42,75.74a1.22,1.22,0,0,1-1.24.8c-2.1,0-4.18.48-6.39.17a30.84,30.84,0,0,1-4.3-.37c-.66-.11-.93.11-1.07.77a9,9,0,0,1-3.67,5.11,4.38,4.38,0,0,1-.87.5c-1.91.86-3.6-.17-3.47-2.26A12.76,12.76,0,0,1,269,73.58c.78-1.06,1.48-1.13,2.74-.55a27.31,27.31,0,0,0,11.93,2.16,4,4,0,0,0,2-.64,1.13,1.13,0,0,1,1.45,0A1,1,0,0,1,287.42,75.74Zm-15.61-.28A9.36,9.36,0,0,0,269.28,80C271.4,78.6,272.24,77.09,271.81,75.46Z"/><path class="cls-3" d="M300.29,75.83c-.13.71-.73,1-1.68.76a2,2,0,0,0-1.51.15c-2.43,1.1-4.06,3.11-5.7,5.1-.36.43-.09.82,0,1.21a7.47,7.47,0,0,1,.28,4,5.82,5.82,0,0,1-1.35,2.8,2.24,2.24,0,0,1-4-2,6.81,6.81,0,0,1,1.31-3.15c1.21-1.43.95-2.64,0-4a11.33,11.33,0,0,1-2-5.74,6.15,6.15,0,0,1,.88-3.84,3.91,3.91,0,0,1,2.59-1.89,1.86,1.86,0,0,1,2.21,1.35A1.54,1.54,0,0,1,290,72.4a1.79,1.79,0,0,0-1.45,1.84,7,7,0,0,0,.4,3.24,19.47,19.47,0,0,0,1.51,3.09c.82-.86,1.5-1.58,2.2-2.3A19.29,19.29,0,0,1,296.76,75a3.23,3.23,0,0,1,2.29-.62C299.92,74.53,300.42,75.13,300.29,75.83ZM289.48,85a5.57,5.57,0,0,0-1.51,3.3c0,.26-.11.62.24.73s.52-.18.69-.4A3.89,3.89,0,0,0,289.48,85Z"/><path class="cls-3" d="M411.15,92.12a2.58,2.58,0,0,1-2.62,1.42,12.92,12.92,0,0,1-3.07-.77c-5.69-1.9-11.28-4.09-16.84-6.32a192.67,192.67,0,0,0-18.8-6.84,97.69,97.69,0,0,0-17.37-3.3c-.34,0-.67,0-1-.07a.8.8,0,0,0-.91.53c0,.14-.13.26-.19.39a121.74,121.74,0,0,0-7,18,29.11,29.11,0,0,0-.91,4.22,12.25,12.25,0,0,0-.08,2c0,.45.23.72.75.5a3.8,3.8,0,0,1,.95-.32,1.32,1.32,0,0,1,1.45.7,1.26,1.26,0,0,1-.21,1.6,3.85,3.85,0,0,1-3.41,1.18,2.74,2.74,0,0,1-2.16-2.43,11.41,11.41,0,0,1,.13-4.58,79.57,79.57,0,0,1,4.62-14.67c.62-1.56,1.3-3.1,1.95-4.65a2,2,0,0,0,.32-1.17c-1.87.4-3.73.82-5.6,1.17a37.66,37.66,0,0,1-6.44.7,7,7,0,0,1-2.27-.34,1.58,1.58,0,0,1-1.19-1.31,1.64,1.64,0,0,1,.78-1.6,7.85,7.85,0,0,1,2.51-1.06,37.7,37.7,0,0,1,9.7-1.15c1.1,0,2.21,0,3.31,0A1.37,1.37,0,0,0,349,73a176.45,176.45,0,0,1,13-22.06c.81-1.19,1.68-2.34,2.54-3.49a3.91,3.91,0,0,1,1.26-1.17,1.75,1.75,0,0,1,2.66,1.54,3.27,3.27,0,0,1-2.14,3.2,1.82,1.82,0,0,0-.89.69,175.89,175.89,0,0,0-13,21.08.92.92,0,0,0,0,.23,1.58,1.58,0,0,0,1.17-.2A124.1,124.1,0,0,0,393.05,50a48.35,48.35,0,0,0,7.59-8.07,17.83,17.83,0,0,0,3.42-7.07,5.47,5.47,0,0,0-3-6.38,16.67,16.67,0,0,0-7.36-1.75,49.41,49.41,0,0,0-16.34,2.25,75.8,75.8,0,0,0-24.59,12,34.86,34.86,0,0,0-7.67,7.76,19.48,19.48,0,0,0-2,3.48,6,6,0,0,0-.56,2.8,4.87,4.87,0,0,1,0,1,1.48,1.48,0,0,1-2.86.45,5.15,5.15,0,0,1-.39-2.54,9.31,9.31,0,0,1,1.09-3.71,27.55,27.55,0,0,1,5.08-7A49.22,49.22,0,0,1,356,35.09a82,82,0,0,1,27-10.33,41,41,0,0,1,13.75-.43,15.1,15.1,0,0,1,6.2,2.21,7.87,7.87,0,0,1,3.64,8.31,17.3,17.3,0,0,1-2.76,6.75,43.16,43.16,0,0,1-7,8.2A114.62,114.62,0,0,1,372.62,67a130,130,0,0,1-15.16,7c-.36.14-.86.13-1.1.67,2.09.39,4.15.74,6.2,1.15a114.5,114.5,0,0,1,21.1,6.68c6.8,2.79,13.6,5.55,20.63,7.7,1.1.33,2.22.62,3.33.92a1.16,1.16,0,0,0,1.48-.47,1.24,1.24,0,0,1,1.85-.45A1.41,1.41,0,0,1,411.15,92.12ZM340.34,76.35c-.43-.1-.84-.21-1,.36a1.92,1.92,0,0,0-1.61,0c.59.23,1.11-.08,1.62,0C339.56,76.32,340,76.6,340.34,76.35Z"/><path class="cls-3" d="M436.44,76.68c-3.93,1.07-7.37,3.2-11,4.94a60.25,60.25,0,0,1-14.31,5.14,11.25,11.25,0,0,1-4,.14,3.94,3.94,0,0,1-3.46-4.75,8.63,8.63,0,0,1,.72-2.33,18.9,18.9,0,0,1,7.62-8.4,8,8,0,0,1,3.1-1.12,2.91,2.91,0,0,1,3,1.28,2.59,2.59,0,0,1-.23,3.1,9.32,9.32,0,0,1-6.67,3.81c-1,.12-1.54-.16-2.79-1.18A14.12,14.12,0,0,0,406,81.12a5.22,5.22,0,0,0-.35,1.1q-.53,2.67,2.17,3a10.45,10.45,0,0,0,3.3-.18A55.8,55.8,0,0,0,426,79.47c2.8-1.48,5.58-3,8.37-4.49a4.92,4.92,0,0,1,1.46-.61,1.25,1.25,0,0,1,1.47.86A1.16,1.16,0,0,1,436.44,76.68Zm-24.89-1.83c.22.31.44.68.91.52a6,6,0,0,0,3.49-2.6c-1.75-.21-2.87.63-4,1.33C411.67,74.25,411.24,74.4,411.55,74.85Z"/><path class="cls-3" d="M475.28,77.31c-3.34,4.28-15.8,14.1-21.66,17.22a7.84,7.84,0,0,1-2.32.73,2.83,2.83,0,0,1-3.54-2.8,14.4,14.4,0,0,1,.49-5.14c1.55-6.16,8.43-18.13,12.17-24.52a3.56,3.56,0,0,0,.69-1.53A4,4,0,0,0,460,62.52a93.9,93.9,0,0,1-9.52,11.36,50,50,0,0,1-11.81,8.66,16.51,16.51,0,0,1-4.72,1.72,4.14,4.14,0,0,1-1.85-.07,2.49,2.49,0,0,1-1.91-2.69,4.4,4.4,0,0,1,.59-1.9,11.81,11.81,0,0,1,1.93-2.51,26.68,26.68,0,0,1,8.69-6,17.54,17.54,0,0,1,1.75-.67c2.13-.67,4.16-.76,5.71,1.21a4.27,4.27,0,0,0,1.24-1.09,89.35,89.35,0,0,0,7.59-9.22c4-5.37,7.9-10.77,11.86-16.14.62-.85,1.3-1.66,2-2.47a4.7,4.7,0,0,1,1.31-1.12,1.55,1.55,0,0,1,1.88,0,1.44,1.44,0,0,1,.34,1.84,16.78,16.78,0,0,1-.92,1.79c-1.09,1.75-2.19,3.5-3.34,5.22-4.38,6.6-8.65,13.27-12.43,20.24-4.62,8.5-7.94,14.42-8.7,19.12a8.69,8.69,0,0,0-.1,2.44c.13,1.16.6,1.5,1.76,1.28a9.09,9.09,0,0,0,2.54-1c2-1,14.84-9.79,18.92-15.5.38-.53,2.11-3,3.32-2.9C477,74.13,477.08,76.45,475.28,77.31Zm-30.84-3.78c-4.13.94-10.2,5.26-11,7.9a7.45,7.45,0,0,0,2.61-.72,42.59,42.59,0,0,0,7-4C444.14,75.93,445,75.16,444.44,73.53Z"/><path class="cls-3" d="M493.94,76a1,1,0,0,1-1.31.53c-.7-.35-1.19,0-1.73.29-2,1.2-4,2.46-5.88,3.81a48.17,48.17,0,0,1-5,3.12,9.67,9.67,0,0,1-2.39.94,3.08,3.08,0,0,1-3.93-2.37,6.36,6.36,0,0,1-.26-2.13,19.3,19.3,0,0,1,1-5,2.27,2.27,0,0,1,1.12-1.41,1.72,1.72,0,0,1,2.17.53,1.37,1.37,0,0,1-.4,2,3,3,0,0,0-1.27,2.13,7.37,7.37,0,0,0-.24,3.67,1.11,1.11,0,0,0,1.44.84,8,8,0,0,0,2.4-.89,52.08,52.08,0,0,0,6.2-3.85c1.47-1,2.94-2.11,4.42-3.16a5.22,5.22,0,0,1,1.75-1,1.6,1.6,0,0,1,1.69.48A1.19,1.19,0,0,1,493.94,76Zm-17.09-7.78a1.64,1.64,0,0,1,1.7-1.55,1.55,1.55,0,0,1,1.66,1.56,1.67,1.67,0,0,1-1.8,1.47A1.47,1.47,0,0,1,476.85,68.23Z"/><path class="cls-3" d="M506.46,75.83c-.13.71-.73,1-1.67.76a2,2,0,0,0-1.51.15c-2.44,1.1-4.06,3.11-5.71,5.1-.35.43-.08.82.05,1.21a7.57,7.57,0,0,1,.28,4,5.82,5.82,0,0,1-1.35,2.8,2.24,2.24,0,0,1-4-2,6.8,6.8,0,0,1,1.3-3.15c1.22-1.43,1-2.64,0-4a11.24,11.24,0,0,1-2-5.74,6.21,6.21,0,0,1,.87-3.84,4,4,0,0,1,2.59-1.89,1.86,1.86,0,0,1,2.21,1.35,1.53,1.53,0,0,1-1.32,1.88,1.81,1.81,0,0,0-1.46,1.84,7.12,7.12,0,0,0,.41,3.24,18.65,18.65,0,0,0,1.51,3.09l2.19-2.3A19.29,19.29,0,0,1,502.93,75a3.26,3.26,0,0,1,2.3-.62C506.1,74.53,506.59,75.13,506.46,75.83ZM495.66,85a5.64,5.64,0,0,0-1.52,3.3c0,.26-.1.62.25.73s.52-.18.69-.4A4,4,0,0,0,495.66,85Z"/><path class="cls-1" d="M65.25,236h-3v8.09H51.46V211.93H67c9,0,14.66,4.68,14.66,12.13a10.78,10.78,0,0,1-6.07,10.11l6.76,9.93H70.71Zm1-15.72h-4v7.54h4c3,0,4.41-1.43,4.41-3.77S69.24,220.29,66.26,220.29Z"/><path class="cls-1" d="M112.45,235.92v8.18H85.7V211.93h26.15v8.18H96.36v3.76H110v7.82H96.36v4.23Z"/><path class="cls-1" d="M114.61,241.52l3.49-7.9a22.1,22.1,0,0,0,10.62,2.94c3.08,0,4.18-.64,4.18-1.75,0-4-17.79-.78-17.79-12.77,0-6,5-10.85,15-10.85a25.59,25.59,0,0,1,12.13,2.8L139,221.85a19.87,19.87,0,0,0-9-2.39c-3.17,0-4.18.92-4.18,2,0,3.87,17.79.65,17.79,12.51,0,5.88-5,10.84-15,10.84C123.25,244.83,117.82,243.5,114.61,241.52Z"/><path class="cls-1" d="M177,224.06c0,7.44-5.7,12.13-14.67,12.13h-4.64v7.91H146.83V211.93h15.48C171.28,211.93,177,216.61,177,224.06Zm-10.94,0c0-2.35-1.43-3.77-4.42-3.77h-4v7.54h4C164.61,227.83,166,226.4,166,224.06Z"/><path class="cls-1" d="M179.69,228c0-9.74,7.67-16.82,18.15-16.82S216,218.27,216,228s-7.68,16.82-18.16,16.82S179.69,237.75,179.69,228Zm25.37,0c0-5-3.22-8-7.22-8s-7.21,3-7.21,8,3.21,8,7.21,8S205.06,233,205.06,228Z"/><path class="cls-1" d="M251.66,211.93V244.1h-8.92l-12.22-14.62V244.1H220V211.93h8.91l12.23,14.61V211.93Z"/><path class="cls-1" d="M254.88,241.52l3.49-7.9A22.1,22.1,0,0,0,269,236.56c3.08,0,4.18-.64,4.18-1.75,0-4-17.79-.78-17.79-12.77,0-6,5-10.85,15-10.85A25.59,25.59,0,0,1,282.5,214l-3.26,7.86a19.84,19.84,0,0,0-9-2.39c-3.17,0-4.18.92-4.18,2,0,3.87,17.79.65,17.79,12.51,0,5.88-5,10.84-15,10.84C263.52,244.83,258.09,243.5,254.88,241.52Z"/><path class="cls-1" d="M309,238.49H296.79l-2.16,5.61h-11l14.07-32.17h10.66l14.06,32.17H311.18Zm-3-7.81-3.12-8.09-3.13,8.09Z"/><path class="cls-1" d="M355.85,235.23c0,5.6-4.73,8.87-13.6,8.87H324.14V211.93h17.19c8.87,0,13,3.53,13,8.41a7.5,7.5,0,0,1-4.45,6.94C353.65,228.65,355.85,231.41,355.85,235.23ZM334.8,219.51v4.78h5.06c2.43,0,3.54-.83,3.54-2.39s-1.11-2.39-3.54-2.39ZM344.91,234c0-1.66-1.19-2.53-3.58-2.53H334.8v5h6.53C343.72,236.51,344.91,235.64,344.91,234Z"/><path class="cls-1" d="M359.67,211.93h10.84V244.1H359.67Z"/><path class="cls-1" d="M375.75,211.93H386.6v23.76h14.52v8.41H375.75Z"/><path class="cls-1" d="M404.11,211.93H415V244.1H404.11Z"/><path class="cls-1" d="M420.2,211.93h15.85c10.76,0,18.16,6.11,18.16,16.08s-7.4,16.09-18.16,16.09H420.2Zm15.39,23.71c4.55,0,7.68-2.71,7.68-7.63s-3.13-7.63-7.68-7.63H431v15.26Z"/><path class="cls-1" d="M479.62,238.49H467.4l-2.16,5.61h-11l14.06-32.17h10.66L493,244.1H481.78Zm-3-7.81-3.13-8.09-3.13,8.09Z"/><path class="cls-1" d="M494.74,211.93H510.6c10.75,0,18.15,6.11,18.15,16.08s-7.4,16.09-18.15,16.09H494.74Zm15.4,23.71c4.55,0,7.68-2.71,7.68-7.63s-3.13-7.63-7.68-7.63h-4.55v15.26Z"/></svg>