<svg xmlns="http://www.w3.org/2000/svg" viewBox="0 0 731.94 310.62"><defs><style>.cls-1{fill:#fff;}</style></defs><title>Asset 47</title><g id="Layer_2" data-name="Layer 2"><g id="Capa_1" data-name="Capa 1"><path class="cls-1" d="M323.09,254H281.62q-6.71-8-6.71-45.65v-.26l.26-11.35q.4-23.61.4-24.14,0-9.63-12.9-9.63v90.77H221.2V64.55h51.21q17.5,0,30.47,8t13,25.46v22.69q0,22-25.67,29.81,25.8,6.08,25.8,31.27l-.66,20.71Q315.32,247.93,323.09,254ZM275.44,130V98.74q0-9.92-12.77-9.92V140Q275.44,140,275.44,130Z"/><path class="cls-1" d="M417.12,253.73H336V64.55h80.56V88.82H377.5V140h35.28v23H377.5v66.49h39.62Z"/><path class="cls-1" d="M430.32,253.73V64.55h51.74a51.42,51.42,0,0,1,30.1,9.17q13.2,9.16,13.2,28.16V216.39q0,17.69-12.34,27.51t-30.69,9.83Zm53.31-34.31V98.73q0-9.92-11.85-9.91V229.45Q483.63,229.45,483.63,219.42Z"/><path class="cls-1" d="M582,253.73H540.54V64.55H582Z"/><path class="cls-1" d="M597.18,178h37.65v43.4q0,6.47,7.83,6.47,7.56,0,7.57-6.47V199q0-10.29-13.69-24.14-26.46-25.72-32.91-34.57a32.16,32.16,0,0,1-6.45-19.39V99.64q0-36.81,48-36.81,43,0,43,33.51v32.72H650.49V94.23q0-5.67-6.31-5.67-7.38,0-7.38,11l.79,12.27q0,10.55,14,24.53,26,24.94,33.06,34.83a37.71,37.71,0,0,1,7.05,22.43v24.14q0,37.74-48.11,37.73-46.41,0-46.4-34.3Z"/><path class="cls-1" d="M131.7,153.19H59.06a18.26,18.26,0,0,1-18.24-18.28v-9.14a22.83,22.83,0,0,1,22.8-22.85h1.62a36.52,36.52,0,0,1,15.46,3.44c12.43,5.8,36.84,18.9,54.51,39.31a4.58,4.58,0,0,1-3.51,7.52"/><path class="cls-1" d="M131.7,161.1H59.06a18.25,18.25,0,0,0-18.24,18.28v9.14a22.82,22.82,0,0,0,22.8,22.84h1.62a36.52,36.52,0,0,0,15.46-3.44c12.43-5.79,36.84-18.89,54.51-39.31a4.57,4.57,0,0,0-3.51-7.51"/><path class="cls-1" d="M148.32,177.76v72.79a18.26,18.26,0,0,1-18.24,18.28H121A22.82,22.82,0,0,1,98.16,246v-1.63a36.74,36.74,0,0,1,3.44-15.5c5.78-12.46,18.85-36.92,39.22-54.62a4.57,4.57,0,0,1,7.5,3.52"/><path class="cls-1" d="M156.22,177.76v72.79a18.25,18.25,0,0,0,18.24,18.28h9.12A22.82,22.82,0,0,0,206.37,246v-1.63a36.88,36.88,0,0,0-3.43-15.5c-5.78-12.46-18.86-36.92-39.23-54.62a4.56,4.56,0,0,0-7.49,3.52"/><path class="cls-1" d="M156.22,136.53V63.73a18.26,18.26,0,0,1,18.24-18.28h9.12A22.82,22.82,0,0,1,206.37,68.3v1.63a36.88,36.88,0,0,1-3.43,15.5c-5.78,12.45-18.86,36.92-39.23,54.61a4.56,4.56,0,0,1-7.49-3.51"/><path class="cls-1" d="M148.32,136.53V63.73a18.27,18.27,0,0,0-18.24-18.28H121A22.83,22.83,0,0,0,98.16,68.3v1.63a36.74,36.74,0,0,0,3.44,15.5c5.78,12.45,18.85,36.92,39.22,54.61a4.56,4.56,0,0,0,7.5-3.51"/><path class="cls-1" d="M3.52,161.11c2.94,78.64,66.3,142.53,144.76,145.94a150.67,150.67,0,0,0,59.94-9.54,3.38,3.38,0,0,0,1.75-4.78l0-.06a3.39,3.39,0,0,0-4.2-1.56A143.56,143.56,0,0,1,155,300.36c-82.38,0-148.9-69.31-144.54-152.8,3.91-74.94,65.35-135,140.2-137.24a143.63,143.63,0,0,1,87.65,26.49q2.52-2.48,5-4.84A150.5,150.5,0,0,0,155,3.42C69.48,3.42.3,74.72,3.52,161.11Z"/><path class="cls-1" d="M155,310.62q-3.43,0-6.9-.15c-80-3.48-145-69-148-149.24h0a154.84,154.84,0,0,1,245.21-132l3.38,2.43-3,2.84q-2.5,2.34-5,4.77l-2,2-2.33-1.65a139.75,139.75,0,0,0-85.57-25.86c-73,2.15-133.1,61-136.91,134a141.23,141.23,0,0,0,190.7,140.17,6.85,6.85,0,0,1,4.89,12.8A153.51,153.51,0,0,1,155,310.62Zm-2.64-6.86A146.65,146.65,0,0,0,207,294.31,148.24,148.24,0,0,1,152.39,303.76Zm1.4-296.92A148.49,148.49,0,0,0,6.83,154c0-2.19.08-4.39.2-6.6C11,70.87,74.06,9.16,150.54,6.9Zm36.37,4.21a147,147,0,0,1,47.77,21.34l0,0A146.72,146.72,0,0,0,190.16,11.05Z"/><path class="cls-1" d="M209.13,39.25l46.09,14.82a1.53,1.53,0,0,0,1.92-1.92L242.22,5.94A3.29,3.29,0,0,0,236,5.72l-7.32,18.2a3.3,3.3,0,0,1-1.81,1.82l-18,7.32A3.3,3.3,0,0,0,209.13,39.25Z"/><path class="cls-1" d="M731.94,80a14.8,14.8,0,1,1-14.75-14.72A14.43,14.43,0,0,1,731.94,80Zm-2,0a12.48,12.48,0,0,0-12.78-12.83A12.91,12.91,0,1,0,730,80Zm-8.8,2.55L725,88.44h-2.9l-3.48-5.36h-4.56v5.36H711.2V71.68h6.7c4.19,0,6.79,2.22,6.79,5.7A5.12,5.12,0,0,1,721.17,82.53Zm.76-5.15c0-2.14-1.56-3.31-4.24-3.31H714v6.66h3.69C720.37,80.73,721.93,79.51,721.93,77.38Z"/><path class="cls-1" d="M232.14,289.35l-3.69-7.52h-2.64v7.52h-3.69V270.49h7.39c3.85,0,6.12,2.63,6.12,5.78a5.07,5.07,0,0,1-3.44,5l4.21,8.13Zm-2.86-15.57h-3.47v5h3.47a2.5,2.5,0,1,0,0-5Z"/><path class="cls-1" d="M241.43,289.35V270.49h12.43v3.29h-8.75v4.42h7.45v3.29h-7.45v4.58h8.75v3.28Z"/><path class="cls-1" d="M271.23,287.55a6.84,6.84,0,0,1-5,1.8h-6.81V270.49h6.81a6.88,6.88,0,0,1,5,1.8c2.12,2.12,1.91,4.72,1.91,7.55S273.35,285.43,271.23,287.55Zm-2.57-12.61a3.29,3.29,0,0,0-2.75-1.16h-2.79v12.29h2.79a3.27,3.27,0,0,0,2.75-1.17c.69-.84.8-2.19.8-5.06S269.35,275.79,268.66,274.94Z"/><path class="cls-1" d="M298.8,287.55a6.84,6.84,0,0,1-5,1.8H287V270.49h6.81a6.88,6.88,0,0,1,5,1.8c2.12,2.12,1.91,4.72,1.91,7.55S300.92,285.43,298.8,287.55Zm-2.57-12.61a3.29,3.29,0,0,0-2.75-1.16H290.7v12.29h2.78a3.27,3.27,0,0,0,2.75-1.17c.69-.84.8-2.19.8-5.06S296.92,275.79,296.23,274.94Z"/><path class="cls-1" d="M306.45,289.35V270.49h12.43v3.29h-8.74v4.42h7.44v3.29h-7.44v4.58h8.74v3.28Z"/><path class="cls-1" d="M332.59,289.35V270.49h3.69v18.86Z"/><path class="cls-1" d="M353.81,289.35l-7.47-11.57v11.57h-3.68V270.49h3.28L353.41,282V270.49h3.69v18.86Z"/><path class="cls-1" d="M374.63,289.35l-7.47-11.57v11.57h-3.68V270.49h3.28L374.23,282V270.49h3.68v18.86Z"/><path class="cls-1" d="M395.71,287.45a6.82,6.82,0,0,1-5.08,2.06,6.91,6.91,0,0,1-5.12-2.06c-1.9-1.91-1.85-4.27-1.85-7.53s-.05-5.61,1.85-7.52a6.92,6.92,0,0,1,5.12-2.07,6.83,6.83,0,0,1,5.08,2.07c1.91,1.91,1.88,4.27,1.88,7.52S397.62,285.54,395.71,287.45ZM393,274.63a3.05,3.05,0,0,0-2.35-1,3.13,3.13,0,0,0-2.39,1c-.71.79-.9,1.66-.9,5.29s.19,4.51.9,5.3a3.13,3.13,0,0,0,2.39,1,3.05,3.05,0,0,0,2.35-1c.72-.79.93-1.67.93-5.3S393.7,275.42,393,274.63Z"/><path class="cls-1" d="M409.93,289.35h-2.75L401,270.49h3.82l3.79,12.29,3.78-12.29h3.85Z"/><path class="cls-1" d="M430.25,289.35,429.14,286h-6.71l-1.13,3.33h-3.85l6.87-18.86h2.88l6.89,18.86Zm-4.4-13.29-2.38,6.86h4.69Z"/><path class="cls-1" d="M444.44,289.51a7,7,0,0,1-5.08-2.06c-1.91-1.91-1.86-4.27-1.86-7.53s-.05-5.61,1.86-7.52a7,7,0,0,1,5.08-2.07,6.65,6.65,0,0,1,6.94,6h-3.73a3.11,3.11,0,0,0-3.18-2.67,3,3,0,0,0-2.36,1c-.71.79-.92,1.69-.92,5.32s.21,4.53.92,5.33a3,3,0,0,0,2.36,1,3.12,3.12,0,0,0,3.18-2.68h3.73A6.66,6.66,0,0,1,444.44,289.51Z"/><path class="cls-1" d="M456.55,289.35V270.49h3.68v18.86Z"/><path class="cls-1" d="M478,287.45a7.34,7.34,0,0,1-10.2,0c-1.91-1.91-1.85-4.27-1.85-7.53s-.06-5.61,1.85-7.52a7.32,7.32,0,0,1,10.2,0c1.91,1.91,1.88,4.27,1.88,7.52S479.94,285.54,478,287.45Zm-2.73-12.82a3.06,3.06,0,0,0-2.36-1,3.12,3.12,0,0,0-2.38,1c-.72.79-.9,1.66-.9,5.29s.18,4.51.9,5.3a3.12,3.12,0,0,0,2.38,1,3.06,3.06,0,0,0,2.36-1c.72-.79.93-1.67.93-5.3S476,275.42,475.3,274.63Zm-1.51-6h-2.3l1.69-4.51h3.63Z"/><path class="cls-1" d="M496.81,289.35l-7.47-11.57v11.57h-3.69V270.49h3.29L496.41,282V270.49h3.68v18.86Z"/><path class="cls-1" d="M519.8,289.51c-2.87,0-5-.61-6.89-2.49l2.38-2.38a6.19,6.19,0,0,0,4.56,1.59c2.17,0,3.34-.82,3.34-2.33a2.08,2.08,0,0,0-.59-1.59,2.75,2.75,0,0,0-1.67-.66l-2.27-.32a6.42,6.42,0,0,1-3.66-1.56,5,5,0,0,1-1.35-3.71c0-3.37,2.49-5.73,6.57-5.73a8.07,8.07,0,0,1,6.09,2.2L524,274.84a5.24,5.24,0,0,0-3.87-1.3c-2,0-2.91,1.09-2.91,2.38a1.81,1.81,0,0,0,.56,1.35,3.23,3.23,0,0,0,1.74.75l2.23.31a6.24,6.24,0,0,1,3.6,1.46,5.28,5.28,0,0,1,1.46,4C526.79,287.45,523.74,289.51,519.8,289.51Z"/><path class="cls-1" d="M543.66,287.45a7.34,7.34,0,0,1-10.2,0c-1.91-1.91-1.85-4.27-1.85-7.53s-.06-5.61,1.85-7.52a7.32,7.32,0,0,1,10.2,0c1.91,1.91,1.88,4.27,1.88,7.52S545.57,285.54,543.66,287.45Zm-2.73-12.82a3.06,3.06,0,0,0-2.36-1,3.12,3.12,0,0,0-2.38,1c-.72.79-.9,1.66-.9,5.29s.18,4.51.9,5.3a3.12,3.12,0,0,0,2.38,1,3.06,3.06,0,0,0,2.36-1c.72-.79.93-1.67.93-5.3S541.65,275.42,540.93,274.63Z"/><path class="cls-1" d="M556.48,289.51c-2.86,0-5-.61-6.89-2.49l2.39-2.38a6.16,6.16,0,0,0,4.55,1.59c2.17,0,3.34-.82,3.34-2.33a2.11,2.11,0,0,0-.58-1.59,2.8,2.8,0,0,0-1.67-.66l-2.28-.32a6.42,6.42,0,0,1-3.66-1.56,5,5,0,0,1-1.35-3.71c0-3.37,2.49-5.73,6.57-5.73a8.07,8.07,0,0,1,6.09,2.2l-2.33,2.31a5.23,5.23,0,0,0-3.86-1.3c-2,0-2.92,1.09-2.92,2.38a1.81,1.81,0,0,0,.56,1.35,3.23,3.23,0,0,0,1.75.75l2.22.31a6.24,6.24,0,0,1,3.6,1.46,5.28,5.28,0,0,1,1.46,4C563.47,287.45,560.43,289.51,556.48,289.51Z"/><path class="cls-1" d="M576.13,273.78v15.57h-3.68V273.78h-4.93v-3.29h13.54v3.29Z"/><path class="cls-1" d="M586,289.35V270.49h12.43v3.29h-8.74v4.42h7.44v3.29h-7.44v4.58h8.74v3.28Z"/><path class="cls-1" d="M615.2,289.35l-7.47-11.57v11.57H604V270.49h3.29L614.8,282V270.49h3.68v18.86Z"/><path class="cls-1" d="M624.86,289.35V270.49h3.68v18.86Z"/><path class="cls-1" d="M642.82,289.35h-7.89V270.49h7.57c3.69,0,5.83,2.07,5.83,5.3a4.39,4.39,0,0,1-2.33,3.9,4.38,4.38,0,0,1,2.6,4.23C648.6,287.45,646.19,289.35,642.82,289.35Zm-.61-15.57h-3.6v4.34h3.6a2.18,2.18,0,1,0,0-4.34Zm.24,7.65h-3.84v4.64h3.84a2.32,2.32,0,1,0,0-4.64Z"/><path class="cls-1" d="M654.34,289.35V270.49H658v15.58h8.56v3.28Z"/><path class="cls-1" d="M671.56,289.35V270.49H684v3.29h-8.74v4.42h7.44v3.29h-7.44v4.58H684v3.28Z"/></g></g></svg>