<?xml version="1.0" standalone="no"?>
<!DOCTYPE svg PUBLIC "-//W3C//DTD SVG 20010904//EN"
 "http://www.w3.org/TR/2001/REC-SVG-20010904/DTD/svg10.dtd">
<svg version="1.0" xmlns="http://www.w3.org/2000/svg"
 width="512.000000pt" height="512.000000pt" viewBox="0 0 512.000000 512.000000"
 preserveAspectRatio="xMidYMid meet">

<g transform="translate(0.000000,512.000000) scale(0.100000,-0.100000)"
fill="#000000" stroke="none">
<path d="M2150 4405 l0 -305 -1022 -2 -1023 -3 -3 -1843 -2 -1842 2460 0 2460
0 -2 1843 -3 1842 -1022 3 -1023 2 0 305 0 305 -410 0 -410 0 0 -305z m610
-305 l0 -410 -200 0 -200 0 0 410 0 410 200 0 200 0 0 -410z m-610 -415 l0
-205 410 0 410 0 0 205 0 205 920 0 920 0 0 -1640 0 -1640 -2250 0 -2250 0 0
1640 0 1640 920 0 920 0 0 -205z"/>
<path d="M1416 3365 c-230 -59 -387 -259 -389 -495 0 -102 19 -173 68 -254 36
-60 35 -75 -4 -76 -8 0 -47 -16 -88 -36 -91 -43 -174 -124 -222 -213 -59 -112
-61 -126 -61 -564 l0 -397 818 2 817 3 0 395 c0 381 -1 397 -22 466 -24 76
-81 169 -135 221 -47 45 -144 101 -206 119 -35 10 -50 19 -45 27 3 7 16 28 28
47 166 268 35 626 -270 739 -78 29 -208 36 -289 16z m230 -212 c33 -11 67 -34
105 -72 71 -72 94 -132 87 -235 -20 -312 -440 -392 -579 -110 -34 69 -34 199
-1 261 61 115 149 171 273 172 37 1 87 -6 115 -16z m237 -803 c118 -19 207
-90 247 -196 18 -50 20 -78 20 -334 l0 -280 -616 0 -615 0 3 293 c3 253 5 297
21 331 42 95 137 169 235 186 68 11 636 12 705 0z"/>
<path d="M2660 2970 l0 -100 360 0 360 0 0 100 0 100 -360 0 -360 0 0 -100z"/>
<path d="M3690 2970 l0 -100 355 0 355 0 0 100 0 100 -355 0 -355 0 0 -100z"/>
<path d="M2660 2460 l0 -100 155 0 155 0 0 100 0 100 -155 0 -155 0 0 -100z"/>
<path d="M3280 2460 l0 -100 560 0 560 0 0 100 0 100 -560 0 -560 0 0 -100z"/>
<path d="M2660 1945 l0 -105 410 0 410 0 0 105 0 105 -410 0 -410 0 0 -105z"/>
<path d="M3992 1948 l3 -103 203 -3 202 -2 0 105 0 105 -205 0 -206 0 3 -102z"/>
<path d="M2667 1534 c-4 -4 -7 -52 -7 -106 l0 -98 105 0 106 0 -3 103 -3 102
-95 3 c-53 1 -99 0 -103 -4z"/>
<path d="M3077 1534 c-4 -4 -7 -52 -7 -106 l0 -98 105 0 106 0 -3 103 -3 102
-95 3 c-53 1 -99 0 -103 -4z"/>
<path d="M3480 1435 l0 -105 105 0 106 0 -3 103 -3 102 -102 3 -103 3 0 -106z"/>
<path d="M4200 1435 l0 -105 100 0 100 0 0 105 0 105 -100 0 -100 0 0 -105z"/>
</g>
</svg>
