<?xml version="1.0" standalone="no"?>
<!DOCTYPE svg PUBLIC "-//W3C//DTD SVG 20010904//EN"
 "http://www.w3.org/TR/2001/REC-SVG-20010904/DTD/svg10.dtd">
<svg version="1.0" xmlns="http://www.w3.org/2000/svg"
 width="512.000000pt" height="512.000000pt" viewBox="0 0 512.000000 512.000000"
 preserveAspectRatio="xMidYMid meet">

<g transform="translate(0.000000,512.000000) scale(0.100000,-0.100000)"
fill="#000000" stroke="none">
<path d="M2420 4794 c-324 -41 -597 -172 -816 -390 -176 -176 -287 -377 -352
-634 -23 -94 -26 -125 -27 -285 0 -195 11 -271 64 -435 25 -78 1260 -2720
1271 -2720 10 0 1245 2638 1271 2716 43 125 61 227 66 375 6 151 -5 253 -42
394 -128 487 -533 862 -1036 960 -82 16 -329 28 -399 19z m249 -819 c235 -56
393 -292 353 -527 -35 -204 -186 -355 -390 -390 -306 -52 -586 227 -534 535
31 184 165 333 342 379 81 21 147 22 229 3z"/>
</g>
</svg>
