<?xml version="1.0" standalone="no"?>
<!DOCTYPE svg PUBLIC "-//W3C//DTD SVG 20010904//EN"
 "http://www.w3.org/TR/2001/REC-SVG-20010904/DTD/svg10.dtd">
<svg version="1.0" xmlns="http://www.w3.org/2000/svg"
 width="512.000000pt" height="512.000000pt" viewBox="0 0 512.000000 512.000000"
 preserveAspectRatio="xMidYMid meet">

<g transform="translate(0.000000,512.000000) scale(0.100000,-0.100000)"
fill="#000000" stroke="none">
<path d="M2453 4848 c-216 -223 -313 -414 -300 -589 14 -174 104 -297 252
-343 l55 -18 0 -84 c0 -46 -4 -84 -8 -84 -4 0 -74 22 -155 49 l-147 50 0 -430
0 -429 -870 0 -870 0 0 -615 0 -615 -155 0 -155 0 0 -820 0 -820 2460 0 2460
0 0 820 0 820 -155 0 -155 0 0 615 0 615 -870 0 -870 0 0 293 0 292 -152 51
-153 50 -3 121 -3 121 56 17 c148 47 238 170 252 344 9 128 -34 249 -148 411
-49 70 -244 280 -259 280 -4 0 -52 -46 -107 -102z m148 -230 c111 -134 159
-233 159 -330 0 -131 -61 -188 -200 -188 -139 0 -200 57 -200 188 0 73 18 123
77 216 46 71 113 156 123 156 3 0 22 -19 41 -42z m-28 -1147 l187 -63 0 -219
0 -219 -200 0 -200 0 0 286 c0 225 3 285 13 282 6 -3 96 -33 200 -67z m1937
-949 l0 -239 -24 -11 c-73 -33 -153 -22 -213 31 -38 34 -72 97 -73 135 0 22
-2 23 -102 20 l-102 -3 -8 -40 c-27 -130 -176 -199 -295 -137 -59 31 -90 75
-107 155 l-6 27 -99 0 -99 0 -7 -37 c-15 -84 -75 -145 -159 -164 -66 -14 -123
0 -173 44 -38 34 -72 97 -73 135 0 22 -2 23 -102 20 l-102 -3 -8 -39 c-28
-136 -180 -204 -300 -133 -52 30 -84 74 -96 133 l-8 39 -102 3 c-100 3 -102 2
-102 -20 -1 -38 -35 -101 -73 -135 -50 -44 -107 -58 -173 -44 -84 19 -144 80
-159 164 l-7 37 -99 0 -99 0 -6 -27 c-17 -80 -48 -124 -107 -155 -119 -62
-268 7 -295 137 l-8 40 -102 3 c-100 3 -102 2 -102 -20 -1 -38 -35 -101 -73
-135 -60 -53 -140 -64 -213 -31 l-24 11 0 239 0 238 1950 0 1950 0 0 -238z
m-3380 -420 c107 -63 262 -69 372 -14 35 17 79 46 99 65 l36 33 39 -34 c21
-19 68 -49 104 -66 59 -28 74 -31 165 -31 91 0 106 3 166 31 37 18 84 48 106
68 l40 35 34 -35 c19 -19 63 -50 99 -67 60 -30 72 -32 170 -32 98 0 110 2 170
32 36 17 80 48 99 67 l34 35 40 -35 c22 -20 69 -50 106 -68 60 -28 75 -31 166
-31 91 0 106 3 165 31 36 17 83 47 104 66 l39 34 36 -33 c148 -138 393 -136
542 4 l35 33 24 -25 c73 -78 192 -120 312 -112 l78 5 0 -159 0 -159 -1950 0
-1950 0 0 159 0 159 78 -5 c120 -8 239 34 312 112 l24 25 35 -33 c20 -19 52
-43 71 -55z m3680 -1177 l0 -615 -2250 0 -2250 0 0 615 0 615 2250 0 2250 0 0
-615z"/>
</g>
</svg>
