<?xml version="1.0" standalone="no"?>
<!DOCTYPE svg PUBLIC "-//W3C//DTD SVG 20010904//EN"
 "http://www.w3.org/TR/2001/REC-SVG-20010904/DTD/svg10.dtd">
<svg version="1.0" xmlns="http://www.w3.org/2000/svg"
 width="330.000000pt" height="553.000000pt" viewBox="0 0 330.000000 553.000000"
 preserveAspectRatio="xMidYMid meet">

<g transform="translate(0.000000,553.000000) scale(0.100000,-0.100000)"
fill="#000000" stroke="none">
<path d="M1400 5520 c-654 -68 -1139 -348 -1236 -713 -8 -29 -14 -66 -14 -82
0 -17 -34 -132 -75 -255 l-75 -225 2 -1705 3 -1705 27 -80 c203 -599 1334
-923 2324 -666 307 81 553 209 724 381 98 97 147 171 187 285 l28 80 3 1705 2
1705 -75 225 c-41 123 -75 239 -75 257 0 53 -47 184 -89 248 -171 261 -554
456 -1041 530 -124 19 -495 28 -620 15z m540 -161 c228 -25 443 -86 635 -179
198 -97 326 -213 392 -355 23 -51 28 -73 27 -145 0 -52 -6 -98 -15 -119 l-15
-34 -2 67 c-9 305 -333 569 -833 679 -173 38 -287 50 -479 50 -256 0 -454 -30
-670 -102 -399 -133 -636 -366 -643 -631 l-2 -61 -15 33 c-9 21 -15 65 -15
119 0 79 3 91 37 160 47 94 102 157 198 228 323 240 850 349 1400 290z m50
-214 c314 -56 543 -157 693 -306 233 -231 138 -504 -238 -689 -172 -85 -370
-137 -604 -160 -596 -58 -1212 164 -1332 480 -29 75 -23 174 14 247 111 217
458 390 887 443 116 14 469 5 580 -15z m-1723 -802 c341 -467 1369 -656 2153
-397 271 90 490 232 612 396 l52 70 22 -63 c21 -62 21 -65 4 -111 -10 -26 -39
-77 -64 -112 -52 -73 -57 -106 -21 -141 28 -29 61 -32 93 -9 l22 15 -2 -1438
-3 -1438 -27 -58 c-15 -32 -45 -84 -68 -115 -46 -67 -50 -99 -16 -131 19 -18
33 -22 60 -19 20 2 36 2 36 0 0 -23 -79 -141 -130 -195 -369 -393 -1252 -552
-1997 -362 -372 96 -671 285 -782 495 l-35 65 70 -64 c232 -213 594 -358 1054
-423 61 -8 189 -13 360 -12 294 0 445 17 663 74 227 58 499 173 532 224 32 49
-5 116 -64 116 -13 0 -47 -13 -75 -29 -288 -164 -798 -261 -1228 -232 -634 43
-1127 268 -1285 588 l-38 77 -3 1437 -2 1436 70 -68 c225 -217 603 -373 1060
-435 172 -24 548 -24 719 0 178 24 336 60 489 111 128 43 331 135 352 160 38
46 6 125 -51 125 -16 0 -80 -24 -142 -54 -211 -102 -476 -172 -750 -197 -162
-15 -515 -6 -657 16 -538 83 -955 317 -1060 593 -17 43 -16 47 3 108 12 35 22
64 23 64 1 0 24 -30 51 -67z"/>
<path d="M1724 4886 c-136 -43 -235 -194 -221 -336 16 -149 115 -258 264 -290
44 -10 92 -5 368 34 174 25 336 51 358 58 55 16 129 90 145 144 40 135 -28
272 -153 309 -65 20 -603 95 -669 94 -28 0 -70 -6 -92 -13z m382 -176 c361
-51 342 -47 370 -77 33 -35 31 -77 -3 -112 -26 -25 -42 -29 -253 -59 -252 -36
-265 -37 -230 -19 13 7 30 24 37 37 16 31 17 146 2 189 -19 55 -82 69 -124 26
-23 -22 -25 -32 -25 -112 0 -97 11 -126 59 -145 25 -11 25 -11 -19 -19 -127
-21 -188 -3 -237 70 -34 50 -32 133 3 185 25 36 89 75 125 76 9 0 142 -18 295
-40z"/>
</g>
</svg>
