<svg xmlns="http://www.w3.org/2000/svg" viewBox="0 0 218.54 144.52"><title>Asset 92</title><g id="Layer_2" data-name="Layer 2"><g id="Capa_1" data-name="Capa 1"><path d="M204.45,39.13V31.72A31.77,31.77,0,0,0,172.72,0H45.82A31.76,31.76,0,0,0,14.1,31.72v7.41A17.65,17.65,0,0,0,0,56.4v67a3.53,3.53,0,0,0,3.52,3.53H7.05V141a3.53,3.53,0,0,0,3.52,3.52H21.15a3.5,3.5,0,0,0,3.45-2.83l3-14.79H191l3,14.79a3.52,3.52,0,0,0,3.46,2.83H208A3.53,3.53,0,0,0,211.5,141V126.9H215a3.52,3.52,0,0,0,3.52-3.53v-67A17.63,17.63,0,0,0,204.45,39.13ZM21.15,31.72A24.69,24.69,0,0,1,45.82,7.05h126.9A24.7,24.7,0,0,1,197.4,31.72v7.41A17.63,17.63,0,0,0,183.3,56.4V77.55h-148V56.4a17.65,17.65,0,0,0-14.1-17.27ZM183.3,84.6v21.15h-148V84.6Zm-165,52.87H14.1V126.9h6.27Zm186.19,0h-4.16l-2.12-10.57h6.28Zm7.05-17.62H7.05V56.4a10.58,10.58,0,1,1,21.15,0v52.87a3.53,3.53,0,0,0,3.52,3.53h155.1a3.53,3.53,0,0,0,3.53-3.53V56.4a10.58,10.58,0,1,1,21.15,0Z"/><path d="M109.27,52.87A10.58,10.58,0,1,0,98.7,42.3,10.58,10.58,0,0,0,109.27,52.87Zm0-14.1a3.53,3.53,0,1,1-3.52,3.53A3.53,3.53,0,0,1,109.27,38.77Z"/><path d="M67,52.87A10.58,10.58,0,1,0,56.4,42.3,10.58,10.58,0,0,0,67,52.87Zm0-14.1a3.53,3.53,0,1,1-3.52,3.53A3.53,3.53,0,0,1,67,38.77Z"/><path d="M151.57,52.87A10.58,10.58,0,1,0,141,42.3,10.58,10.58,0,0,0,151.57,52.87Zm0-14.1a3.53,3.53,0,1,1-3.52,3.53A3.53,3.53,0,0,1,151.57,38.77Z"/><path d="M70.5,95.17H42.3a3.53,3.53,0,1,0,0,7H70.5a3.53,3.53,0,0,0,0-7Z"/><path d="M84.6,95.17H81.07a3.53,3.53,0,0,0,0,7H84.6a3.53,3.53,0,0,0,0-7Z"/></g></g></svg>