<?xml version="1.0" standalone="no"?>
<!DOCTYPE svg PUBLIC "-//W3C//DTD SVG 20010904//EN"
 "http://www.w3.org/TR/2001/REC-SVG-20010904/DTD/svg10.dtd">
<svg version="1.0" xmlns="http://www.w3.org/2000/svg"
 width="437.000000pt" height="569.000000pt" viewBox="0 0 437.000000 569.000000"
 preserveAspectRatio="xMidYMid meet">

<g transform="translate(0.000000,569.000000) scale(0.100000,-0.100000)"
fill="#000000" stroke="none">
<path d="M608 5661 l-33 -29 0 -159 0 -158 95 0 95 0 3 93 3 92 1699 0 1700 0
0 -2370 0 -2370 -89 0 c-103 0 -101 2 -101 -95 0 -101 -11 -95 171 -95 153 0
159 1 186 24 l28 24 3 2494 c2 1864 -1 2500 -9 2521 -25 61 101 57 -1893 57
l-1826 0 -32 -29z"/>
<path d="M38 5091 l-33 -29 0 -2502 0 -2502 33 -29 32 -29 1835 0 1834 0 28
24 28 24 0 2036 0 2036 -500 500 -500 500 -1363 0 -1362 0 -32 -29z m2622
-605 l0 -445 24 -28 24 -28 451 -3 451 -3 0 -1894 0 -1895 -1705 0 -1705 0 0
2370 0 2370 1230 0 1230 0 0 -444z m505 -6 l310 -310 -313 0 -312 0 0 310 c0
171 1 310 3 310 1 0 142 -139 312 -310z"/>
<path d="M804 4345 c-34 -23 -48 -68 -34 -110 21 -63 31 -65 379 -65 l311 0
29 28 c44 40 46 99 5 137 l-27 25 -321 0 c-266 0 -325 -3 -342 -15z"/>
<path d="M807 3779 c-27 -16 -49 -67 -42 -99 4 -16 20 -41 37 -55 l30 -25
1080 2 1080 3 24 28 c32 38 32 86 -2 126 l-26 31 -1081 0 c-716 -1 -1088 -4
-1100 -11z"/>
<path d="M820 3212 c-65 -32 -76 -104 -24 -153 l26 -24 705 0 705 0 24 28 c26
30 32 83 13 119 -25 47 -33 48 -746 48 -616 0 -671 -1 -703 -18z"/>
<path d="M2534 3220 c-30 -12 -64 -58 -64 -87 0 -36 25 -78 55 -91 41 -19 427
-16 465 3 48 25 63 75 39 129 -23 49 -59 56 -276 55 -109 0 -208 -4 -219 -9z"/>
<path d="M825 2651 c-64 -27 -81 -110 -32 -158 l27 -28 1058 -3 c739 -2 1068
0 1094 8 85 24 90 150 7 179 -38 13 -2122 15 -2154 2z"/>
<path d="M825 2081 c-57 -24 -80 -107 -41 -150 34 -38 78 -43 339 -39 l249 3
29 33 c31 35 36 66 17 107 -23 51 -45 55 -320 54 -139 0 -262 -4 -273 -8z"/>
<path d="M1674 2080 c-56 -22 -73 -112 -30 -155 13 -13 39 -26 57 -30 19 -3
314 -5 657 -3 l624 3 29 33 c46 52 37 117 -21 147 -25 13 -116 15 -662 14
-348 0 -643 -4 -654 -9z"/>
<path d="M802 1495 c-17 -14 -33 -39 -37 -55 -7 -33 15 -84 44 -100 13 -7 378
-10 1099 -10 l1080 0 26 31 c34 40 34 88 2 126 l-24 28 -1080 3 -1080 2 -30
-25z"/>
<path d="M808 935 c-36 -20 -54 -76 -38 -116 22 -53 41 -59 185 -59 146 0 166
7 185 64 13 41 2 75 -36 105 -24 19 -39 21 -148 21 -86 -1 -129 -5 -148 -15z"/>
<path d="M1379 935 c-55 -30 -62 -116 -12 -155 25 -20 39 -20 820 -20 l795 0
29 29 c40 41 40 91 0 132 l-29 29 -789 0 c-661 -1 -792 -3 -814 -15z"/>
</g>
</svg>
