<?xml version="1.0" standalone="no"?>
<!DOCTYPE svg PUBLIC "-//W3C//DTD SVG 20010904//EN"
 "http://www.w3.org/TR/2001/REC-SVG-20010904/DTD/svg10.dtd">
<svg version="1.0" xmlns="http://www.w3.org/2000/svg"
 width="401.000000pt" height="481.000000pt" viewBox="0 0 401.000000 481.000000"
 preserveAspectRatio="xMidYMid meet">

<g transform="translate(0.000000,481.000000) scale(0.100000,-0.100000)"
fill="#000000" stroke="none">
<path d="M764 4798 c-38 -18 -44 -51 -44 -223 l0 -165 -45 0 c-24 0 -55 -5
-69 -11 -50 -23 -57 -103 -13 -134 12 -9 44 -15 74 -15 l53 0 0 -77 -1 -78
-67 -30 c-101 -45 -237 -140 -321 -225 -178 -178 -293 -416 -322 -664 -6 -60
-9 -527 -7 -1376 l3 -1285 31 -85 c16 -47 47 -111 68 -142 54 -83 153 -171
238 -212 112 -55 183 -69 313 -63 125 5 197 26 285 82 92 59 132 75 185 75 53
0 75 -9 179 -73 66 -41 170 -79 222 -80 47 -1 78 30 78 79 0 45 -34 78 -90 89
-42 7 -118 44 -179 85 -68 46 -132 65 -215 64 -88 -2 -141 -20 -227 -75 -161
-105 -325 -116 -486 -32 -83 44 -154 119 -199 211 l-33 67 -3 273 -3 272 694
0 c664 0 696 1 718 19 34 27 32 86 -5 117 l-27 24 -690 0 -689 0 0 800 0 800
854 0 c819 0 855 1 877 19 34 27 32 86 -5 117 l-27 24 -851 0 -851 0 6 128 c6
150 24 224 83 351 113 241 299 410 558 507 65 24 76 51 76 189 l0 105 235 0
235 0 0 -119 c0 -138 10 -159 82 -180 62 -18 198 -92 265 -144 176 -136 299
-328 351 -551 21 -87 41 -122 72 -126 37 -5 62 2 81 21 19 19 21 29 16 83 -7
76 -55 228 -100 316 -58 115 -108 183 -216 291 -108 108 -219 185 -328 231
l-53 22 0 78 0 78 51 0 c62 0 84 11 98 50 21 62 -22 110 -101 110 l-47 0 -3
176 -3 176 -28 24 -28 24 -342 -1 c-214 0 -350 -4 -363 -11z m596 -268 l0
-120 -235 0 -235 0 0 120 0 120 235 0 235 0 0 -120z"/>
<path d="M3004 3918 c-39 -18 -44 -50 -44 -252 l0 -192 -117 -165 c-93 -130
-117 -171 -117 -198 0 -57 71 -98 118 -68 25 17 262 345 277 385 5 13 9 95 9
183 l0 159 154 0 155 0 3 -177 3 -178 129 -180 c122 -170 186 -272 201 -322
l6 -23 -264 0 c-237 0 -267 -2 -286 -17 -33 -27 -38 -82 -11 -116 l21 -27 293
0 293 0 7 -37 c3 -21 6 -57 6 -80 l0 -43 -294 0 c-265 0 -296 -2 -315 -17 -33
-27 -38 -82 -11 -116 l21 -27 300 0 299 0 0 -80 0 -80 -294 0 c-265 0 -296 -2
-315 -18 -33 -26 -38 -81 -11 -115 l21 -27 286 0 c252 0 284 -2 279 -15 -30
-78 -40 -140 -40 -230 0 -87 5 -116 37 -218 20 -65 37 -131 37 -148 l0 -29
-294 0 c-265 0 -296 -2 -315 -17 -33 -27 -38 -82 -11 -116 l21 -27 300 0 299
0 0 -80 0 -80 -294 0 c-265 0 -296 -2 -315 -18 -33 -26 -38 -81 -11 -115 l21
-27 300 0 299 0 0 -80 0 -80 -294 0 c-265 0 -296 -2 -315 -18 -33 -26 -38 -81
-11 -115 l21 -27 300 0 299 0 0 -184 c0 -173 -1 -185 -22 -216 -46 -67 -66
-75 -206 -78 l-127 -3 -45 34 c-73 55 -154 72 -229 46 -56 -20 -70 -88 -26
-129 21 -20 35 -24 74 -22 42 2 54 -3 91 -32 63 -50 104 -58 276 -54 132 3
154 6 196 26 94 47 158 134 179 245 6 38 9 265 7 660 l-4 602 -37 113 c-50
154 -50 220 -1 380 35 114 37 123 41 312 9 324 -19 504 -107 685 -21 44 -95
159 -164 255 l-125 176 -3 208 -3 208 -28 24 -28 24 -262 -1 c-159 0 -270 -4
-283 -11z"/>
<path d="M774 3770 c-63 -32 -81 -86 -43 -134 47 -59 179 -8 179 71 0 28 -38
71 -70 78 -15 3 -41 -3 -66 -15z"/>
<path d="M502 3545 c-58 -49 -145 -224 -158 -318 -5 -36 -2 -48 17 -71 47 -53
129 -26 143 47 10 52 49 138 89 198 41 62 47 105 20 138 -30 35 -74 37 -111 6z"/>
<path d="M2291 3035 c-68 -19 -109 -44 -154 -95 -48 -53 -57 -91 -57 -257 l0
-143 -99 -50 c-114 -57 -163 -96 -194 -154 -20 -38 -22 -57 -25 -269 l-3 -229
35 -74 35 -74 -34 -72 c-32 -67 -35 -80 -35 -168 0 -88 3 -101 35 -168 l34
-72 -34 -72 c-32 -67 -35 -80 -35 -168 0 -88 3 -101 35 -168 l34 -72 -34 -72
-35 -72 0 -181 c0 -212 10 -262 67 -320 74 -76 61 -75 578 -75 513 0 504 -1
572 71 59 63 67 94 71 302 l4 187 -38 80 -37 80 36 78 c33 70 37 86 37 162 0
76 -4 92 -37 162 l-36 78 36 78 c33 70 37 86 37 162 0 76 -4 92 -37 162 l-36
78 36 78 37 78 0 191 c0 311 -14 342 -202 438 l-116 59 -4 161 c-3 139 -6 165
-25 200 -29 55 -68 89 -136 121 -74 33 -195 42 -276 19z m218 -174 c70 -35 67
-69 -10 -109 -57 -30 -158 -27 -213 7 -121 75 88 170 223 102z m64 -418 c4 -6
69 -44 145 -83 75 -40 143 -79 150 -88 9 -11 12 -70 12 -209 0 -187 -1 -195
-25 -243 l-25 -50 -300 0 c-201 0 -307 -4 -324 -11 -50 -23 -57 -103 -13 -134
18 -12 74 -15 329 -15 l308 0 25 -50 c35 -68 35 -152 0 -220 l-25 -50 -300 0
c-201 0 -307 -4 -324 -11 -50 -23 -57 -103 -13 -134 18 -12 74 -15 329 -15
l308 0 25 -50 c18 -37 25 -65 25 -110 0 -45 -7 -73 -25 -110 l-25 -50 -300 0
c-201 0 -307 -4 -324 -11 -50 -23 -57 -103 -13 -134 18 -12 74 -15 329 -15
l308 0 25 -50 c24 -47 25 -58 25 -215 0 -163 0 -166 -25 -190 l-24 -25 -424 0
c-414 0 -425 0 -451 21 l-26 20 0 174 0 173 41 86 41 86 -41 86 c-36 75 -41
95 -41 154 0 59 5 79 41 154 l41 86 -41 86 c-36 75 -41 95 -41 154 0 59 5 79
41 154 l41 86 -41 86 -41 86 0 202 c0 181 2 205 18 218 9 9 76 45 148 81 147
73 154 82 154 180 0 47 1 49 23 42 47 -15 201 -17 242 -3 l40 13 5 -70 c3 -38
9 -75 13 -82z"/>
<path d="M2109 2151 c-20 -16 -24 -30 -27 -92 -3 -64 -1 -78 18 -101 27 -34
85 -38 121 -9 21 17 24 27 24 96 0 72 -2 78 -28 101 -34 29 -76 31 -108 5z"/>
<path d="M363 2638 c-47 -23 -53 -103 -10 -133 25 -17 70 -20 97 -5 10 5 23
23 29 40 25 72 -46 132 -116 98z"/>
<path d="M363 2318 c-41 -20 -44 -48 -41 -367 l3 -303 24 -19 c30 -25 85 -25
110 0 30 30 32 62 29 369 l-3 284 -28 24 c-30 26 -58 29 -94 12z"/>
</g>
</svg>
