<?xml version="1.0" standalone="no"?>
<!DOCTYPE svg PUBLIC "-//W3C//DTD SVG 20010904//EN"
 "http://www.w3.org/TR/2001/REC-SVG-20010904/DTD/svg10.dtd">
<svg version="1.0" xmlns="http://www.w3.org/2000/svg"
 width="401.000000pt" height="513.000000pt" viewBox="0 0 401.000000 513.000000"
 preserveAspectRatio="xMidYMid meet">

<g transform="translate(0.000000,513.000000) scale(0.100000,-0.100000)"
fill="#000000" stroke="none">
<path d="M223 4907 l-223 -222 0 -2311 0 -2311 21 -27 20 -26 1958 0 1958 0
21 23 22 23 0 2314 0 2315 -223 222 -222 223 -1555 0 -1555 0 -222 -223z
m3382 -57 l120 -120 -1725 0 -1725 0 120 120 120 120 1485 0 1485 0 120 -120z
m235 -2480 l0 -2200 -1840 0 -1840 0 0 2200 0 2200 1840 0 1840 0 0 -2200z"/>
<path d="M1426 4154 c-147 -46 -234 -174 -224 -328 6 -90 39 -157 108 -219 93
-84 80 -82 695 -82 l540 0 63 29 c247 114 258 454 18 576 l-69 35 -541 2
c-462 2 -548 0 -590 -13z m1134 -171 c71 -44 96 -130 58 -202 -13 -25 -36 -54
-51 -65 -28 -21 -39 -21 -567 -21 -528 0 -539 0 -566 21 -71 52 -91 124 -55
197 23 48 57 76 106 88 16 4 257 7 535 6 500 -2 505 -2 540 -24z"/>
<path d="M1465 3906 c-33 -33 -34 -84 -2 -114 l23 -22 516 0 517 0 20 26 c26
33 27 75 2 105 l-19 24 -516 3 -516 3 -25 -25z"/>
<path d="M2963 3328 l-203 -202 -17 24 c-77 112 -229 166 -352 125 -28 -9 -74
-32 -102 -51 l-50 -35 -36 27 c-57 43 -141 74 -203 74 -63 0 -146 -31 -203
-74 l-37 -28 -37 28 c-121 92 -268 96 -391 12 -45 -31 -106 -115 -117 -160 -5
-20 -17 -30 -43 -39 -82 -27 -156 -99 -191 -186 -9 -21 -20 -33 -33 -33 -10 0
-30 -11 -43 -25 -24 -23 -25 -28 -25 -173 0 -172 16 -281 61 -408 124 -355
412 -623 777 -722 88 -24 114 -26 282 -26 169 0 194 2 283 27 364 98 658 372
778 723 43 130 59 236 59 406 0 145 -1 150 -25 173 -13 14 -32 25 -43 25 -12
0 -25 16 -40 48 -22 49 -69 106 -112 135 l-24 17 202 203 c179 180 202 207
202 236 0 21 -9 40 -25 56 -16 16 -35 25 -56 25 -29 0 -56 -23 -236 -202z
m-1363 -225 c25 -16 59 -52 60 -65 0 -4 -9 -9 -20 -13 -11 -3 -42 -22 -70 -41
l-50 -34 -50 34 c-28 19 -59 38 -70 41 -11 4 -20 10 -20 15 0 17 62 70 88 76
15 3 32 7 37 9 18 5 69 -7 95 -22z m480 0 c25 -16 59 -52 60 -65 0 -4 -9 -9
-20 -13 -11 -3 -42 -22 -70 -41 l-50 -34 -50 34 c-28 19 -59 38 -70 41 -11 4
-20 10 -20 15 0 17 62 70 88 76 15 3 32 7 37 9 18 5 69 -7 95 -22z m480 0 c25
-16 59 -52 60 -65 0 -4 -9 -9 -20 -13 -11 -3 -42 -22 -70 -41 l-50 -34 -50 34
c-28 19 -59 38 -70 41 -11 4 -20 10 -20 15 0 17 62 70 88 76 15 3 32 7 37 9
18 5 69 -7 95 -22z m-1193 -245 c17 -10 34 -25 37 -33 5 -13 -14 -15 -124 -15
-108 0 -128 2 -124 14 8 20 52 48 89 56 40 9 83 2 122 -22z m480 0 c17 -10 34
-25 37 -33 5 -13 -14 -15 -124 -15 -108 0 -128 2 -124 14 8 20 52 48 89 56 40
9 83 2 122 -22z m480 0 c17 -10 34 -25 37 -33 5 -13 -14 -15 -124 -15 -108 0
-128 2 -124 14 8 20 52 48 89 56 40 9 83 2 122 -22z m480 0 c17 -10 34 -25 37
-33 5 -13 -14 -15 -124 -15 -108 0 -128 2 -124 14 8 20 52 48 89 56 40 9 83 2
122 -22z m150 -320 c-21 -374 -219 -674 -548 -832 -149 -72 -226 -89 -409 -89
-183 0 -260 17 -409 89 -213 102 -360 251 -462 468 -50 107 -77 223 -86 364
l-6 112 963 0 963 0 -6 -112z"/>
<path d="M843 1280 c-67 -27 -53 -137 19 -155 13 -3 533 -4 1156 -3 l1134 3
24 28 c39 45 29 98 -23 125 -26 15 -2275 16 -2310 2z"/>
<path d="M843 1040 c-27 -11 -43 -40 -43 -79 0 -38 28 -68 72 -76 18 -3 539
-4 1156 -3 l1124 3 24 28 c38 45 31 98 -17 122 -24 13 -185 15 -1161 14 -628
0 -1143 -4 -1155 -9z"/>
<path d="M1385 786 c-34 -34 -34 -84 1 -117 l26 -24 590 0 590 0 24 28 c29 34
31 76 5 108 l-19 24 -596 3 -596 2 -25 -24z"/>
</g>
</svg>
