<?xml version="1.0" standalone="no"?>
<!DOCTYPE svg PUBLIC "-//W3C//DTD SVG 20010904//EN"
 "http://www.w3.org/TR/2001/REC-SVG-20010904/DTD/svg10.dtd">
<svg version="1.0" xmlns="http://www.w3.org/2000/svg"
 width="594.000000pt" height="714.000000pt" viewBox="0 0 594.000000 714.000000"
 preserveAspectRatio="xMidYMid meet">

<g transform="translate(0.000000,714.000000) scale(0.100000,-0.100000)"
fill="#000000" stroke="none">
<path d="M1065 6833 c-550 -145 -1001 -266 -1003 -268 -5 -5 105 -6145 110
-6150 3 -3 434 -73 957 -156 l953 -150 498 79 498 79 450 -75 449 -75 824 106
c772 98 824 106 841 127 17 21 18 102 18 1720 0 1602 -1 1699 -17 1718 -15 17
-77 32 -373 87 -195 37 -361 68 -368 70 -8 3 69 114 198 285 l210 280 295 0
c282 0 296 1 315 20 25 25 25 55 0 80 -19 19 -33 20 -338 20 -240 0 -322 -3
-334 -12 -9 -7 -122 -155 -252 -329 l-236 -316 -63 11 c-54 10 -100 7 -347
-21 -156 -18 -285 -31 -285 -30 -1 1 4 504 12 1117 7 613 12 1207 10 1319 l-2
204 -995 263 c-547 145 -1002 263 -1010 263 -8 0 -465 -120 -1015 -266z m1880
-153 c418 -110 769 -204 780 -209 18 -7 16 -10 -15 -18 -19 -6 -399 -119 -844
-253 l-809 -243 -823 269 c-453 147 -821 270 -819 273 3 2 382 95 842 206 817
197 839 202 883 189 25 -7 387 -103 805 -214z m872 -1637 c-6 -622 -15 -1134
-18 -1137 -3 -3 -181 -26 -397 -50 -330 -38 -415 -51 -434 -69 -2 -1 -5 -742
-8 -1647 l-5 -1645 -320 -31 c-176 -18 -346 -35 -378 -39 l-57 -6 2 2672 3
2672 810 257 810 258 2 -52 c2 -28 -3 -560 -10 -1183z m-3162 532 c175 -357
318 -651 319 -652 1 -2 218 184 482 413 l479 415 3 -2667 c1 -1467 1 -2668 0
-2669 -8 -5 -1503 156 -1508 162 -4 5 -28 1239 -54 2743 -25 1504 -48 2777
-50 2828 -2 51 0 90 5 85 4 -4 150 -300 324 -658z m495 440 c338 -97 618 -180
622 -184 5 -4 -162 -163 -370 -354 l-377 -347 -25 52 c-14 29 -127 261 -252
515 -124 254 -229 472 -233 484 -5 16 -4 21 6 17 8 -3 291 -85 629 -183z
m3500 -2187 c-17 -24 -44 -60 -58 -80 -15 -21 -36 -38 -47 -38 -11 -1 -143
-13 -294 -28 l-274 -28 -243 40 c-134 22 -244 43 -244 46 0 8 1040 127 1123
129 l69 1 -32 -42z m337 -20 c95 -17 171 -33 169 -35 -5 -5 -407 -44 -417 -41
-9 3 60 107 71 108 3 0 83 -14 177 -32z m553 -1743 l0 -1625 -22 -5 c-31 -6
-1439 -185 -1461 -185 -16 0 -17 96 -17 1645 0 1309 3 1645 13 1646 15 1 1469
146 1480 148 4 0 7 -730 7 -1624z m-2047 1550 c182 -31 332 -57 333 -58 1 -1
-93 -75 -209 -164 l-210 -162 -125 207 c-129 215 -139 232 -128 232 4 0 156
-25 339 -55z m-270 -311 c70 -117 134 -215 143 -218 9 -4 26 -4 36 0 11 3 131
92 266 196 l247 191 3 -1608 c1 -885 0 -1610 -2 -1613 -3 -2 -191 27 -418 65
l-413 69 -3 1574 c-1 878 2 1570 7 1565 4 -6 65 -105 134 -221z"/>
<path d="M1880 6693 c-87 -13 -182 -39 -222 -59 -77 -39 -78 -42 -78 -263 l0
-194 33 -31 c67 -63 226 -96 462 -96 236 0 395 33 462 96 l33 31 0 198 0 198
-34 32 c-66 62 -228 95 -466 93 -91 0 -176 -2 -190 -5z m400 -63 c94 -15 194
-47 213 -68 16 -18 16 -20 0 -34 -121 -103 -715 -103 -836 0 -16 14 -16 17 -1
33 20 22 92 47 187 64 87 16 348 19 437 5z m-581 -190 c78 -30 228 -50 376
-50 148 0 298 20 376 50 30 11 55 20 57 20 1 0 2 -58 2 -129 0 -126 -1 -130
-25 -149 -14 -11 -62 -30 -107 -43 -76 -22 -102 -24 -303 -24 -201 0 -227 2
-303 24 -45 13 -93 32 -107 43 -24 19 -25 23 -25 149 0 71 1 129 3 129 1 0 26
-9 56 -20z"/>
<path d="M4715 3229 c-412 -27 -431 -29 -448 -50 -16 -20 -17 -47 -15 -317 l3
-295 25 -18 c24 -17 40 -16 520 33 484 49 495 50 518 74 22 25 22 29 22 292 0
328 5 313 -113 311 -45 -1 -275 -14 -512 -30z m503 -286 l-3 -198 -405 -42
c-223 -23 -413 -42 -422 -42 -17 -1 -18 16 -18 214 l0 215 53 1 c28 0 203 11
387 23 184 13 352 24 373 25 l37 1 -2 -197z"/>
</g>
</svg>
