<?xml version="1.0" standalone="no"?>
<!DOCTYPE svg PUBLIC "-//W3C//DTD SVG 20010904//EN"
 "http://www.w3.org/TR/2001/REC-SVG-20010904/DTD/svg10.dtd">
<svg version="1.0" xmlns="http://www.w3.org/2000/svg"
 width="513.000000pt" height="513.000000pt" viewBox="0 0 513.000000 513.000000"
 preserveAspectRatio="xMidYMid meet">

<g transform="translate(0.000000,513.000000) scale(0.100000,-0.100000)"
fill="#000000" stroke="none">
<path d="M561 5116 c-51 -28 -50 -20 -51 -643 l0 -581 -44 -26 c-184 -108
-341 -302 -412 -509 -56 -162 -54 -114 -54 -1756 0 -1489 0 -1517 20 -1548 11
-18 30 -35 42 -38 13 -3 381 -4 818 -1 437 2 804 4 815 4 11 0 330 -2 708 -4
675 -4 689 -4 734 16 l46 20 42 -20 c41 -20 55 -20 907 -18 l864 3 36 24 c47
33 75 76 88 137 8 35 10 456 8 1405 l-3 1354 -23 108 c-58 275 -171 492 -358
686 -50 53 -119 116 -152 141 -33 25 -70 60 -83 79 l-24 35 -5 544 -5 544 -33
29 -32 29 -290 0 -290 0 -32 -29 -33 -29 -5 -544 -5 -544 -24 -35 c-13 -19
-50 -54 -83 -79 -88 -66 -237 -225 -300 -321 -145 -219 -208 -410 -231 -699
l-12 -145 -62 140 c-72 162 -113 280 -148 426 -57 240 -58 250 -64 1004 -6
656 -7 702 -25 737 -24 49 -76 94 -123 107 -22 6 -139 11 -273 11 -206 0 -240
-3 -275 -19 -51 -23 -101 -79 -114 -128 -7 -25 -11 -255 -11 -654 0 -364 -4
-660 -11 -725 -25 -257 -101 -536 -210 -777 l-54 -119 -6 224 c-4 122 -12 250
-18 283 -53 265 -203 489 -419 629 l-72 47 0 572 c0 525 -1 575 -18 607 -9 19
-28 40 -42 47 -37 19 -566 18 -599 -1z m449 -511 l0 -325 -150 0 -150 0 0 325
0 325 150 0 150 0 0 -325z m1610 185 l0 -140 -200 0 -200 0 0 140 0 140 200 0
200 0 0 -140z m1650 50 l0 -90 -150 0 -150 0 0 90 0 90 150 0 150 0 0 -90z m0
-505 l0 -205 -150 0 -150 0 0 205 0 205 150 0 150 0 0 -205z m-1650 -217 c1
-297 9 -499 26 -627 l7 -51 -233 0 -233 0 7 58 c16 131 25 365 26 645 l0 297
200 0 200 0 0 -322z m-1610 -173 c0 -164 7 -183 83 -221 173 -88 310 -235 377
-404 40 -101 50 -187 50 -426 l0 -224 -376 0 -376 0 -34 -34 c-22 -22 -34 -44
-34 -60 0 -35 25 -83 49 -96 13 -6 157 -10 395 -10 l376 0 0 -730 0 -730 -655
0 -655 0 0 1073 c0 1031 1 1077 19 1150 52 202 188 375 372 472 111 58 109 54
109 227 l0 148 150 0 150 0 0 -135z m3305 -65 c33 -64 73 -110 160 -179 232
-185 384 -440 430 -726 13 -76 15 -301 15 -1427 l0 -1338 -800 0 -800 0 0
1338 c0 1151 2 1350 15 1431 46 283 199 539 430 723 86 68 127 114 160 178
l25 50 170 0 170 0 25 -50z m-1587 -768 c33 -120 92 -272 180 -467 94 -208
156 -430 187 -668 12 -98 15 -256 15 -918 l0 -800 -25 -24 -24 -25 -641 0
-641 0 -25 25 -25 25 3 853 4 852 26 135 c47 235 96 387 198 610 67 146 128
309 161 433 l24 87 275 0 275 0 33 -118z m-1208 -2602 l0 -300 -655 0 -655 0
0 300 0 300 655 0 655 0 0 -300z"/>
<path d="M393 2660 c-32 -13 -55 -54 -55 -97 0 -49 46 -93 98 -93 46 0 70 14
89 50 24 46 19 78 -19 116 -35 35 -68 42 -113 24z"/>
<path d="M773 2105 c-153 -42 -258 -157 -283 -312 -22 -135 42 -285 154 -363
197 -135 462 -61 564 158 23 49 27 70 27 152 0 82 -4 103 -27 152 -50 107
-141 183 -254 213 -71 18 -112 18 -181 0z m166 -210 c16 -8 40 -28 54 -44 99
-118 21 -281 -135 -281 -172 0 -232 233 -83 317 47 27 122 30 164 8z"/>
<path d="M3590 2557 c-14 -7 -33 -28 -43 -47 -16 -33 -17 -84 -15 -758 l3
-724 33 -29 32 -29 520 0 520 0 32 29 33 29 3 179 c5 238 -9 278 -97 290 -36
5 -44 2 -76 -30 l-35 -35 0 -131 0 -131 -380 0 -380 0 0 600 0 600 380 0 380
0 0 -100 c0 -141 24 -182 108 -182 25 0 43 8 66 31 l31 31 3 163 c3 178 -6
218 -58 244 -19 10 -146 13 -530 13 -384 0 -511 -3 -530 -13z"/>
<path d="M4541 1844 c-38 -32 -49 -80 -27 -122 31 -60 104 -71 157 -24 95 85
-32 229 -130 146z"/>
<path d="M1958 1761 l-33 -29 -3 -548 c-3 -576 -2 -589 42 -619 31 -22 881
-22 912 0 44 30 45 43 42 619 l-3 548 -33 29 -32 29 -430 0 -430 0 -32 -29z
m752 -591 l0 -420 -290 0 -290 0 0 420 0 420 290 0 290 0 0 -420z"/>
</g>
</svg>
